<svg id="Layer_1" data-name="Layer 1" xmlns="http://www.w3.org/2000/svg" width="71.77" height="68.59" viewBox="0 0 71.77 68.59"><defs><style>.cls-1{fill:#313a4c;}</style></defs><title>consist-4</title><path class="cls-1" d="M322.14,220.18l-6.76-16a3.45,3.45,0,0,0-6.36,0l-6.76,16a6.52,6.52,0,0,1-5.46,4l-17.32,1.48a3.45,3.45,0,0,0-2,6L290.67,243a6.51,6.51,0,0,1,2.09,6.42l-3.95,16.93a3.42,3.42,0,0,0,.64,2.92,3.53,3.53,0,0,0,4.5.82l14.88-9a6.64,6.64,0,0,1,6.75,0l14.88,9a3.44,3.44,0,0,0,1.78.5,3.5,3.5,0,0,0,2.72-1.32,3.42,3.42,0,0,0,.64-2.92l-3.95-16.93a6.51,6.51,0,0,1,2.09-6.42l13.15-11.38a3.45,3.45,0,0,0-2-6l-17.32-1.48A6.52,6.52,0,0,1,322.14,220.18ZM346,228.61a1.41,1.41,0,0,1-.43,1.54l-13.15,11.38a8.51,8.51,0,0,0-2.72,8.39l3.95,16.93a1.41,1.41,0,0,1-.26,1.22,1.46,1.46,0,0,1-1.9.35l-14.88-9a8.53,8.53,0,0,0-8.82,0l-14.88,9a1.46,1.46,0,0,1-1.9-.35,1.41,1.41,0,0,1-.26-1.22l3.95-16.93a8.5,8.5,0,0,0-2.72-8.39l-13.15-11.38a1.45,1.45,0,0,1,.83-2.54L297,226.14a8.51,8.51,0,0,0,7.13-5.18l6.76-16a1.45,1.45,0,0,1,2.67,0l6.76,16a8.51,8.51,0,0,0,7.13,5.18l17.32,1.48A1.41,1.41,0,0,1,346,228.61Z" transform="translate(-276.33 -202.05)"/></svg>