<svg id="Layer_1" data-name="Layer 1" xmlns="http://www.w3.org/2000/svg" width="73.9" height="73.66" viewBox="0 0 73.9 73.66"><defs><style>.cls-1{fill:#313a4c;}</style></defs><title>consist-2</title><path class="cls-1" d="M38.33,246.64c1.78-.76,2.76-2,2.68-3.29a2.18,2.18,0,0,0-2.19-2.27h0c-1.67,0-3.81,1.6-5.46,4.19a4,4,0,0,1-2.24-1.09c-1.48-1.59-.48-4.43.61-6.54a12.26,12.26,0,0,1,4-4.7l.06.06a6.15,6.15,0,0,0,4.85,1.72c3.11-.25,3.87-1.35,4-2.24.12-1.12-.82-2.11-2.46-2.61a8.79,8.79,0,0,0-6,.53C32.87,225.73,33,215.89,33,215.78a1,1,0,0,0-1-1h0a1,1,0,0,0-1,1c0,.46-.08,10.34,3.41,15.65a14.44,14.44,0,0,0-4.45,5.33c-2.51,4.84-1.55,7.47-.3,8.82a5.63,5.63,0,0,0,2.71,1.55,17.37,17.37,0,0,0-1.6,6.9,1,1,0,0,0,1,1h0a1,1,0,0,0,1-1,15,15,0,0,1,1.68-6.66A9.83,9.83,0,0,0,38.33,246.64Zm-.51-3.2a2.16,2.16,0,0,1,1-.36h.1a.72.72,0,0,1,.09.38c0,.41-.57.94-1.47,1.33a7.34,7.34,0,0,1-1.78.49A8,8,0,0,1,37.82,243.44ZM40,231.59a4,4,0,0,1,2.42.68,4.83,4.83,0,0,1-2,.47,4.11,4.11,0,0,1-2.81-.75A7.15,7.15,0,0,1,40,231.59Z" transform="translate(-24.73 -196.79)"/><path class="cls-1" d="M90.92,212.51l3.46-7.14a1,1,0,1,0-1.8-.87l-3.46,7.14a1,1,0,0,0,1.8.87Z" transform="translate(-24.73 -196.79)"/><path class="cls-1" d="M43.26,206.67l-2.07-5.76a1,1,0,0,0-1.88.68l2.07,5.76a1,1,0,1,0,1.88-.68Z" transform="translate(-24.73 -196.79)"/><path class="cls-1" d="M51.31,204.32a1,1,0,0,0,.95-.68l1.84-5.53a1,1,0,1,0-1.9-.63L50.36,203a1,1,0,0,0,.95,1.32Z" transform="translate(-24.73 -196.79)"/><path class="cls-1" d="M43.89,223l4.84.23h0a1,1,0,0,0,0-2L44,221a1,1,0,0,0-1,1A1,1,0,0,0,43.89,223Z" transform="translate(-24.73 -196.79)"/><path class="cls-1" d="M91.86,252.24a1,1,0,0,0,.56-.17l5.78-3.89a1,1,0,0,0-1.12-1.66l-5.78,3.89a1,1,0,0,0,.56,1.83Z" transform="translate(-24.73 -196.79)"/><path class="cls-1" d="M26.34,254.61a1,1,0,0,0-1.23,1.58l2.07,1.61a1,1,0,0,0,1.23-1.58Z" transform="translate(-24.73 -196.79)"/><path class="cls-1" d="M87,237.47a1,1,0,1,0,.51-1.93l-4.38-1.15a1,1,0,1,0-.51,1.93Z" transform="translate(-24.73 -196.79)"/><path class="cls-1" d="M38.37,264.54a3,3,0,1,0,0,5.92H87.68a3,3,0,0,0,0-5.92h-.5L84,257.22a1,1,0,0,0,0-.22,1,1,0,0,0-.21-.35L65.47,214.52a4,4,0,1,0-4.9,0l-21.71,50Zm46.64,0H81.53a1,1,0,0,0,.42-.79,1,1,0,0,0-.13-.49l-1-3.11,1.74-1.26ZM63,209.39a2,2,0,1,1-2,2A2,2,0,0,1,63,209.39ZM57.2,227.31l0,.09a1,1,0,0,0,1,.69h.64l-.52.38a1,1,0,0,0-.36,1.12l.2.61-.52-.37a1,1,0,0,0-1.15,0l-.49.33Zm-2.7,6.21,2.5-1.68,2.44,1.77A1,1,0,0,0,61,232.5l-.92-2.84,2.42-1.76a1,1,0,0,0-.59-1.81h-3l-.5-1.55,4-9.22a3.08,3.08,0,0,0,1.23,0l10,23h-2l-.95-2.92a1,1,0,0,0-1.9,0l-.95,2.92H64.74a1,1,0,0,0-.59,1.81l2.48,1.8-.95,2.92A1,1,0,0,0,67.22,246l2.48-1.8,2.48,1.8a1,1,0,0,0,.59.19h0a1,1,0,0,0,.87-1.49l-.89-2.74,1.83-1.33,6.82,15.71H79.56L78.49,253a1,1,0,0,0-1.9,0l-1.07,3.29H72.06a1,1,0,0,0-.59,1.81l2.8,2-1.07,3.29a1,1,0,0,0,.35,1.1H41Zm16.15,8.33.22.68-.58-.42a1,1,0,0,0-1.18,0l-.58.42.22-.68a1,1,0,0,0-.36-1.12l-.58-.42h.72a1,1,0,0,0,1-.69l.22-.68.22.68a1,1,0,0,0,1,.69h.72l-.58.42A1,1,0,0,0,70.65,241.85Zm8,18.22.34,1.05-.9-.65a1,1,0,0,0-1.18,0l-.9.65.34-1.05A1,1,0,0,0,76,259l-.9-.65h1.11a1,1,0,0,0,1-.69l.34-1.05.34,1.05a1,1,0,0,0,1,.69h1.11L79,259A1,1,0,0,0,78.68,260.08Zm-1.14,2.45,2.77,2H74.76Zm9,4h1.15a1,1,0,0,1,0,1.92H38.37a1,1,0,1,1,0-1.92H86.53Z" transform="translate(-24.73 -196.79)"/><path class="cls-1" d="M55.87,254.44H53.43l-.75-2.31a1,1,0,0,0-1.9,0L50,254.44H47.6a1,1,0,0,0-.59,1.81l2,1.43L48.22,260a1,1,0,0,0,1.54,1.12l2-1.43,2,1.43A1,1,0,0,0,55.24,260l-.75-2.31,2-1.43a1,1,0,0,0-.59-1.81Zm-3.14,2a1,1,0,0,0-.36,1.12l0,.08-.07,0a1,1,0,0,0-1.18,0l-.07,0,0-.08a1,1,0,0,0-.36-1.12l-.07,0h.08a1,1,0,0,0,1-.69l0-.08,0,.08a1,1,0,0,0,1,.69h.08Z" transform="translate(-24.73 -196.79)"/></svg>