<?xml version="1.0" standalone="no"?>
<!DOCTYPE svg PUBLIC "-//W3C//DTD SVG 20010904//EN"
 "http://www.w3.org/TR/2001/REC-SVG-20010904/DTD/svg10.dtd">
<svg version="1.0" xmlns="http://www.w3.org/2000/svg"
 width="670.000000pt" height="670.000000pt" viewBox="0 0 670.000000 670.000000"
 preserveAspectRatio="xMidYMid meet">
<metadata>
Created by potrace 1.11, written by Peter Selinger 2001-2013
</metadata>
<g transform="translate(0.000000,670.000000) scale(0.100000,-0.100000)"
fill="#000000" stroke="none">
<path d="M3528 6249 c-635 -61 -1265 -486 -1432 -965 -75 -214 -74 -443 1
-632 54 -134 162 -239 258 -250 69 -7 101 32 150 178 69 210 161 373 298 527
253 286 630 493 897 493 92 0 140 -13 181 -47 151 -128 10 -460 -388 -913
-137 -155 -376 -389 -466 -454 -37 -28 -67 -53 -67 -58 0 -4 -7 -8 -15 -8 -8
0 -15 -4 -15 -10 0 -5 -6 -10 -14 -10 -26 0 -92 -88 -111 -146 -22 -72 -16
-200 14 -296 41 -130 94 -127 343 19 347 204 517 269 673 261 123 -6 192 -53
251 -170 66 -131 91 -366 60 -576 -75 -505 -430 -1151 -868 -1578 -190 -185
-356 -297 -524 -354 -83 -27 -115 -33 -194 -34 -83 -1 -101 2 -144 24 -63 32
-88 65 -94 128 -12 128 76 270 313 508 178 180 325 304 585 498 96 72 177 134
178 138 2 5 8 8 13 8 12 0 193 121 197 132 2 4 10 8 18 8 8 0 14 5 14 11 0 5
4 8 8 5 17 -10 109 84 140 141 73 138 119 338 90 393 -20 38 -53 35 -179 -13
-838 -326 -1561 -834 -1898 -1335 -233 -347 -299 -707 -184 -1003 79 -204 251
-354 473 -416 50 -13 102 -17 230 -18 154 0 173 3 295 34 221 56 431 150 629
281 276 182 589 509 829 868 549 820 783 1859 546 2428 -79 191 -252 374 -444
471 -27 14 -51 27 -53 28 -2 1 30 49 71 106 199 279 331 554 373 776 22 117
15 273 -15 363 -84 250 -355 422 -722 460 -113 11 -174 11 -301 -1z"/>
</g>
</svg>
