<svg id="Layer_1" data-name="Layer 1" xmlns="http://www.w3.org/2000/svg" width="149.8" height="54.91" viewBox="0 0 149.8 54.91"><defs><style>.cls-1{fill:#6dd9e5;}</style></defs><title>bg-share-bottom</title><path class="cls-1" d="M37.62,23.86a3.32,3.32,0,0,1,3.85-5.36,3.32,3.32,0,0,1-3.85,5.36Zm16.51,1.79a3.32,3.32,0,0,1-2.59,6.07,3.32,3.32,0,0,1,2.59-6.07Zm14,3.56a3.32,3.32,0,1,1-3.33,3.31q0-.16,0-.31A3.16,3.16,0,0,1,68.13,29.21Zm14-.15a3.32,3.32,0,1,1-2.49,3.67A3.16,3.16,0,0,1,82.12,29h0Zm14.17-4a3.32,3.32,0,1,1-1.44,4.2A3.17,3.17,0,0,1,96.32,25h0Zm12.43-7.49a3.32,3.32,0,1,1,.1,4.69l-.24-.25A3.16,3.16,0,0,1,108.73,17.57Zm9.79-10.15A3.16,3.16,0,0,1,122.94,7a3.16,3.16,0,0,1,.92,4.34,3.16,3.16,0,0,1-4.42.45A3.16,3.16,0,0,1,118.52,7.42ZM43.44,29c1.53.85,1,3.27.29,4.49s-2.45,3-4,2.12-1-3.27-.29-4.49,2.45-3,4-2.13Zm15.27,6.22c1.69.42,1.79,2.9,1.46,4.26S58.58,43,56.89,42.62s-1.79-2.9-1.46-4.26,1.58-3.51,3.28-3.09Zm16.4,2c1.75,0,2.47,2.35,2.49,3.75S77,44.77,75.21,44.8s-2.47-2.35-2.49-3.75S73.36,37.25,75.11,37.23ZM91.33,35c1.67-.51,3,1.57,3.44,2.91s.44,3.82-1.23,4.33-3-1.57-3.44-2.91S89.66,35.52,91.33,35Zm15.47-6.69a1.58,1.58,0,0,1,.28-.14c1.47-.56,3.08.93,3.79,2.07s1.41,3.58-.07,4.5a1.65,1.65,0,0,1-.28.14c-1.47.56-3.08-.93-3.79-2.07S105.32,29.24,106.8,28.32ZM119.9,17.8c1.21-1.25,3.41-.09,4.42.88s2.24,3.13,1,4.38-3.41.09-4.42-.88S118.66,19.05,119.9,17.8Zm9.5-13.05c.85-1.52,3.27-1,4.5-.28s3,2.45,2.11,4-3.27,1-4.49.28S128.52,6.3,129.4,4.75ZM47.56,41.67c1.44.57.61,3.68.22,4.67s-1.89,3.84-3.34,3.28-.61-3.68-.22-4.67S46.11,41.11,47.56,41.67ZM66.2,46.42c1.54.2,1.48,3.42,1.35,4.48s-.9,4.19-2.44,4-1.49-3.42-1.35-4.48S64.66,46.23,66.2,46.42Zm18.44-.22c1.54-.19,2.3,2.94,2.43,4s.18,4.28-1.36,4.47-2.3-2.94-2.43-4-.18-4.28,1.36-4.48Zm18.65-5.29c1.43-.59,3,2.23,3.39,3.22a7.88,7.88,0,0,1,.65,2.94c0,.61-.14,1.47-.79,1.74-1.43.59-3-2.23-3.39-3.22a7.85,7.85,0,0,1-.65-2.94C102.5,42,102.64,41.18,103.29,40.91Zm16.4-9.9c1.21-1,3.49,1.31,4.16,2.14s2.39,3.56,1.18,4.53-3.49-1.31-4.16-2.14S118.48,32,119.69,31Zm12.86-13.4c.95-1.23,3.71.44,4.55,1.09s3.16,2.89,2.22,4.12-3.7-.44-4.55-1.09S131.61,18.84,132.55,17.61ZM26,12.37A3.16,3.16,0,0,1,26.8,8a3.16,3.16,0,0,1,4.43.34,3.15,3.15,0,0,1-.81,4.36A3.16,3.16,0,0,1,26,12.37ZM20.53,6.25c.9,1.5-.79,3.32-2,4s-3.6,1.35-4.5-.14.79-3.32,2-4S19.63,4.76,20.53,6.25Zm10,13c1.26,1.21.1,3.41-.87,4.42s-3.13,2.24-4.38,1-.1-3.41.87-4.42S29.28,18,30.53,19.25Zm.47,13c1.26.9-.3,3.72-.91,4.59s-2.76,3.27-4,2.38.3-3.72.91-4.59,2.77-3.27,4-2.37ZM7.93,2.59C8.54,4,5.74,5.61,4.76,6S.7,7.39.09,6,2.28,3,3.26,2.57a7.88,7.88,0,0,1,2.93-.69c.61,0,1.47.12,1.75.76Zm9.51,16.24c1,1.2-1.26,3.51-2.08,4.19s-3.52,2.44-4.51,1.24,1.26-3.51,2.08-4.19S16.45,17.63,17.44,18.83ZM141.75.83c.55-1.45,3.68-.64,4.67-.26s3.86,1.86,3.31,3.31-3.67.64-4.67.26-3.86-1.86-3.31-3.3Z"/></svg>