<svg id="Layer_1" data-name="Layer 1" xmlns="http://www.w3.org/2000/svg" width="150.87" height="52.19" viewBox="0 0 150.87 52.19"><defs><style>.cls-1{fill:#6dd9e5;fill-rule:evenodd;}</style></defs><title>bg-share-top</title><path class="cls-1" d="M48.17,25.69A3.4,3.4,0,1,1,47,30.07a3.23,3.23,0,0,1,1.22-4.38ZM23.53,47a3.4,3.4,0,0,1,5.65,3.72A3.4,3.4,0,0,1,23.53,47Zm11.08-12.4A3.4,3.4,0,0,1,39,39.83a3.4,3.4,0,0,1-4.34-5.19ZM39.66,7.95c1.44-.67,3.16,2.15,3.62,3.14s1.52,4.12.08,4.79-3.16-2.15-3.62-3.14-1.52-4.12-.08-4.79ZM36.48,22.13c1.52-.94,3.41.76,4.17,2s1.44,3.67-.08,4.61-3.41-.76-4.17-2-1.44-3.67.08-4.61ZM21.93,34.64c1.17-1.35,3.48-.3,4.57.64s2.29,2.77,1.49,4.17a1.68,1.68,0,0,1-.18.26c-1.17,1.35-3.48.3-4.57-.64s-2.29-2.77-1.49-4.17a1.64,1.64,0,0,1,.18-.26Zm89.64-3.82A3.4,3.4,0,0,1,108,36.58a3.4,3.4,0,0,1,3.55-5.76Zm10.76,12.92A3.4,3.4,0,1,1,118,45a3.23,3.23,0,0,1,4.36-1.29ZM96.92,23.21a3.23,3.23,0,0,1,1.5,4.29,3.06,3.06,0,1,1-1.5-4.29ZM80.8,19.7a3.23,3.23,0,0,1,2.51,3.79,3.06,3.06,0,1,1-6-.9,3.23,3.23,0,0,1,3.51-2.9Zm-16.86,1a3.23,3.23,0,0,1,3.68,2.68,3.06,3.06,0,1,1-5.95,1.26,3.23,3.23,0,0,1,2.27-3.94ZM53.46,14C55.16,13.5,56.59,15.6,57,17s.52,3.91-1.18,4.46-3.13-1.55-3.57-2.92S51.76,14.6,53.46,14ZM72.2,10.66c1.78-.1,2.62,2.31,2.7,3.74s-.5,3.91-2.29,4-2.63-2.31-2.7-3.74.5-3.91,2.29-4ZM82,0c1.59.08,1.78,3.38,1.72,4.47s-.6,4.35-2.19,4.26S79.74,5.35,79.8,4.27,80.4-.08,82,0ZM60.3,1.17C61.86.87,62.84,4,63.05,5.09S63.52,9.46,62,9.76s-2.55-2.85-2.75-3.92-.47-4.37,1.09-4.67Zm30.33,11c1.74.43,1.84,3,1.5,4.36s-1.62,3.6-3.35,3.17-1.84-3-1.5-4.36,1.62-3.6,3.35-3.17Zm18,6.47c1.59.82,1.11,3.31.45,4.59s-2.4,3.13-4,2.31-1.11-3.31-.45-4.59,2.4-3.13,4-2.31Zm15.5,10.87c1.38,1.14.37,3.48-.54,4.58s-3,2.54-4.4,1.4-.37-3.48.54-4.58,3-2.54,4.4-1.4ZM136.89,45c.94,1.52-.77,3.41-2,4.16s-3.67,1.43-4.61-.09.77-3.41,2-4.16,3.68-1.43,4.61.09ZM103.23,4.51c1.51.49.85,3.73.51,4.77s-1.7,4-3.21,3.56-.85-3.73-.51-4.76,1.7-4,3.21-3.56Zm19.6,10.12c.61.37.61,1.27.51,1.88a8.06,8.06,0,0,1-1.13,2.87c-.57.94-2.6,3.54-4,2.71-.61-.37-.61-1.27-.51-1.88a8,8,0,0,1,1.13-2.87c.57-.94,2.6-3.54,4-2.71Zm16.33,15c1.05,1.19-1.17,3.64-2,4.36s-3.53,2.62-4.58,1.42,1.17-3.64,2-4.36,3.53-2.62,4.58-1.42Zm11.6,16.2c.66,1.45-2.18,3.14-3.18,3.59s-4.14,1.47-4.79,0S145,46.33,146,45.88s4.14-1.47,4.79,0ZM21.82,19.63c1.24-1,3.58,1.35,4.26,2.2s2.44,3.65,1.19,4.64-3.58-1.35-4.26-2.2-2.43-3.65-1.2-4.64ZM8.33,34.36c.94-1.28,3.81.35,4.69,1s3.32,2.87,2.38,4.16-3.81-.35-4.69-1S7.4,35.65,8.33,34.36ZM0,49.1c.35-1.55,3.63-1.19,4.7-.95S8.91,49.48,8.56,51s-3.63,1.19-4.7.95S-.32,50.65,0,49.1Z"/></svg>