<?xml version="1.0" encoding="utf-8"?>
<!-- Generator: Adobe Illustrator 21.0.0, SVG Export Plug-In . SVG Version: 6.00 Build 0)  -->
<svg version="1.1" id="Layer_1" xmlns="http://www.w3.org/2000/svg" xmlns:xlink="http://www.w3.org/1999/xlink" width="260" height="351"
	 viewBox="0 0 260 351">
<style type="text/css">
	.st0{fill:#72E1F4;}
	.st1{fill:#FFFFFF;}
</style>
<title>join-team</title>
<path id="Shape_11_copy_7" class="st0" d="M163,32.4c69.5,1.8,98.8,74.2,80.1,147.6c-18.7,73.2-84.3,143.2-153.8,141.4
	S-9.5,247.2,9.1,173.8C27.8,100.7,93.4,30.6,163,32.4L163,32.4z"/>
<path class="st1" d="M47,179.3c-1.1,0.5-2.1,0.7-2.5-0.3c-1-2.3-1.3-5.7,1.1-7.2c3.3-2.3,6.2-5.1,8.8-8.2c2-2.2,3.8-4.6,5.2-7.2
	c6.7-12.6-16-6.4-20.1,8.6c-0.3,1.1-0.9,2.8-2.4,2.3c-2.8-0.8-4-4.4-4.3-7c-0.2-2.1,0.1-4.3,0.9-6.3c2.6-6.7,10.2-11.4,16.9-13.1
	c4.6-1.2,10.3-1.3,14.5,1c9.3,5.1,3.3,16.1-1.2,22.3l-0.7,1c5,2.1,8.3,6.9,8.6,12.3c0.8,8.5-2.1,17.9-6.1,25.3
	c-3.2,6.2-7.6,11.7-12.9,16.2c-4.8,4-13.5,8-20.1,6c-5.9-1.9-8.1-7.7-6.8-13.4c2.9-13.1,21.2-23.3,32.9-27.5l0,0
	c1.4-0.1,1.1,2.4,0.2,4.6c-1.2,3.1-1.7,3-4.2,4.6c-5.9,3.9-17.2,12.4-18.1,17.3c-0.4,1.9,0.7,3.1,2.6,3.3c5.8,0.6,12.1-5.8,15.4-10
	c5.7-7.4,10.5-17.7,8.7-25.2C61.5,168.9,50.7,177.6,47,179.3L47,179.3z M191.9,166.6c-1.4,0.8-2.9,1.3-4.4,1.6c0,0.3,0,0.7-0.1,1
	c-0.3,3-1.2,5.9-2.7,8.5c-4.1,7.2-15.4,11.8-17.9,1c-0.4-1.6-0.5-3.3-0.3-5c-2.4,4.2-6.3,11.7-11,12.2c-3.3,0.4-5.3-1.6-6.1-4.6
	c-1.3,2-3,3.7-5,5c-6.4,4.2-12-0.2-12.2-7.2c-0.2-8.7,8.6-21,18.1-19c3.2,0.7,4.4,3,4.1,6c1.4-0.2,2.4,0.2,2.7,1.8c0,0,0,0.1,0,0.1
	c-1.1,1.5-1.6,4.5-1.8,6.3c-0.4,6.2,1.3,5.7,4.7,1.9c6.5-7.3,9.9-20.4,12.7-29.6c1.8-5.9,5.7-15.5,11.2-18.7
	c7.3-4.2,10.6-0.4,11.2,5c1.6,12.6-9.5,23.7-19.8,29c-0.6,2.2-1,4.4-1.1,6.7c-0.1,1-0.1,2-0.1,3c0.7,8.7,7.5,4.7,8.7-3.1
	c-1.2,0-2.3-0.5-3-1.4c-1.5-2.2-0.1-5.2,1.9-6.5c1.7-1.1,4-0.7,5.1,1c0.3,0.4,0.5,0.9,0.6,1.4c1.3,0.2,2.7,0,3.9-0.5
	c2.9-1.4,5-5.6,8.1-7.9c2.3-1.8,5.1-2.7,8-2.7c3.9,0.1,5.9,1.6,5.3,5.5h0.6c1.5-0.2,3,0.8,3.4,2.3c0,0,0,0.1,0,0.1
	c-1.8,2.1-3.1,7.7-2.7,10.5c1.2,7.6,8.6,7.2,13.4,1.7c3-3.5,4-8.4,2.4-12.7c0-0.1,0-0.2,0.1-0.2c0,0,0,0,0,0c5.5-1,7.4,2.7,6.6,7.6
	c-0.9,4.8-3.7,9-7.7,11.7c-3.6,2.4-8.4,3.7-12.7,2.4c-2.1-0.6-4-1.9-5.4-3.6c-1-1.2-1.8-2.6-2.3-4.1c-1.6,4-6.2,9-10.8,8
	c-5.2-1.1-7-6.8-6.7-11.7C191.2,168.7,191.4,167.6,191.9,166.6L191.9,166.6z M209.1,161c0.6-1.6,0.1-2.8-1.9-2.5
	c-3.3,0.5-6.5,5.1-7.4,7.7c-1.9,6,1.9,7.5,5.8,2.4C207.3,166.4,208.1,163.6,209.1,161L209.1,161z M107.2,186.4
	c1,2.8,3.5,4.9,6.5,5.2c5.9,1,10.9-3.8,13.7-8.4c2.2-3.3,3.5-7.1,3.9-11.1c0.4-6.8-2-12.4-8.4-15.2c-3.6-1.6-8.1-2-11.4-3.8
	c-5.5-2.9,3.7-6.7,6.3-7.5c6.8-2.1,17.3-2.4,24.2-0.9c4.4,1,8.1,2.8,10.7,6.2c0.3,0.5,0.9,0.6,1.4,0.3c0.2-0.1,0.3-0.3,0.4-0.4
	c1.5-2.1,2.6-4.7,1.5-7.3c-3-7.4-20.3-8.2-27.4-7.8c-5.3,0.3-13.5,1.4-19.3,4.7c-5.1,3-9,9.1-4.3,14.4c1.8,1.8,3.9,3.1,6.4,3.9
	c5,1.8,11.1,2.3,13.1,8.1c-1.2-1.1-2.7-1.7-4.3-1.9c-6.5-0.6-12.5,8.6-13.5,14.3c-1.3,2.4-4.5,7.2-7.4,7.5c-2,0.2-1.6-3.2-1.3-4.3
	c0.7-2.6,2-4.9,3.7-7c1.2-1.7-2.1-4-4.8-3.2c-0.2-1.1-0.7-2.1-1.5-2.8c-2.8-2.6-7.8-1.5-10.8,0.2c-6.7,3.6-12.5,14.7-9,22
	c1.6,3.8,5.9,5.6,9.7,4c0,0,0.1,0,0.1-0.1c2.8-1.2,5.1-3.3,6.8-5.8c0.8,3,2.6,4.6,5.9,4.3C101.9,193.5,105.1,189.6,107.2,186.4
	L107.2,186.4z M123.5,175.6c-0.2,1.1-0.5,2.1-1,3.2c-1.9,4.4-7.7,7.8-7.3,1.9c0.2-2.4,2.4-7.7,4.3-9c2.6-1.8,1.9,2.2,1.7,3.5
	c0,0.1,0,0.1,0.1,0.2C122,175.8,122.8,175.9,123.5,175.6L123.5,175.6z M91.4,180.2c-0.3,1.7-1,3.3-2,4.7c-1.7,2.3-5.1,3.9-5.6,0
	c-0.3-2.9,2.4-8.3,4.8-9.9c3.2-2.1,2.1,2.4,1.4,4C89.6,180.1,90.6,180.3,91.4,180.2L91.4,180.2z M178,154.8c2.8-1.9,4.8-4.8,6.9-7.5
	c2.4-3.2,4.6-7.5,4.6-11.6c0-1.7-0.5-2.8-1.8-1.5C182.9,139.6,180.7,147.9,178,154.8L178,154.8z M143.5,179.6
	c4.6,0.2,7.6-12,5.9-12.7c-1-0.3-2.2-0.1-3.1,0.5c-2.4,1.5-5.1,7-4.8,9.9C141.6,178.4,142.2,179.6,143.5,179.6L143.5,179.6z"/>
<path class="st1" d="M111.2,208.9c0.9,0.2,1.6,1,1.8,1.9c0.3,2.2-1.8,3.1-3.6,3.3l-4,0.5c-0.1,0-0.2-0.1-0.2-0.1c0,0,0,0,0,0
	l-1.2-9.3c0-0.1,0.1-0.2,0.1-0.2c0,0,0,0,0,0l3.6-0.5c1.7-0.2,4.1,0,4.3,2.2C112.2,207.6,111.8,208.4,111.2,208.9L111.2,208.9z
	 M120.7,210.9l-3.4,0.4l-0.4,1.9c0,0.1-0.1,0.1-0.1,0.1l-2.1,0.3c-0.1,0-0.2,0-0.2-0.1c0,0,0,0,0-0.1l2.2-9.7c0-0.1,0.1-0.1,0.1-0.1
	l2.2-0.3c0.1,0,0.1,0,0.2,0.1l4.6,8.8c0,0.1,0,0.2-0.1,0.2c0,0,0,0-0.1,0l-2.1,0.3c-0.1,0-0.1,0-0.2-0.1L120.7,210.9L120.7,210.9z
	 M127.8,209.9l2.3-0.3l-1-7.5c0-0.1,0.1-0.2,0.1-0.2c0,0,0,0,0,0l2-0.3c0.1,0,0.2,0.1,0.2,0.1c0,0,0,0,0,0l1,7.5l2.3-0.3l-1-7.5
	c0-0.1,0.1-0.2,0.1-0.2c0,0,0,0,0,0l2-0.3c0.1,0,0.2,0.1,0.2,0.1c0,0,0,0,0,0l1.2,9.3c0,0.1-0.1,0.2-0.1,0.2c0,0,0,0,0,0l-11.3,1.4
	c-0.1,0-0.2-0.1-0.2-0.1c0,0,0,0,0,0l-1.2-9.3c0-0.1,0.1-0.2,0.1-0.2c0,0,0,0,0,0l2-0.3c0.1,0,0.2,0.1,0.2,0.1c0,0,0,0,0,0
	L127.8,209.9L127.8,209.9z M141.2,202.5l0.2,1.6l3.7-0.5c0.1,0,0.2,0.1,0.2,0.1c0,0,0,0,0,0l0.2,1.6c0,0.1-0.1,0.2-0.1,0.2
	c0,0,0,0,0,0l-3.7,0.5l0.3,2.1l4.6-0.6c0.1,0,0.2,0.1,0.2,0.1c0,0,0,0,0,0l0.2,1.6c0,0.1-0.1,0.2-0.1,0.2c0,0,0,0,0,0l-6.7,0.9
	c-0.1,0-0.2-0.1-0.2-0.1c0,0,0,0,0,0l-1.2-9.3c0-0.1,0.1-0.2,0.1-0.2c0,0,0,0,0,0l6.7-0.9c0.1,0,0.2,0.1,0.2,0.1c0,0,0,0,0,0
	l0.2,1.6c0,0.1-0.1,0.2-0.1,0.2c0,0,0,0,0,0L141.2,202.5L141.2,202.5z M150.3,201.3l1,7.5c0,0.1-0.1,0.2-0.1,0.2c0,0,0,0,0,0l-2,0.3
	c-0.1,0-0.2-0.1-0.2-0.1c0,0,0,0,0,0l-1.2-9.3c0-0.1-0.1-0.2,0-0.2l5.2-0.7c0.1,0,0.2,0.1,0.2,0.1c0,0,0,0,0,0l0.4,1.6
	c0,0.1-0.1,0.2-0.1,0.2c0,0,0,0,0,0L150.3,201.3L150.3,201.3z M154.9,203.6c-0.4-3,1.1-5.2,4.2-5.6s5.4,1.3,5.8,4.3
	c0.3,2.7-1.6,5.2-4.3,5.6C157.8,208.3,155.3,206.3,154.9,203.6L154.9,203.6L154.9,203.6z M107.2,212.5l1.8-0.2
	c0.7-0.1,1.6-0.3,1.5-1.2c-0.1-0.9-1.3-0.9-1.9-0.8l-1.7,0.2L107.2,212.5L107.2,212.5z M106.7,208.6l1.3-0.2
	c0.7-0.1,1.7-0.3,1.6-1.2c-0.1-0.9-1.1-0.7-1.7-0.6l-1.4,0.2L106.7,208.6L106.7,208.6z M117.7,209.2l2.1-0.3l-1.4-3
	C118.3,206,117.7,209.2,117.7,209.2z M157.4,203.2c0.2,1.5,1.2,3,2.9,2.8c1.7-0.2,2.3-1.9,2.1-3.4c-0.2-1.5-1.2-2.9-2.9-2.7
	C157.8,200.2,157.2,201.7,157.4,203.2L157.4,203.2z"/>
<path class="st1" d="M93.5,213.6l-2.6-2.9l-6,5.5c-0.1,0.1-0.2,0.1-0.2,0l-1.4-1.6c-0.1-0.1-0.1-0.2,0-0.2l7.4-6.8
	c0.1-0.1,0.2-0.1,0.2,0l5.7,6.3c0.1,0.1,0.1,0.2,0,0.2l-7.4,6.8c-0.1,0.1-0.2,0.1-0.2,0l-1.4-1.6c-0.1-0.1-0.1-0.2,0-0.2L93.5,213.6
	L93.5,213.6z M97.6,223.6l1.2,0.8c2.1,1.4,4.4,1.7,5.9-0.6c1.5-2.3,0.3-4.2-1.8-5.6l-3.1-2c-0.1-0.1-0.2-0.1-0.2,0l-5.5,8.3
	c-0.1,0.1-0.1,0.2,0,0.2l1.8,1.2c0.1,0.1,0.2,0.1,0.2,0L97.6,223.6L97.6,223.6z M111.4,231.5l-3.4-1.3l-1.3,1.6
	c0,0.1-0.1,0.1-0.2,0.1l-2.1-0.8c-0.1,0-0.1-0.1-0.1-0.1c0,0,0-0.1,0-0.2l6.9-8.1c0-0.1,0.1-0.1,0.2,0l2.2,0.8
	c0.1,0,0.1,0.1,0.1,0.2v10.6c0,0.1-0.1,0.2-0.2,0.2c0,0,0,0-0.1,0l-2.1-0.8c-0.1,0-0.1-0.1-0.1-0.2L111.4,231.5L111.4,231.5z
	 M126.6,231.1c1,0.4,1.7,1.4,1.6,2.4c-0.2,2.4-2.9,3-4.8,2.9c-2.3-0.2-4.6-1.3-4.4-3.9c0-0.1,0.1-0.2,0.2-0.2l2.2,0.2
	c0.1,0,0.2,0.1,0.2,0.2c-0.1,1.2,1.1,1.5,2,1.6c1,0.1,2.1,0,2.1-1.1c0.1-1-1.3-1.1-1.9-1.2l-0.9-0.1c-0.1,0-0.2-0.1-0.2-0.2l0.2-1.8
	c0-0.1,0.1-0.2,0.2-0.2l0.6,0.1c0.7,0.1,1.8,0.1,1.9-0.8c0.1-1-1-1.2-1.8-1.3c-0.7-0.1-1.7,0.3-1.8,1.2c0,0.1-0.1,0.2-0.2,0.2
	l-2.2-0.2c-0.1,0-0.2-0.1-0.2-0.2c0.1-0.9,0.5-1.7,1.2-2.2c1-0.7,2.2-1,3.3-0.9c1.2,0,2.4,0.5,3.3,1.3c0.6,0.6,0.9,1.4,0.9,2.2
	C128.1,230.1,127.5,230.9,126.6,231.1L126.6,231.1z M133.5,234.4c0.3-1.6,0.3-3.2,0.1-4.8l-0.3-3.2c0-0.1,0.1-0.2,0.2-0.2
	c0,0,0,0,0,0l7.1-0.8c0.1,0,0.2,0.1,0.2,0.2c0,0,0,0,0,0l0.9,8l1-0.1c0.1,0,0.2,0.1,0.2,0.2c0,0,0,0,0,0l0.2,1.9l-10.3,1.1l-0.2-1.9
	c0-0.1,0.1-0.2,0.2-0.2c0,0,0,0,0,0L133.5,234.4L133.5,234.4z M148.1,227l3.8-1.4l-1.3-3.4c0-0.1,0-0.2,0.1-0.2l2-0.8
	c0.1,0,0.2,0,0.2,0.1l3.5,9.4c0,0.1,0,0.2-0.1,0.2l-2,0.7c-0.1,0-0.2,0-0.2-0.1l-1.5-4l-3.8,1.4l1.5,4c0,0.1,0,0.2-0.1,0.2l-2,0.8
	c-0.1,0-0.2,0-0.2-0.1l-3.5-9.4c0-0.1,0-0.2,0.1-0.2l2-0.8c0.1,0,0.2,0,0.2,0.1L148.1,227L148.1,227z M161.8,223.4l-3.6-5.3
	c-0.1-0.1-0.2-0.1-0.2,0l-1.8,1.2c-0.1,0.1-0.1,0.2,0,0.2l5.6,8.3c0.1,0.1,0.2,0.1,0.2,0l2.1-1.4c0,0,0.1-0.1,0.1-0.1l-0.3-7.7
	l3.6,5.3c0.1,0.1,0.2,0.1,0.2,0l1.8-1.2c0.1-0.1,0.1-0.2,0-0.2l-5.6-8.3c-0.1-0.1-0.2-0.1-0.2,0l-2.1,1.4c0,0-0.1,0.1-0.1,0.1
	L161.8,223.4L161.8,223.4z M170.5,212.2l0.3-0.3l-1-4.8c0,0,0-0.1,0-0.1l1.5-1.9c0.1-0.1,0.2-0.1,0.2,0c0,0,0,0.1,0.1,0.1l1.2,5.9
	l6.6,0.1c0.1,0,0.2,0.1,0.2,0.2c0,0,0,0.1,0,0.1l-1.6,2c0,0-0.1,0.1-0.1,0.1l-5.5-0.1l-0.1,0.2l3.3,2.7c0.1,0.1,0.1,0.2,0,0.2
	l-1.4,1.7c-0.1,0.1-0.2,0.1-0.2,0l-7.7-6.3c-0.1-0.1-0.1-0.2,0-0.2l1.4-1.7c0.1-0.1,0.2-0.1,0.2,0L170.5,212.2L170.5,212.2z
	 M183.5,200.6l2,0.2c0.1,0,0.1,0,0.2-0.1l1-2.1c0-0.1,0-0.2-0.1-0.2c0,0,0,0-0.1,0l-10.6-0.8c-0.1,0-0.1,0-0.2,0.1l-1,2.1
	c0,0.1,0,0.1,0,0.2l7.5,7.5c0.1,0.1,0.2,0.1,0.2,0c0,0,0,0,0,0l1-2c0-0.1,0-0.1,0-0.2l-1.5-1.4L183.5,200.6L183.5,200.6z
	 M98.8,221.8l1.8-2.6l1.1,0.8c1,0.6,1.6,1.3,0.9,2.4c-0.7,1.1-1.5,1-2.5,0.3L98.8,221.8z M109.4,228.5l2.1,0.8l0.1-3.6L109.4,228.5
	L109.4,228.5z M136,234.2l3.1-0.3l-0.7-6.1l-2.5,0.3l0.2,1.7C136.3,231.2,136.3,232.7,136,234.2L136,234.2z M180.4,202.4l-2.6-2.4
	l3.5,0.4L180.4,202.4z"/>
<path class="st1" d="M88.1,140.9c-2.1-2.4-2-5.2,0.4-7.3c1.7-1.5,4.2-2.1,5.9-0.2c0.1,0.1,0.1,0.2,0,0.2c0,0,0,0,0,0l-1.6,1.4
	c-0.1,0.1-0.2,0.1-0.2,0c0,0,0,0,0,0c-0.7-0.7-1.8-0.7-2.5,0c0,0-0.1,0.1-0.1,0.1c-1.4,1.2-1,2.8,0.2,4.1c1.1,1.3,2.7,2.1,4.1,0.9
	c0.9-0.6,1.1-1.8,0.4-2.7c0,0,0,0,0,0c-0.1-0.1-0.1-0.2,0-0.2c0,0,0,0,0,0l1.6-1.4c0.1-0.1,0.2-0.1,0.2,0c0,0,0,0,0,0
	c0.6,0.8,1,1.7,0.9,2.7c-0.2,1.3-0.8,2.4-1.8,3.2C93,143.8,90.2,143.3,88.1,140.9L88.1,140.9z M101.6,127.1l2.4-1.4
	c0.1,0,0.1-0.1,0.1-0.2c0,0,0,0,0,0l-0.9-1.5c0-0.1-0.1-0.1-0.2-0.1c0,0,0,0,0,0l-6.9,4c-0.1,0-0.1,0.1-0.1,0.2c0,0,0,0,0,0l0.9,1.5
	c0,0.1,0.1,0.1,0.2,0.1c0,0,0,0,0,0l2.4-1.4l4,7c0,0.1,0.1,0.1,0.2,0.1c0,0,0,0,0,0l1.8-1.1c0.1,0,0.1-0.1,0.1-0.2c0,0,0,0,0,0
	L101.6,127.1z M113.9,125.2l0.6-5.4c0-0.1,0-0.1,0.1-0.1l2.2-0.8c0.1,0,0.2,0,0.2,0.1c0,0,0,0,0,0.1l-1.1,8.1
	c-0.3,1.7-1,3.2-2.7,3.7l-0.7,0.2c-0.1,0-0.2,0-0.2-0.1l-0.6-1.8c0-0.1,0-0.2,0.1-0.2l0.6-0.2c0.5-0.2,0.9-0.6,1-1.2l-6.1-5.4
	c0,0-0.1-0.1,0-0.1c0-0.1,0.1-0.1,0.1-0.1l2.2-0.7c0,0,0.1,0,0.2,0L113.9,125.2z M123,126.3c0.6-2.4,0.2-5.5,0-8.1
	c0-0.1,0.1-0.2,0.1-0.2c0,0,0,0,0,0l6.9-0.5c0.1,0,0.2,0.1,0.2,0.1c0,0,0,0,0,0l0.6,8.1l1.4-0.1c0.1,0,0.2,0.1,0.2,0.1c0,0,0,0,0,0
	l0.1,1.8c0,0.1-0.1,0.2-0.1,0.2c0,0,0,0,0,0l-10.5,0.8c-0.1,0-0.2-0.1-0.2-0.1l-0.2-1.9c0-0.1,0-0.2,0.1-0.2c0,0,0,0,0,0L123,126.3
	L123,126.3z M138.3,124.7l5.2-5.7c0,0,0.1-0.1,0.1,0l2.5,0.4c0.1,0,0.1,0.1,0.1,0.2c0,0,0,0,0,0l-1.8,9.8c0,0.1-0.1,0.1-0.2,0.1
	c0,0,0,0,0,0l-2.1-0.4c-0.1,0-0.1-0.1-0.1-0.2c0,0,0,0,0,0l1.1-6.4l-5.2,5.7c0,0-0.1,0-0.1,0l-2.5-0.4c-0.1,0-0.1-0.1-0.1-0.2
	c0,0,0,0,0,0l1.8-9.7c0-0.1,0.1-0.1,0.2-0.1c0,0,0,0,0,0l2.1,0.4c0.1,0,0.1,0.1,0.1,0.2c0,0,0,0,0,0L138.3,124.7L138.3,124.7z
	 M150.9,128c-0.9-1-1.1-2.5-0.4-3.7c1.1-2.5,3.4-2.5,5.7-1.5l3.3,1.5c0.1,0,0.1,0.1,0.1,0.2l-4.1,9c0,0.1-0.1,0.1-0.2,0.1l-1.9-0.9
	c-0.1,0-0.1-0.1-0.1-0.2l1.2-2.6l-1.4-0.6l-2.8,1.9c0,0-0.1,0-0.2,0l-2.1-1c-0.1,0-0.1-0.1-0.1-0.2c0,0,0,0,0.1-0.1L150.9,128
	L150.9,128z M125.5,126.1l2.9-0.2l-0.5-6.1l-2.3,0.2C125.9,122,125.8,124.1,125.5,126.1L125.5,126.1z M155.2,128.2l1.3-2.9l-1.4-0.6
	c-1-0.4-1.9-0.3-2.4,0.7s0.2,1.8,1.2,2.2L155.2,128.2z"/>
</svg>
