<svg id="Layer_1" data-name="Layer 1" xmlns="http://www.w3.org/2000/svg" width="62.39" height="74.54" viewBox="0 0 62.39 74.54"><defs><style>.cls-1{fill:#30394b;}</style></defs><title>benefit-2</title><path class="cls-1" d="M32.26,70.78a1,1,0,0,0,.11.27A33.57,33.57,0,0,0,60.53,86.28H61V89H56.53a1,1,0,0,0-1,1v3.74H46.76a1,1,0,0,0-1,1v7.15a1,1,0,0,0,1,1H92.4a1,1,0,0,0,1-1V94.75a1,1,0,0,0-1-1H83.63V90a1,1,0,0,0-1-1H78.14V84.37a8.5,8.5,0,0,0-.48-2.8A33.65,33.65,0,0,0,91.48,39.42l0,0,0-.11c-.43-.81-1.38-1.23-2.84-1.23-2.36,0-6.38,1.07-11.35,2.93L56.13,35.87a5.43,5.43,0,1,0-6.2,3.23L43.39,58.44c-1.57,1-3,2.08-4.36,3.06-7.54,5.64-7.62,7.81-7,9A1.87,1.87,0,0,0,32.26,70.78Zm59.14,25v5.15H47.76V95.75H91.4ZM81.63,91v2.74H57.53V91ZM63,89V84.37a6.56,6.56,0,0,1,13.11,0V89ZM92.17,52.64A31.69,31.69,0,0,1,76.78,79.77,8.55,8.55,0,0,0,61,84.27h-.5A31.56,31.56,0,0,1,35.25,71.67C40.36,71.45,52,67,64.59,60.37a154.45,154.45,0,0,0,19.8-12.13,31.47,31.47,0,0,0,6.16-5.59A31.49,31.49,0,0,1,92.17,52.64Zm-3.6-12.58a3.18,3.18,0,0,1,1.06.13c.06.52-.77,1.63-2.48,3.21l-6.4-1.55A28.33,28.33,0,0,1,88.57,40.06Zm-11.23,3L85.28,45A131,131,0,0,1,65.11,57.82l-4-7.37A166.48,166.48,0,0,1,77.34,43.08ZM74,42.26C69.76,44,65,46.17,60.15,48.7L54.4,38.11a5.46,5.46,0,0,0,.55-.47ZM47.68,33.8a3.43,3.43,0,1,1,3.43,3.43A3.44,3.44,0,0,1,47.68,33.8ZM52,39.15a5.39,5.39,0,0,0,.59-.13l5.76,10.61C54,52,49.79,54.36,46.09,56.69Zm-7,20.59c3.79-2.5,8.53-5.33,14.27-8.36l4,7.38A150.91,150.91,0,0,1,42.25,68ZM42.32,61.6,39.9,68.76a20.43,20.43,0,0,1-5,.93,3.23,3.23,0,0,1-1.05-.13h0C33.68,68.61,36.51,65.69,42.32,61.6Z" transform="translate(-31.79 -28.37)"/><path class="cls-1" d="M69.58,80.66a2.75,2.75,0,1,0,2.75,2.75A2.76,2.76,0,0,0,69.58,80.66Z" transform="translate(-31.79 -28.37)"/></svg>