<svg id="Layer_1" data-name="Layer 1" xmlns="http://www.w3.org/2000/svg" width="60.46" height="76.57" viewBox="0 0 60.46 76.57"><defs><style>.cls-1{fill:#30394b;}</style></defs><title>benefit-3</title><path class="cls-1" d="M39.67,225.47a.92.92,0,0,0,.92-.92,5.84,5.84,0,0,1,3.32-5.25.92.92,0,0,0-.79-1.66,7.7,7.7,0,0,0-4.36,6.91A.92.92,0,0,0,39.67,225.47Z" transform="translate(-31.75 -195.5)"/><path class="cls-1" d="M50.89,210.82a8.59,8.59,0,0,1,12.64-7.57.92.92,0,1,0,.87-1.62A10.43,10.43,0,0,0,49,210.82a.92.92,0,0,0,1.84,0Z" transform="translate(-31.75 -195.5)"/><path class="cls-1" d="M65.42,225.34a.92.92,0,0,0,.92-.92,8.73,8.73,0,0,1,8.72-8.72,8.62,8.62,0,0,1,3.94.94.92.92,0,0,0,.83-1.64,10.44,10.44,0,0,0-4.77-1.14,10.57,10.57,0,0,0-10.56,10.56A.92.92,0,0,0,65.42,225.34Z" transform="translate(-31.75 -195.5)"/><path class="cls-1" d="M91.29,229H89.51a15.18,15.18,0,0,0-14.46-19.8l-.36,0a15.3,15.3,0,0,0-30.53,1.56c0,.25,0,.49,0,.73A13.16,13.16,0,0,0,34,229H32.67a.92.92,0,0,0-.91,1.08,23.23,23.23,0,0,0,23,19.38,2.87,2.87,0,0,1,2.87,2.87v9.92a2.65,2.65,0,0,1-2.29,2.62l-4.67.62a5.69,5.69,0,0,0-4.92,5.62.92.92,0,0,0,.92.92h30.7a.92.92,0,0,0,.92-.92,5.69,5.69,0,0,0-4.92-5.62l-4.67-.62a2.65,2.65,0,0,1-2.29-2.62v-9.92a2.87,2.87,0,0,1,2.87-2.87,23.23,23.23,0,0,0,23-19.38.92.92,0,0,0-.91-1.08Zm-16.24-18a13.31,13.31,0,0,1,12.5,18h-25a13.18,13.18,0,0,1-.79-3.6.91.91,0,0,0,0-.39.89.89,0,0,0-.08-.27c0-.12,0-.24,0-.37A13.35,13.35,0,0,1,75.05,211.08Zm-6.6,22.45a3.7,3.7,0,0,0-3.69,3.69v3a2.84,2.84,0,1,1-5.68,0v-9.31H87.7a10.19,10.19,0,0,1-6,2,4.54,4.54,0,0,0-4.53,4.53v1.23A2.16,2.16,0,0,1,75,240.79a2.87,2.87,0,0,1-2.86-2.87v-.7A3.7,3.7,0,0,0,68.45,233.53Zm-9-36.18a13.47,13.47,0,0,1,13.38,12.07,15.19,15.19,0,0,0-13,14.85l-.41,0a13.47,13.47,0,0,1,0-26.94Zm-15.08,16a15.32,15.32,0,0,0,15.08,12.75l.5,0A15.06,15.06,0,0,0,60.6,229H36a11.33,11.33,0,0,1,8.41-15.66Zm24.85,34.28a4.72,4.72,0,0,0-4.71,4.71v9.92a4.49,4.49,0,0,0,3.89,4.44l4.67.62a3.84,3.84,0,0,1,3.21,2.88H47.67a3.84,3.84,0,0,1,3.21-2.88l4.67-.62a4.5,4.5,0,0,0,3.89-4.44v-9.92a4.72,4.72,0,0,0-4.71-4.71,21.39,21.39,0,0,1-20.93-16.78H57.23v9.31a4.68,4.68,0,0,0,9.37,0v-3a1.85,1.85,0,0,1,3.7,0v.7A4.71,4.71,0,0,0,75,242.63a4,4,0,0,0,4-4V237.4a2.7,2.7,0,0,1,2.7-2.69,12,12,0,0,0,8.35-3.42A21.38,21.38,0,0,1,69.24,247.66Z" transform="translate(-31.75 -195.5)"/></svg>