<svg id="Layer_1" data-name="Layer 1" xmlns="http://www.w3.org/2000/svg" width="69" height="83.85" viewBox="0 0 69 83.85"><defs><style>.cls-1{fill:#30394b;}.cls-2{fill:#313a4c;}</style></defs><title>benefit-1</title><path class="cls-1" d="M205.11,199.53A9.67,9.67,0,1,0,218.62,213a11.53,11.53,0,0,1-13.51-13.51Z" transform="translate(-152.49 -192.72)"/><path class="cls-1" d="M181.75,256.94a3.42,3.42,0,1,0,3.42-3.42A3.42,3.42,0,0,0,181.75,256.94Zm5,0a1.57,1.57,0,1,1-1.57-1.57A1.57,1.57,0,0,1,186.73,256.94Z" transform="translate(-152.49 -192.72)"/><path class="cls-1" d="M182.35,275.64v-4.36a.93.93,0,1,0-1.85,0v4.36a.93.93,0,1,0,1.85,0Z" transform="translate(-152.49 -192.72)"/><path class="cls-1" d="M186.09,275.64v-4.36a.93.93,0,1,0-1.85,0v4.36a.93.93,0,1,0,1.85,0Z" transform="translate(-152.49 -192.72)"/><path class="cls-1" d="M189.83,275.64v-4.36a.93.93,0,1,0-1.85,0v4.36a.93.93,0,1,0,1.85,0Z" transform="translate(-152.49 -192.72)"/><path class="cls-1" d="M191.09,230.55a1.66,1.66,0,0,0,1.65-1.65v-2.7a1.65,1.65,0,0,0-3.31,0v2.7A1.66,1.66,0,0,0,191.09,230.55Z" transform="translate(-152.49 -192.72)"/><path class="cls-1" d="M185.17,230.55a1.66,1.66,0,0,0,1.65-1.65v-2.7a1.65,1.65,0,1,0-3.31,0v2.7A1.66,1.66,0,0,0,185.17,230.55Z" transform="translate(-152.49 -192.72)"/><path class="cls-1" d="M179.24,230.55a1.66,1.66,0,0,0,1.65-1.65v-2.7a1.65,1.65,0,1,0-3.31,0v2.7A1.66,1.66,0,0,0,179.24,230.55Z" transform="translate(-152.49 -192.72)"/><path class="cls-1" d="M191.09,238.39a1.66,1.66,0,0,0,1.65-1.65V234a1.65,1.65,0,0,0-3.31,0v2.7A1.66,1.66,0,0,0,191.09,238.39Z" transform="translate(-152.49 -192.72)"/><path class="cls-1" d="M185.17,238.39a1.66,1.66,0,0,0,1.65-1.65V234a1.65,1.65,0,1,0-3.31,0v2.7A1.66,1.66,0,0,0,185.17,238.39Z" transform="translate(-152.49 -192.72)"/><path class="cls-1" d="M179.24,238.39a1.66,1.66,0,0,0,1.65-1.65V234a1.65,1.65,0,1,0-3.31,0v2.7A1.66,1.66,0,0,0,179.24,238.39Z" transform="translate(-152.49 -192.72)"/><path class="cls-1" d="M191.09,222.7a1.66,1.66,0,0,0,1.65-1.65v-2.7a1.65,1.65,0,0,0-3.31,0V221A1.66,1.66,0,0,0,191.09,222.7Z" transform="translate(-152.49 -192.72)"/><path class="cls-1" d="M185.17,222.7a1.66,1.66,0,0,0,1.65-1.65v-2.7a1.65,1.65,0,1,0-3.31,0V221A1.66,1.66,0,0,0,185.17,222.7Z" transform="translate(-152.49 -192.72)"/><path class="cls-1" d="M179.24,222.7A1.66,1.66,0,0,0,180.9,221v-2.7a1.65,1.65,0,1,0-3.31,0V221A1.66,1.66,0,0,0,179.24,222.7Z" transform="translate(-152.49 -192.72)"/><path class="cls-2" d="M185.17,200.7a3.11,3.11,0,1,0,3.11,3.11A3.11,3.11,0,0,0,185.17,200.7Zm0,4.36a1.25,1.25,0,1,1,1.25-1.26A1.26,1.26,0,0,1,185.17,205.06Z" transform="translate(-152.49 -192.72)"/><path class="cls-1" d="M210.06,248.69a3.42,3.42,0,1,0,3.42,3.42A3.42,3.42,0,0,0,210.06,248.69Zm0,5a1.57,1.57,0,1,1,1.57-1.57A1.57,1.57,0,0,1,210.06,253.68Z" transform="translate(-152.49 -192.72)"/><path class="cls-1" d="M207.25,270.81v-4.36a.93.93,0,1,0-1.85,0v4.36a.93.93,0,1,0,1.85,0Z" transform="translate(-152.49 -192.72)"/><path class="cls-1" d="M211.75,272v-4.5a1,1,0,0,0-1.91,0V272a1,1,0,0,0,1.91,0Z" transform="translate(-152.49 -192.72)"/><path class="cls-1" d="M215.61,272v-4.5a1,1,0,0,0-1.91,0V272a1,1,0,1,0,1.91,0Z" transform="translate(-152.49 -192.72)"/><path class="cls-1" d="M153.42,264.15h13.71a.91.91,0,0,0,.88-.72.9.9,0,0,0,.15-.47v-1.25a2.06,2.06,0,0,1,2.06-2.06h.49a2.15,2.15,0,0,1,2.15,1.94v3.08a.93.93,0,0,0,.93.93h3.59v2.45a.93.93,0,0,0,.93.93H192a.93.93,0,0,0,.93-.93v-2.45h3.59a.93.93,0,0,0,.93-.93v-.87s0,0,0-.06v-2a2.13,2.13,0,0,1,2.14-2.06h.49a2.06,2.06,0,0,1,2.06,2.06V263a.9.9,0,0,0,.15.47.91.91,0,0,0,.88.72h13.71a.93.93,0,0,0,.93-.93v-7a24.49,24.49,0,0,0-4.33-13.93l-2.69-3.92a1,1,0,0,0-1.53,0l-2.69,3.92a24.66,24.66,0,0,0-2.5,4.65l0,.06-.07.18v0l-.52,1.38a3,3,0,0,1-2.8,1.93,3.17,3.17,0,0,1-3.18-3v-3.1s0,0,0-.06v-17a57,57,0,0,0-11.56-34.31,1,1,0,0,0-1.48,0,57,57,0,0,0-11.56,34.31v20.29a3.19,3.19,0,0,1-3.2,2.88,3,3,0,0,1-2.8-1.93l-.52-1.37,0-.05-.07-.18,0-.06a24.67,24.67,0,0,0-2.5-4.65L161,238.39a1,1,0,0,0-1.53,0l-2.69,3.92a24.48,24.48,0,0,0-4.33,13.93v7A.93.93,0,0,0,153.42,264.15Zm50.71-7.91a22.66,22.66,0,0,1,1.57-8.31l0-.05a22.78,22.78,0,0,1,2.41-4.51l1.93-2.81,1.93,2.81a22.64,22.64,0,0,1,4,12.88v.14H204.13Zm0,2H216v4.07H204.13Zm-6.66-7a5.11,5.11,0,0,0,3.2,1.13,4.81,4.81,0,0,0,2-.45,24.67,24.67,0,0,0-.39,4.28v2.22a3.89,3.89,0,0,0-2.17-.66h-.49a4,4,0,0,0-2.15.63Zm-6.37,15.86H179.24v-4.07h11.86Zm0-5.92H179.24v-.14a22.63,22.63,0,0,1,4-12.88l1.93-2.81,1.93,2.81a22.63,22.63,0,0,1,4,12.88Zm-5.93-66a55,55,0,0,1,7.43,14.35H177.73A54.93,54.93,0,0,1,185.17,195.18Zm-10.45,52.61c0-.08,0-.15,0-.23v-3.1s0,0,0-.06v-17a54.81,54.81,0,0,1,2.41-16H193.2a54.8,54.8,0,0,1,2.41,16v36.38h-2.67v-2.68a24.48,24.48,0,0,0-4.33-13.93l-2.69-3.92a1,1,0,0,0-1.53,0l-2.69,3.92a24.48,24.48,0,0,0-4.33,13.93v2.68h-2.65v-2s0-.08,0-.12Zm-5,4.61a5.15,5.15,0,0,0,3.2-1.12v7.16a4,4,0,0,0-2.15-.64h-.49a3.89,3.89,0,0,0-2.16.66v-2.22a24.67,24.67,0,0,0-.39-4.28A4.8,4.8,0,0,0,169.67,252.4Zm-15.32,3.84a22.63,22.63,0,0,1,4-12.88l1.93-2.81,1.93,2.81a22.8,22.8,0,0,1,2.41,4.52l0,.05a22.66,22.66,0,0,1,1.57,8.31v.14H154.34Zm0,2H166.2v4.07H154.34Z" transform="translate(-152.49 -192.72)"/><path class="cls-1" d="M160.27,248.69a3.42,3.42,0,1,0,3.42,3.42A3.42,3.42,0,0,0,160.27,248.69Zm0,5a1.57,1.57,0,1,1,1.57-1.57A1.57,1.57,0,0,1,160.27,253.68Z" transform="translate(-152.49 -192.72)"/><path class="cls-1" d="M164.94,270.81v-4.36a.93.93,0,1,0-1.85,0v4.36a.93.93,0,1,0,1.85,0Z" transform="translate(-152.49 -192.72)"/><path class="cls-1" d="M159.35,266.44v4.36a.93.93,0,0,0,1.85,0v-4.36a.93.93,0,0,0-1.85,0Z" transform="translate(-152.49 -192.72)"/><path class="cls-1" d="M155.61,266.44v4.36a.93.93,0,1,0,1.85,0v-4.36a.93.93,0,1,0-1.85,0Z" transform="translate(-152.49 -192.72)"/><path class="cls-1" d="M207.32,194.93a.92.92,0,0,0-1-.2,11.52,11.52,0,1,0,15.11,15.11.93.93,0,0,0-1.22-1.22,9.67,9.67,0,0,1-12.68-12.68A.93.93,0,0,0,207.32,194.93Zm9.1,16.32a11.55,11.55,0,0,0,2.2-.21,9.67,9.67,0,1,1-13.51-13.51,11.53,11.53,0,0,0,11.31,13.72Z" transform="translate(-152.49 -192.72)"/><path class="cls-1" d="M154.65,218.37l4.18,1.36-2.58,3.55a.93.93,0,1,0,1.5,1.09l2.58-3.55,2.58,3.55a.93.93,0,1,0,1.5-1.09l-2.58-3.55,4.18-1.36a.93.93,0,1,0-.57-1.76L161.25,218v-4.39a.93.93,0,0,0-1.85,0V218l-4.18-1.36a.93.93,0,1,0-.57,1.76Z" transform="translate(-152.49 -192.72)"/></svg>