<svg id="Layer_1" data-name="Layer 1" xmlns="http://www.w3.org/2000/svg" width="72.83" height="80.57" viewBox="0 0 72.83 80.57"><defs><style>.cls-1{fill:none;stroke:#30394b;stroke-linecap:round;stroke-linejoin:round;stroke-width:2.07px;}</style></defs><title>benefit-4</title><path class="cls-1" d="M99.71,205.88a7.22,7.22,0,1,1-7.22,7.22,7.22,7.22,0,0,1,7.22-7.22Zm28.38.54a7.22,7.22,0,1,1-7.22,7.22,7.22,7.22,0,0,1,7.22-7.22Zm-28.38-7A13.72,13.72,0,1,1,86,213.1a13.72,13.72,0,0,1,13.72-13.72Zm28.38.54a13.72,13.72,0,1,1-13.72,13.72,13.72,13.72,0,0,1,13.72-13.72ZM95.45,229.5h37.63a3.68,3.68,0,0,1,3.67,3.67v21.65a3.69,3.69,0,0,1-3.67,3.67H95.42a3.69,3.69,0,0,1-3.67-3.67v-21.7a3.67,3.67,0,0,1,3.7-3.62ZM136.2,238,153,231.09c1.83-.75,3.73,1.36,3.73,3v19.13c0,1.63-1.92,3.73-3.73,3l-16.82-6.92M111,260,96,277.86M116,260l15.07,17.88m-17.59-18.64-.33,18.65" transform="translate(-84.95 -198.34)"/></svg>