<svg id="Layer_1" data-name="Layer 1" xmlns="http://www.w3.org/2000/svg" width="61.46" height="63.26" viewBox="0 0 61.46 63.26"><defs><style>.cls-1,.cls-2{fill:none;stroke:#30394b;stroke-linecap:round;stroke-linejoin:round;}.cls-1{stroke-width:2.46px;}.cls-2{stroke-width:2.46px;}</style></defs><title>benefit-4</title><line class="cls-1" x1="27.69" y1="13.44" x2="30.87" y2="5.78"/><line class="cls-1" x1="24.67" y1="13.35" x2="24.05" y2="9.17"/><path class="cls-1" d="M322.06,264.24c-.84-.17,4,5.41,6,10.26" transform="translate(-306.75 -261.45)"/><path class="cls-1" d="M338.25,274.5l.13-.08c.93-1.77,3.87-5,4.72-7.65,2.78-8.55-12.35-.75-21-2.53" transform="translate(-306.75 -261.45)"/><path class="cls-1" d="M327.38,317.1c-6.22,0-10.62-.15-13.62-1.83-10.64-6-4.46-23.9,1.62-31.17,4-4.78,8.89-8.76,12.54-8.76h10.93c3.64,0,8.83,4.22,13.1,9.25s9.19,15.43,7.63,23.13" transform="translate(-306.75 -261.45)"/><path class="cls-1" d="M359.08,307.84c5.45,2.78,8.87,7,7.65,9.36s-6.62,2.08-12.07-.69-8.87-7-7.65-9.36,6.62-2.08,12.07.69Z" transform="translate(-306.75 -261.45)"/><path class="cls-1" d="M366.56,317.53l-1.88,3.69c-1.22,2.39-6.62,2.08-12.07-.69s-8.87-7-7.65-9.36l1.88-3.69" transform="translate(-306.75 -261.45)"/><path class="cls-2" d="M347.86,311.67l-1.64,3.21m3.91-1.12-1.71,3.36m4.36-1.61-1.89,3.7" transform="translate(-306.75 -261.45)"/><path class="cls-1" d="M347.65,317.23a19,19,0,0,1-8.49,1.74c-6.11,0-11.07-2.18-11.07-4.86a2.3,2.3,0,0,1,.22-1M350,319.68c-1.1,2.17-5.52,3.8-10.8,3.8-6.11,0-11.07-2.18-11.07-4.86v-4.14" transform="translate(-306.75 -261.45)"/><path class="cls-2" d="M330.9,317.74v3.61m3-2.77v3.77m3.15-3.41v4.15" transform="translate(-306.75 -261.45)"/><path class="cls-1" d="M334.21,299.65c6.11,0,11.07,2.18,11.07,4.86s-5,4.86-11.07,4.86-11.07-2.18-11.07-4.86,5-4.86,11.07-4.86Zm11.07,5.23V309c0,2.69-5,4.86-11.07,4.86s-11.07-2.18-11.07-4.86v-4.14" transform="translate(-306.75 -261.45)"/><path class="cls-2" d="M326,308.15v3.61m3-2.77v3.77m3.15-3.41v4.15" transform="translate(-306.75 -261.45)"/></svg>