<svg id="Layer_1" data-name="Layer 1" xmlns="http://www.w3.org/2000/svg" width="57.4" height="75.59" viewBox="0 0 57.4 75.59"><defs><style>.cls-1{fill:#313a4c;}.cls-1,.cls-2{stroke:#30394b;stroke-miterlimit:10;}.cls-2{fill:#fff;}</style></defs><title>benefit-2</title><path class="cls-1" d="M333.61,430.39V403H329v28.83h3.63A1.52,1.52,0,0,0,333.61,430.39Z" transform="translate(-283.17 -361.74)"/><path class="cls-1" d="M322.92,431.71a1.5,1.5,0,0,0,.24.1H327V403h-4.84v16.68c2.42,4,4.39,6.71,4.42,6.76a1,1,0,0,1,.11,1A12.34,12.34,0,0,1,322.92,431.71Z" transform="translate(-283.17 -361.74)"/><path class="cls-1" d="M306.46,436.83a34.94,34.94,0,0,0,11.7-2.41,2.31,2.31,0,0,0,2.28,2h13.8a2.31,2.31,0,0,0,1-4.41,3.48,3.48,0,0,0,.42-1.63V406.26a3.26,3.26,0,0,0,1.24.25,3.22,3.22,0,0,0,3.22-3.22V380.72c0-3.22-3.72-4.73-6.24-4.73a1.39,1.39,0,0,1-1.19-.52,6,6,0,0,0,1.23-3.62v-3.63a6,6,0,1,0-12,0v3.63a6,6,0,0,0,1.23,3.62,1.4,1.4,0,0,1-1.19.52c-2.52,0-6.24,1.5-6.24,4.73v.67c0,2.7,0,9.24-.1,13.54A37.69,37.69,0,0,1,313,383.08a5.82,5.82,0,0,0-4.51-5.47,1.3,1.3,0,0,1-.89-.57,6,6,0,0,0,1.53-4v-3.63a6,6,0,1,0-12,0v3.63a6,6,0,0,0,1.31,3.72,1.33,1.33,0,0,1-1,.84,5.83,5.83,0,0,0-4.48,5.46c-.16,3.15-1.25,10.42-2,15.22-.37,2.49-.67,4.46-.74,5.18a3.07,3.07,0,0,0,2.06,3.24c-.27,1.22-.54,2.42-.82,3.57a93.76,93.76,0,0,1-7.66,19.61,1,1,0,0,0,.28,1.28c.31.23,7.76,5.64,22.38,5.64Zm20.12-10.41s-2-2.72-4.42-6.76V403H327v28.83h-3.83a1.5,1.5,0,0,1-.24-.1,12.34,12.34,0,0,0,3.77-4.29A1,1,0,0,0,326.58,426.42Zm2.41,5.39V403h4.62v27.41a1.52,1.52,0,0,1-1,1.42Zm-5.1-63.58a4,4,0,1,1,8,0v3.63a4,4,0,0,1-8,0Zm4.53,24.29-.69.48-.69-.48.69-7.4Zm-29.31-23.09a4,4,0,1,1,8,0v3.63a4,4,0,0,1-8,0Zm-6.91,34.25c.06-.67.36-2.62.73-5.08.77-5.14,1.83-12.17,2-15.42a3.84,3.84,0,0,1,2.84-3.6,3.37,3.37,0,0,0,2.19-1.44,5.95,5.95,0,0,0,6,.15,3.3,3.3,0,0,0,2.11,1.28,3.83,3.83,0,0,1,2.86,3.6,40.11,40.11,0,0,0,3.54,14.27,1.59,1.59,0,0,0,1.45.94l.3,0a1.57,1.57,0,0,0,1.28-1.48c.17-4,.17-12.36.16-15.5v-.67c0-2.06,3.15-2.73,4.24-2.73a3.39,3.39,0,0,0,2.64-1.15,6,6,0,0,0,1.57.74,1.67,1.67,0,0,0-.62,1.3v.45a1.67,1.67,0,0,0,.62,1.29L325,392.92a1,1,0,0,0,.42.91l1.74,1.21a1,1,0,0,0,1.14,0l1.74-1.21a1,1,0,0,0,.42-.91l-1.14-12.29a1.67,1.67,0,0,0,.62-1.29v-.45a1.67,1.67,0,0,0-.56-1.24,6,6,0,0,0,1.79-.8,3.39,3.39,0,0,0,2.64,1.15c1.09,0,4.24.67,4.24,2.73v22.57a1.23,1.23,0,0,1-2.46,0v-2.54l.84-15.95a1,1,0,0,0-.95-1.05,1,1,0,0,0-1.05.95l-.77,14.59a1,1,0,0,0-.08.37V401H322.16v-1.06l-.72-15.42a1,1,0,0,0-1-1,1,1,0,0,0-1,1l.36,7.69a1,1,0,0,0-.05.16c-.25,2.1-1.22,7.08-1.23,7.13a1,1,0,0,0,.55,1.09.84.84,0,1,1-.73,1.51l-.14-.07a1.35,1.35,0,0,0-1.8.59.91.91,0,0,1-1.14.42.91.91,0,0,1-.47-1.29,1,1,0,0,0,0-1,35.24,35.24,0,0,1-4.8-10.88c-.24-1-.4-1.77-.5-2.36-.15-.88-.2-1.4-.2-1.42a1,1,0,0,0-2,.13,13.62,13.62,0,0,0,.18,1.38c.13.78.33,1.86.67,3.15.39,1.55,1,3.53,1.77,6l-.08,0a13.38,13.38,0,0,1-3,.8c-.16-1.45-.26-2.74-.31-3.55a1,1,0,0,0-2,.11c0,.15.09,1.66.31,3.65a25.18,25.18,0,0,1-3.36-.06c.22-2,.3-3.44.31-3.6a1,1,0,0,0-2-.11c0,.8-.14,2.05-.3,3.47a32.14,32.14,0,0,1-3.24-.64c1.08-6,1.79-10.81,1.8-10.9a1,1,0,0,0-.84-1.13,1,1,0,0,0-1.13.84c0,.12-1.46,9.9-3.36,19A1.06,1.06,0,0,1,292.21,403.68Zm27.94.18v12.3a81.62,81.62,0,0,1-3.74-7.68q-.74-1.76-1.37-3.36a2.91,2.91,0,0,0,2.78-1A2.81,2.81,0,0,0,320.16,403.87ZM286,430a93.67,93.67,0,0,0,7.42-19.27c.91-3.71,1.77-8,2.49-11.9a33.13,33.13,0,0,0,3.35.66c-.38,2.71-1,5.57-1.83,7a1,1,0,0,0,1.72,1c1-1.78,1.7-5,2.1-7.81.76.06,1.56.1,2.39.1.48,0,1,0,1.47-.05.4,2.82,1.05,6,2.09,7.75a1,1,0,1,0,1.72-1c-.85-1.44-1.44-4.26-1.82-6.95a15.54,15.54,0,0,0,3.42-.93c1,2.92,2.34,6.42,4.08,10.58a100.66,100.66,0,0,0,10,17.81c-1.06,1.65-5.51,7.11-18.18,7.75C295,434.83,288.12,431.32,286,430Z" transform="translate(-283.17 -361.74)"/><path class="cls-2" d="M318.52,400.37a.88.88,0,0,0,0,.27.92.92,0,0,0,0,.25,1,1,0,0,0,0,.13v0a.78.78,0,0,0,0,.14v0a1,1,0,0,0,0,.35,1,1,0,0,0,0,.28,1,1,0,0,0,.07.42.83.83,0,0,0,.86-.43.84.84,0,0,0-.38-1.15,1,1,0,0,1-.53-.68l0,.09A.87.87,0,0,0,318.52,400.37Z" transform="translate(-283.17 -361.74)"/></svg>