<svg id="Layer_1" data-name="Layer 1" xmlns="http://www.w3.org/2000/svg" width="58.58" height="63.39" viewBox="0 0 58.58 63.39"><defs><style>.cls-1{fill:none;stroke:#30394b;stroke-linecap:round;stroke-linejoin:round;stroke-width:2.58px;}</style></defs><title>benefit-1</title><path class="cls-1" d="M254.08,393.3a6.54,6.54,0,0,1,6.08,4.14,21.29,21.29,0,0,1,27.6,0,6.53,6.53,0,1,1,6.08,8.92l-.57,0a16.37,16.37,0,0,1,.48,3.95c0,9.9-8.86,17.92-19.79,17.92s-19.79-8-19.79-17.92a16.34,16.34,0,0,1,.48-3.95l-.58,0a6.53,6.53,0,0,1,0-13.07Z" transform="translate(-244.67 -391.08)"/><path class="cls-1" d="M274,409.44c5.68,0,10.29,3.22,10.29,7.19s-4.61,7.19-10.29,7.19-10.29-3.22-10.29-7.19,4.61-7.19,10.29-7.19Z" transform="translate(-244.67 -391.08)"/><path class="cls-1" d="M267.1,408.29a1.25,1.25,0,1,1-1.25,1.25,1.25,1.25,0,0,1,1.25-1.25Z" transform="translate(-244.67 -391.08)"/><path class="cls-1" d="M280.82,408.29a1.25,1.25,0,1,1-1.25,1.25,1.25,1.25,0,0,1,1.25-1.25Z" transform="translate(-244.67 -391.08)"/><line class="cls-1" x1="29.29" y1="23.35" x2="29.29" y2="32.38"/><path class="cls-1" d="M274,414.09c1.78,0,3.23.47,3.23,1s-1.44,1-3.23,1-3.23-.47-3.23-1,1.44-1,3.23-1Z" transform="translate(-244.67 -391.08)"/><path class="cls-1" d="M299.95,437c-3.35-3-9.71-2.29-14.21,1.66s-5.43,9.63-2.08,12.66,9.71,2.29,14.21-1.66S303.3,440,299.95,437Z" transform="translate(-244.67 -391.08)"/><path class="cls-1" d="M248,437c3.35-3,9.71-2.29,14.21,1.66s5.43,9.63,2.08,12.66-9.71,2.29-14.21-1.66S244.62,440,248,437Z" transform="translate(-244.67 -391.08)"/><path class="cls-1" d="M284.08,426.84a22.62,22.62,0,0,1,1.75,3,24.28,24.28,0,0,1,1.32,3.25c.18.56.85,3.16,1,3.72" transform="translate(-244.67 -391.08)"/><path class="cls-1" d="M283.49,451.84c-2.27,1.22-6.65,1.34-9.51,1.34s-7.25-.1-9.55-1.34" transform="translate(-244.67 -391.08)"/><path class="cls-1" d="M259.78,436.78c.14-.57.81-3.17,1-3.73a24.08,24.08,0,0,1,1.32-3.25,22.53,22.53,0,0,1,1.75-3" transform="translate(-244.67 -391.08)"/><path class="cls-1" d="M253.7,434.66c-.77-.89-.86-2.42-.39-4.18a16,16,0,0,1,5.3-7.79" transform="translate(-244.67 -391.08)"/><path class="cls-1" d="M294.22,434.66c.77-.89.86-2.42.39-4.18a16,16,0,0,0-5.3-7.79" transform="translate(-244.67 -391.08)"/></svg>