<svg id="Layer_1" data-name="Layer 1" xmlns="http://www.w3.org/2000/svg" width="60.41" height="61.49" viewBox="0 0 60.41 61.49"><defs><style>.cls-1{fill:none;stroke:#30394b;stroke-linecap:round;stroke-linejoin:round;stroke-width:2.41px;}</style></defs><title>benefit-3</title><path class="cls-1" d="M444.71,352c-2.21.72-1.74,3.83-3.09,4.82s-3.94-.61-5,1.15c0,2.44,2.91,2.92,3.38,4.59s-1.78,3.77-.53,5.41c2.18.79,3.54-2,5.19-2s2.84,2.94,4.71,2.19c1.39-2-.72-4.17-.18-5.82s3.54-2,3.44-4.05c-1.33-2-4-.56-5.3-1.61s-.66-4.15-2.58-4.7Z" transform="translate(-435.37 -325.95)"/><path class="cls-1" d="M460.88,371.5c-2,.49-1.72,2.9-3,3.69s-3.53-.43-4.62,1.06c-.2,2.16,2.07,2.59,2.38,4.1s-1.51,3.42-.51,5c1.88.84,3-1.3,4.46-1.16s2.6,2.54,4.3,2c1.36-1.64-.21-3.39.38-4.82s3.12-1.85,3.17-3.72c-1-1.85-3.13-.8-4.22-1.82s-.67-3.68-2.34-4.3Z" transform="translate(-435.37 -325.95)"/><line class="cls-1" x1="44.92" y1="24.2" x2="31.63" y2="30.17"/><line class="cls-1" x1="15.37" y1="36.23" x2="26.6" y2="35.14"/><line class="cls-1" x1="32.63" y1="33.89" x2="45.04" y2="51.27"/><line class="cls-1" x1="29.99" y1="37.82" x2="27.85" y2="49.85"/><line class="cls-1" x1="26.12" y1="15.18" x2="27.23" y2="30.95"/><line class="cls-1" x1="36.52" y1="18.87" x2="31.63" y2="30.17"/><line class="cls-1" x1="29.99" y1="37.82" x2="41.19" y2="59.01"/><line class="cls-1" x1="46.23" y1="38.2" x2="32.63" y2="33.89"/><line class="cls-1" x1="26.6" y1="35.14" x2="10.32" y2="51.17"/><line class="cls-1" x1="9.47" y1="17.41" x2="27.23" y2="30.95"/><path class="cls-1" d="M489,355.92c-2.28,0-2.48,3.06-4,3.59s-3.78-1.7-5.31-.37c-.74,2.27,1.94,3.31,1.9,5s-2.83,3.28-2.14,5.18c1.82,1.37,3.68-1,5.21-.5s2,3.73,4,3.57c1.87-1.42.33-3.93,1.32-5.31s4.09-1,4.61-3c-.66-2.25-3.47-1.42-4.4-2.79s.5-4.33-1.14-5.4Z" transform="translate(-435.37 -325.95)"/><path class="cls-1" d="M483.76,332.8c-2,.49-1.72,2.9-3,3.69s-3.53-.43-4.62,1.06c-.2,2.16,2.07,2.59,2.38,4.1s-1.51,3.42-.52,5c1.88.84,3-1.3,4.46-1.16s2.6,2.54,4.3,2c1.36-1.64-.21-3.39.38-4.82s3.12-1.85,3.17-3.72c-1-1.85-3.13-.8-4.22-1.82s-.67-3.68-2.34-4.3Z" transform="translate(-435.37 -325.95)"/><path class="cls-1" d="M461.58,327.16c-2.21.72-1.74,3.83-3.09,4.82s-3.94-.61-5,1.15c0,2.44,2.91,2.92,3.38,4.59s-1.78,3.77-.53,5.41c2.18.79,3.54-2,5.19-2s2.84,2.94,4.71,2.19c1.39-2-.72-4.17-.18-5.82s3.54-2,3.44-4.05c-1.33-2-4-.56-5.3-1.61s-.66-4.15-2.58-4.7Z" transform="translate(-435.37 -325.95)"/></svg>