<svg id="Isolation_Mode" data-name="Isolation Mode" xmlns="http://www.w3.org/2000/svg" width="12.89" height="12.47" viewBox="0 0 12.89 12.47"><defs><style>.cls-1{fill:#231f20;}</style></defs><title>rocket</title><path class="cls-1" d="M9.56,3.3a5.46,5.46,0,0,0,.89.74,1.83,1.83,0,0,0,.94.34L12,.84,8.5,1.46a1.83,1.83,0,0,0,.33.94v.3H9v0h0v0h0v.06h0v0h0v0h0v0h.35l0,0h0Zm-5.07,5h0l.39.37-.39-.37Zm0-2-.39.39.1.19a3.37,3.37,0,0,0,.3.42l.11.13L4.53,6.31Zm.26,3.05A.19.19,0,0,1,5,9.28l.47.23a.19.19,0,0,1,.09.25l-1.29,2.6a.19.19,0,0,1-.35,0l-.48-1.55L1,12a.19.19,0,0,1-.25-.26L2.16,9.27l-2-.74a.19.19,0,0,1,0-.36l3.09-.9a.19.19,0,0,1,.23.13l.15.51a.19.19,0,0,1-.13.23l-1,.29.77.28h0A.19.19,0,0,1,3.37,9l-.68,1.19L3.87,9.6a.19.19,0,0,1,.24.13l.19.63.49-1Zm3-7.58a1.79,1.79,0,0,1,0-.27,1.54,1.54,0,0,1,0-.38l0-.17A.19.19,0,0,1,8,.82L12.67,0h.07a.19.19,0,0,1,.15.22L12,4.86a.19.19,0,0,1-.15.16l-.17,0a1.57,1.57,0,0,1-.37,0h0l-.28,0L6.66,9.41a.7.7,0,0,1-.52.19,1.4,1.4,0,0,1-.62-.2A3.85,3.85,0,0,1,5,9a8.13,8.13,0,0,1-.6-.55h0c-.19-.2-.37-.39-.53-.58a4.29,4.29,0,0,1-.37-.52,1.51,1.51,0,0,1-.23-.66.7.7,0,0,1,.21-.56L7.81,1.79ZM6,4.6l-.84.83.32,3.08a3,3,0,0,0,.39.27c.16.09.28.14.3.11h0l.28-.28L6,4.6Zm.94,3.53.84-.83-.46-4-.84.83.46,4Zm1.31-1.3L9.08,6,8.74,3.18a4.37,4.37,0,0,1-.52-.79l-.44.43.46,4Zm1.31-1.3.89-.88-.29-.17a5.59,5.59,0,0,1-.81-.64l.2,1.7ZM5,9.45l.47.23-1.29,2.6L3.6,10.52.91,11.82,2.43,9.17.19,8.36l3.09-.9L3.43,8l-1.54.45,1.32.48-1,1.71,1.71-.82.33,1.09L5,9.45Z"/></svg>