<svg xmlns="http://www.w3.org/2000/svg" width="24" height="24" viewBox="0 0 24 24">
  <defs>
    <style>
      .cls-1 {
        fill: #727272;
        fill-rule: evenodd;
      }
    </style>
  </defs>
  <path class="cls-1" d="M1437.08,15634h17.84a3.1,3.1,0,0,1,3.08,3.1v17.8a3.1,3.1,0,0,1-3.08,3.1h-17.84a3.1,3.1,0,0,1-3.08-3.1v-17.8a3.1,3.1,0,0,1,3.08-3.1h0Zm14.4,2.7h0a1.083,1.083,0,0,0-1.08,1v2.6a1.1,1.1,0,0,0,1.08,1.1h2.72a1.1,1.1,0,0,0,1.08-1.1v-2.6a1.083,1.083,0,0,0-1.08-1h-2.72Zm3.81,7.4h-2.12a7.628,7.628,0,0,1,.31,2.1,7.465,7.465,0,0,1-14.92,0,7.628,7.628,0,0,1,.31-2.1h-2.2v10.2a0.927,0.927,0,0,0,.95.9h16.71a0.93,0.93,0,0,0,.96-0.9v-10.2h0Zm-9.27-2.8h0a4.653,4.653,0,1,0,4.82,4.6,4.742,4.742,0,0,0-4.82-4.6h0Z" transform="translate(-1434 -15634)"/>
</svg>
