<svg xmlns="http://www.w3.org/2000/svg" width="20" height="28" viewBox="0 0 20 28">
  <defs>
    <style>
      .cls-1 {
        fill: #727272;
        fill-rule: evenodd;
      }
    </style>
  </defs>
  <path class="cls-1" d="M1522.31,15632h-2.21l-1.35,5.6h-0.14l-1.41-5.6H1515l2.59,8.5v5.6h2.18v-5.8l2.54-8.3h0Zm0.66,13.6a2.813,2.813,0,0,0,2.03.8h0.02a2.67,2.67,0,0,0,2.81-2.9v-5.4a2.619,2.619,0,0,0-.77-1.9,2.715,2.715,0,0,0-1.96-.8,2.956,2.956,0,0,0-2.11.8,2.332,2.332,0,0,0-.78,1.9v5.4a2.844,2.844,0,0,0,.76,2.1h0Zm1.23-7.6h0a0.6,0.6,0,0,1,.23-0.5,0.673,0.673,0,0,1,.57-0.3,0.749,0.749,0,0,1,.62.3,0.582,0.582,0,0,1,.24.5v5.7a0.676,0.676,0,0,1-.23.6,0.768,0.768,0,0,1-.63.3,1.012,1.012,0,0,1-.59-0.2,1.121,1.121,0,0,1-.21-0.7v-5.7h0Zm8.86-2.3v7.9c-0.18.2-.38,0.4-0.59,0.6a1.654,1.654,0,0,1-.54.2,0.5,0.5,0,0,1-.4-0.2,0.88,0.88,0,0,1-.12-0.5v-8h-1.93v8.7a2.372,2.372,0,0,0,.34,1.4,1.209,1.209,0,0,0,1.01.5,1.771,1.771,0,0,0,1.12-.4,3.8,3.8,0,0,0,1.11-.9v1.1H1535v-10.4h-1.94Zm-12.38,14.4h-4.58v1.4h1.54v8.3h1.49v-8.3h1.55v-1.4h0Zm2.43,8h0a5.22,5.22,0,0,1-.41.4,0.59,0.59,0,0,1-.37.1,0.262,0.262,0,0,1-.27-0.1,0.8,0.8,0,0,1-.08-0.4v-5.4h-1.32v5.9a1.629,1.629,0,0,0,.23,1,0.832,0.832,0,0,0,.69.3,2.253,2.253,0,0,0,.77-0.2,4.1,4.1,0,0,0,.76-0.7v0.8h1.33v-7.1h-1.33v5.4h0Zm5.13-5.5h0a0.755,0.755,0,0,0-.61.2,1.188,1.188,0,0,0-.57.5v-3.2h-1.33v9.7h1.33v-0.5a1.746,1.746,0,0,0,.57.4,1.545,1.545,0,0,0,.69.2,1,1,0,0,0,.9-0.4,2.055,2.055,0,0,0,.31-1.2v-3.9a2.453,2.453,0,0,0-.33-1.4,1.083,1.083,0,0,0-.96-0.4h0Zm-0.07,5.5h0a0.688,0.688,0,0,1-.12.5,0.436,0.436,0,0,1-.35.2,0.388,0.388,0,0,1-.32-0.1,0.967,0.967,0,0,1-.32-0.3v-4.4a0.464,0.464,0,0,1,.28-0.2,0.319,0.319,0,0,1,.28-0.1,0.577,0.577,0,0,1,.41.2,0.935,0.935,0,0,1,.14.6v3.6h0Zm6.25-1.7h0v-1.8a2.425,2.425,0,0,0-.48-1.6,2.014,2.014,0,0,0-1.4-.5,1.893,1.893,0,0,0-1.45.6,2.128,2.128,0,0,0-.56,1.5v3.2a2.329,2.329,0,0,0,.51,1.6,1.745,1.745,0,0,0,1.4.6,1.838,1.838,0,0,0,1.49-.6,2.206,2.206,0,0,0,.49-1.6v-0.5h-1.36v0.5a1.783,1.783,0,0,1-.13.8,0.6,0.6,0,0,1-.46.1,0.392,0.392,0,0,1-.45-0.2,1.436,1.436,0,0,1-.13-0.7v-1.4h2.53Zm-2.53-1.8h0a1.584,1.584,0,0,1,.14-0.7,0.6,0.6,0,0,1,.89,0,1.584,1.584,0,0,1,.14.7v0.7h-1.17v-0.7h0Z" transform="translate(-1515 -15632)"/>
</svg>
