<svg xmlns="http://www.w3.org/2000/svg" width="16" height="20" viewBox="0 0 16 20">
  <defs>
    <style>
      .cls-1 {
        fill: #727272;
        fill-rule: evenodd;
      }
    </style>
  </defs>
  <path class="cls-1" d="M1279.04,15636h9.09c2.99,0,5.53,1.5,5.53,4.4a4.369,4.369,0,0,1-2.74,4.5,12.033,12.033,0,0,0,1.57.7,3.008,3.008,0,0,1,1.27.9,4.494,4.494,0,0,1,1.24,3.7c0,3.9-3.74,5.8-7.34,5.8H1279l0.04-20h0Zm4.94,5.3v2.5c2.34,0,4.54.4,4.54-2.2,0-2.3-2.49-1.9-4.55-1.9l0.01,1.6h0Zm0,11c2.56,0,5.73.4,5.78-2.5,0.06-3-3.25-2.5-5.78-2.5v5h0Z" transform="translate(-1279 -15636)"/>
</svg>
