<svg id="Capa_1" data-name="Capa 1" xmlns="http://www.w3.org/2000/svg" width="512" height="511.97" viewBox="0 0 512 511.97"><defs><style>.cls-1{fill:#fff;}</style></defs><title>zoom-in</title><path class="cls-1" d="M543,125c0,114.89,93.13,208,208,208a207.22,207.22,0,0,0,130.51-46.12L1017.1,422.48a22.21,22.21,0,0,0,31.4-31.43L912.93,255.52A207.22,207.22,0,0,0,959,125C959,10.15,865.88-83,751-83S543,10.11,543,125Zm96,0a16,16,0,0,1,16-16h80V29a16,16,0,1,1,32,0v80h80a16,16,0,0,1,0,32H767v80a16,16,0,0,1-32,0V141H655A16,16,0,0,1,639,125Z" transform="translate(-543 82.98)"/></svg>