<svg id="Isolation_Mode" data-name="Isolation Mode" xmlns="http://www.w3.org/2000/svg" width="167" height="200.81" viewBox="0 0 167 200.81"><defs><style>.cls-1{fill:#fff;}</style></defs><title>bg-contact</title><path class="cls-1" d="M62.93,182.65,56.28,137l-2.3.87A40.53,40.53,0,0,1,44.32,140l11,42.66Zm4.65-58.91-.42-.15,9.4,64.48,13.91,0L100,123.63l-.45.16h0l-.45.16,0,0-.46.15,0,0-.46.15h0l-.47.15h0l-.46.14h0l-.48.14h0l-.48.13h0l-.48.12h0l-.49.12h0l-.49.11h0l-.49.11h0l-.49.11h0l-.49.1h0l-.5.1h0l-.5.09h0l-.51.08h0l-.51.08h0l-.51.07h0l-.51.07h0l-.52.06-.52.06-.52.06-.52,0-.52,0h0l-.52,0h0l-.52,0h0l-.52,0h0l-.52,0H82.54l-1,0h0l-.5,0h0l-.5,0h0l-.49,0h0l-.49,0h0l-.49,0h0l-.49-.06h0l-.48-.06h0l-1-.13h0L76.3,126h-.05l-.47-.08h-.05l-.47-.08h0l-.47-.09h-.05l-.47-.09h0l-.47-.1h-.05l-.46-.1h-.05l-1-.23h-.06l-.45-.12-.07,0-.44-.12-.5-.14-.07,0-.44-.13-.07,0-.43-.13-.07,0-.43-.14-.08,0-.43-.15-.07,0-.42-.15-.07,0-.42-.15-.08,0Zm45.69-65.4a36.39,36.39,0,0,0-6-6.67,31.34,31.34,0,0,1-8.69,7.48,30.88,30.88,0,0,1-30.79.14A31.21,31.21,0,0,1,59.3,52.2,35.88,35.88,0,0,0,48.54,70.14,8,8,0,0,1,40.8,76.2,23.59,23.59,0,0,0,21.89,114a23.42,23.42,0,0,0,12,8.33,27.85,27.85,0,0,0,6.79,1,23.46,23.46,0,0,0,17.83-8.19l.74-.89a8,8,0,0,1,9.47-2.35l2.42,1a36.28,36.28,0,0,0,24.83,0l2.45-1a7.94,7.94,0,0,1,9.49,2.39l.7.84a23.7,23.7,0,0,0,8,6.1,23.36,23.36,0,0,0,9.8,2.16,24.09,24.09,0,0,0,3.12-.19,24.47,24.47,0,0,0,3-.6l.33-.1a23.59,23.59,0,0,0-6.41-46.28,8.19,8.19,0,0,1-4.92-1.69,7.93,7.93,0,0,1-2.89-4.37,35.9,35.9,0,0,0-5.41-11.91ZM83.13,18.11A14,14,0,1,0,93,22.22a14,14,0,0,0-9.87-4.12ZM51.36,36.53l0-.36A32.5,32.5,0,0,1,51,32.05a32.09,32.09,0,0,1,64.17.08,33.09,33.09,0,0,1-.22,3.68,53.76,53.76,0,0,1,18.27,23.81,40.59,40.59,0,0,1,9,77.44l-14.88,57a9,9,0,0,1-8.75,6.77l-70.31-.09a9,9,0,0,1-8.73-6.79l-14.72-57A40.62,40.62,0,0,1,34.1,59.49a53.07,53.07,0,0,1,17.26-23ZM104.1,182.7h7.58l11.13-42.62a41.9,41.9,0,0,1-11.94-3l-6.76,45.6Z" transform="translate(-0.12 -0.01)"/></svg>