<svg id="Layer_1" data-name="Layer 1" xmlns="http://www.w3.org/2000/svg" width="260" height="209.31" viewBox="0 0 260 209.31"><defs><style>.cls-1{fill:#fff;}</style></defs><title>bg-rocket</title><path class="cls-1" d="M69.82,53.16v0L70,53v0l.12-.16v0l.26-.35v0l.13-.18v0l.13-.18h0l.14-.19v0l.14-.19h0l.14-.19h0l.15-.2h0l.15-.2h0l.15-.21h0l.15-.21h0l.16-.22h0l.16-.22h0l.16-.23h0l.16-.23h0l.17-.24h0l.17-.24h0l.17-.25h0l.17-.26h0l.18-.26h0l.17-.26h0l.18-.26h0l.18-.27h0l.18-.27h0l.18-.27h0l.19-.28h0l.19-.28h0l.19-.29.19-.29h0l.19-.29h0l.19-.3h0l.19-.3.19-.3h0l.19-.3h0l.19-.31.19-.31h0l.19-.31h0l.19-.32h0l.19-.32.19-.33.19-.33.19-.33h0l.19-.33h0l.19-.33.19-.34h0l.19-.33.19-.34.19-.34.19-.34L78.9,39l.19-.35.18-.35.18-.35.18-.35.18-.36.18-.35.18-.36.17-.36.17-.36.17-.36.17-.36.17-.37c2.74-6.1,4.63-12.69,3.74-18.33L17.38,13.89,38.76,77.83c5.67-.74,11.46-4.41,16.54-8.76A101.94,101.94,0,0,0,69.82,53.16Zm106.86,79.93c-2.08,2.77-4.17,5.4-6.24,7.83,2.07-2.43,4.15-5.06,6.22-7.83Zm-5.87-37,.68,21.06,1.69-2.68a63,63,0,0,0,4.48-8.54,37.32,37.32,0,0,0,1.35-3.69l-8.21-6.14Zm3,57.3,11.66,17.09,2-12.25a3.53,3.53,0,0,1,4-2.93l23.38,7.48-15.71-20.24a3.53,3.53,0,0,1,.64-4.95l.51-.33,13.57-7.14-18.93-2.78a3.54,3.54,0,0,1-3-4l1.4-9.75a3.54,3.54,0,0,1,4-3L257,119.33a3.53,3.53,0,0,1,1.13,6.63L222.3,144.8l32.51,41.87a3.53,3.53,0,0,1-3.87,5.51l-49.28-15.86-4.83,30a3.53,3.53,0,0,1-6.4,1.44l-30.6-44.88a3.54,3.54,0,0,1,.92-4.91l8.13-5.54a3.54,3.54,0,0,1,4.91.93ZM98.32,20.67l92.28,69.06a13.07,13.07,0,0,1,5.28,9.78c.32,3.76-.62,8.11-2.57,12.84A80.18,80.18,0,0,1,187.79,123c-2.36,3.9-5.18,8-8.28,12.17l-.21.26a151,151,0,0,1-9.74,11.77,72.35,72.35,0,0,1-9.13,8.5c-3.79,2.89-7.52,4.77-11.06,5.37a13,13,0,0,1-10.09-2.19L46.71,89.65a33.1,33.1,0,0,1-5.14,1.29h-.1a29.19,29.19,0,0,1-6.86.32L31.35,91A3.54,3.54,0,0,1,28.2,88.4L.18,4.65A3.53,3.53,0,0,1,3.65,0L92.13,3.27a3.52,3.52,0,0,1,3.17,2.28l1.16,3.06a28.8,28.8,0,0,1,1.68,7,32.87,32.87,0,0,1,.18,5.07Zm40.94,47.39L141,143.48l6,4.49h0c.55.38,2.5-.77,5.3-2.9a56.12,56.12,0,0,0,6.48-5.94l-1.87-57.86L139.26,68.06ZM131,136l-1.77-75.41-17.65-13.2,1.77,75.41L131,136Zm-27.7-20.73L101.5,39.8l-9.17-6.86a82,82,0,0,1-7.67,15.92l1,53.17,17.62,13.19ZM75.62,94.53l-.6-32a104,104,0,0,1-13.3,14c-1.58,1.36-3.23,2.66-4.94,3.87l18.84,14.1Zm95.24,60.84,16.65,24.42,3.38-21,33.73,10.86-22.71-29.25,23.17-12.19-29.67-4.35,1.4-9.76,59.65,8.75-39.54,20.81L252,188.83,198.82,171.7l-5.48,34.08-30.6-44.88,8.13-5.54Z"/></svg>