<svg xmlns="http://www.w3.org/2000/svg" width="99.94" height="133.03" viewBox="0 0 99.94 133.03">
  <defs>
    <style>
      .cls-1 {
        fill: #fdd0f0;
        fill-rule: evenodd;
      }
    </style>
  </defs>
  <path id="Shape_11_copy_6" data-name="Shape 11 copy 6" class="cls-1" d="M1095.31,3818.81c10.91-1.09,25.45-13.58,43-33.93,1.03-1.23,2.07-2.47,3.08-3.73s2.03-2.53,3.01-3.81c1.96-2.55,3.85-5.12,5.6-7.68a97.753,97.753,0,0,0,8.55-14.8c4.27-9.39,4.69-17.04,1.83-22.97-6.25-11.43-20.38-19.3-28.1-29.49-4.28-4.78-8.11-9.32-12.48-12.36a24.606,24.606,0,0,0-3.37-1.99,20.366,20.366,0,0,0-11.49-1.93c-11.18,1.29-21.17,10.52-28.67,23.65-0.47.82-.93,1.65-1.37,2.5s-0.89,1.72-1.32,2.59q-1.29,2.64-2.45,5.42a109.973,109.973,0,0,0-4.09,11.59,118.4,118.4,0,0,0-4.5,24.88c-1.15,16.75,1.52,32.86,7.08,44.59,2.8,5.86,6.4,10.57,10.7,13.65,0.54,0.38,1.09.74,1.65,1.07s1.13,0.64,1.71.93a21.055,21.055,0,0,0,3.6,1.34,20.12,20.12,0,0,0,8.03.48h0Z" transform="translate(-1062.28 -3685.97)"/>
</svg>
