<svg id="Layer_1" data-name="Layer 1" xmlns="http://www.w3.org/2000/svg" width="60.16" height="30" viewBox="0 0 60.16 30"><defs><style>.cls-1{fill:#ffafd1;}</style></defs><title>logo-mobile</title><path class="cls-1" d="M6.22,16.91c-.32.16-.61.18-.71,0-.26-.67-.37-1.6.3-2a13.5,13.5,0,0,0,2.44-2.42,11.31,11.31,0,0,0,1.48-2C11.62,6.84,5.19,8.65,4,12.87c0,.3-.26.79-.67.67a2.24,2.24,0,0,1-1.2-2,3.84,3.84,0,0,1,.26-1.79A7.09,7.09,0,0,1,7.22,6.09a6.09,6.09,0,0,1,4.06.3c2.66,1.44.93,4.59-.37,6.34l-.2.26a4.06,4.06,0,0,1,2.54,3.43,13.44,13.44,0,0,1-1.73,7.19,15.31,15.31,0,0,1-3.66,4.63,6.9,6.9,0,0,1-5.71,1.67,3,3,0,0,1-2-3.8c.91-3.78,6.09-6.62,9.42-7.84h0c.41,0,.3.69,0,1.32a2.65,2.65,0,0,1-1.2,1.32C6.67,22,3.48,24.45,3.22,25.81a.71.71,0,0,0,.46.89h.25c1.67.18,3.43-1.64,4.39-2.86a9.75,9.75,0,0,0,2.56-7C10.28,14,7.2,16.43,6.22,16.91Zm41.22-3.59a4.49,4.49,0,0,1-1.26.47,2.33,2.33,0,0,1,0,.28,5.71,5.71,0,0,1-.77,2.42c-1.16,2-4.39,3.35-5.1.28a4.28,4.28,0,0,1,0-1.42c-.67,1.2-1.79,3.33-3.13,3.47a1.54,1.54,0,0,1-1.75-1.3A5.46,5.46,0,0,1,34,19c-1.83,1.18-3.43,0-3.45-2,0-2.46,2.44-6,5.14-5.38a1.42,1.42,0,0,1,1.19,1.62l0,.09c.39,0,.69,0,.75.51h0a4.06,4.06,0,0,0-.51,1.79c-.12,1.75.37,1.62,1.34.53A24,24,0,0,0,42,7.72a10,10,0,0,1,3.19-5.3c2-1.2,3-.1,3.19,1.42.53,3.59-2.7,6.72-5.56,8.35a8.73,8.73,0,0,0-.32,1.91,4.55,4.55,0,0,0,0,.85c.2,2.48,2.15,1.32,2.48-.87a1.14,1.14,0,0,1-.85-.43,1.38,1.38,0,0,1,.55-1.85,1,1,0,0,1,1.6.69,2,2,0,0,0,1.06-.3c.83-.39,1.44-1.58,2.31-2.23a3.76,3.76,0,0,1,2.27-.77c1.12,0,1.69.45,1.5,1.56h.16a.89.89,0,0,1,1,.65h0a4.85,4.85,0,0,0-.75,3c.37,2.15,2.46,2,3.8.49a3.66,3.66,0,0,0,.71-3.61h0c1.56-.26,2,.77,1.89,2.15a5,5,0,0,1-2.21,3.31,4.39,4.39,0,0,1-3.59.69,3.11,3.11,0,0,1-1.4-1,4.06,4.06,0,0,1-.65-1.16c-.47,1.14-1.75,2.54-3.07,2.27a2.92,2.92,0,0,1-2-3.35,2.48,2.48,0,0,1,.22-.91Zm4.81-1c.16-.45,0-.81-.55-.71a3.25,3.25,0,0,0-2,2.21c-.55,1.71.57,2.13,1.64.69a8.69,8.69,0,0,0,1-2.17Zm-29,7.23a4.28,4.28,0,0,1-2.64,2.15A1.42,1.42,0,0,1,19,20.61l0-.1a4.51,4.51,0,0,1-2,1.62,2,2,0,0,1-2.71-.94L14.12,21h0a5.56,5.56,0,0,1,2.68-6.27,2.82,2.82,0,0,1,3.07,0,1.44,1.44,0,0,1,.43.81c.77-.2,1.75.47,1.38.93a5.56,5.56,0,0,0-1,2c0,.32-.2,1.28.37,1.22s1.77-1.44,2-2c.3-1.6,2-4.22,3.84-4.06a2,2,0,0,1,1.22.53c-.45-1.83-2.21-2-3.59-2.48a4.28,4.28,0,0,1-1.79-1.12c-1.34-1.5-.26-3.25,1.2-4.06a12.83,12.83,0,0,1,5.48-1.32c2-.1,6.92.12,7.78,2.21a2.21,2.21,0,0,1-.45,2,.28.28,0,0,1-.51,0,4.93,4.93,0,0,0-3-1.77,15.55,15.55,0,0,0-6.88.24c-.71.22-3.33,1.3-1.79,2,1,.51,2.21.63,3.23,1.08a4.06,4.06,0,0,1,2.4,4.3A7.23,7.23,0,0,1,29,18.5a4.18,4.18,0,0,1-3.9,2.38A2.19,2.19,0,0,1,23.26,19.57Zm4.65-3a.57.57,0,0,1-.61,0h0c0-.37.24-1.5-.49-1a4.71,4.71,0,0,0-1.24,2.56c-.1,1.67,1.54.69,2-.57a4.87,4.87,0,0,0,.26-.89ZM19,17.81c-.22,0-.51,0-.39-.32s.53-1.77-.47-1.1a3.49,3.49,0,0,0-1.32,2.44c0,1.48,1.06,1,1.6.32A3.59,3.59,0,0,0,19,17.81Zm24.37-7.25a9.3,9.3,0,0,0,2-2.15A5.89,5.89,0,0,0,46.73,5.1c0-.49-.14-.79-.51-.43A19,19,0,0,0,43.38,10.56ZM33.23,17.63c1.3,0,2.15-3.41,1.67-3.61a1,1,0,0,0-.87.14A3.92,3.92,0,0,0,32.62,17a.63.63,0,0,0,.57.67Z"/><path class="cls-1" d="M17.84,6.64a1.36,1.36,0,0,1,0-1.92L18,4.61a1.14,1.14,0,0,1,1.61-.06l.06.06h0L19.16,5h0a.51.51,0,0,0-.72,0h0c-.41.37-.26.79,0,1.16a.8.8,0,0,0,1.18.24.55.55,0,0,0,.13-.76h0l.45-.39h0a1,1,0,0,1,.26.75,1.38,1.38,0,0,1-.51.89,1.4,1.4,0,0,1-2-.14l-.05-.07Zm3.84-3.92,1.14,2h0l-.53.3h0L21.15,3l-.71.41h0L20.19,3h0l2-1.14h0l.26.45h0Zm3.49-.55L25.33.63h0L26,.41h0l-.32,2.31a1.22,1.22,0,0,1-.77,1.08h-.2l-.16-.47h.18A.39.39,0,0,0,25,3L23.3,1.36h0l.63-.2h0l1.2,1.08Zm2.6.32a8,8,0,0,0,0-2.29h0l2-.14h0L30,2.36h.41v.51h0l-3,.22h0V2.56h.39ZM32.09,2,33.58.41h0l.69.12h0l-.49,2.76h0l-.59-.1h0l.32-1.77L32,3h0l-.69-.12h0L31.75,0h0l.59.1h0Zm3.59,1a.89.89,0,0,1-.12-1c.32-.71,1-.71,1.62-.43l1,.43h0L37,4.61h0l-.55-.24h0l.24-.81-.41-.18-.79.53h0l-.61-.26h0Zm-7.13-.57h.81L29.15.63l-.59.06a5.54,5.54,0,0,1,0,1.75ZM37,3l.37-.83L36.89,2a.53.53,0,0,0-.67.2c-.14.2,0,.51.37.63Z"/></svg>