<svg id="Layer_1" xmlns="http://www.w3.org/2000/svg" width="167" height="161.1">
   <style>
      .st0{fill:#fff}
   </style>
   <path class="st0" d="M16.9 82.4c-.9.4-1.7.5-2-.2-.8-1.8-1-4.5.9-5.7 2.6-1.9 4.9-4 7-6.5 1.6-1.7 2.9-3.6 4.1-5.7 5.3-10-12.7-5-15.9 6.8-.2.9-.7 2.2-1.9 1.8-2.3-.7-3.2-3.4-3.4-5.5-.2-1.7.1-3.4.7-5 2.1-5.3 8.1-9 13.4-10.3 3.6-.9 8.1-1 11.5.8 7.4 4 2.6 12.8-1 17.7l-.6.8c4 1.7 6.6 5.4 6.9 9.7.6 6.8-1.7 14.1-4.8 20-2.5 4.9-6 9.3-10.2 12.9-3.9 3.2-10.7 6.3-15.9 4.7-4.6-1.4-6.4-6.1-5.4-10.6 2.3-10.3 16.7-18.4 26-21.7 1.1-.1.9 1.9.2 3.7-1 2.4-1.4 2.4-3.3 3.7-4.7 3.1-13.6 9.8-14.3 13.7-.3 1.1.3 2.2 1.3 2.5.2.1.5.1.7.1 4.6.5 9.6-4.6 12.2-7.9 4.5-5.8 8.3-14 6.9-19.9-1.8-8.2-10.3-1.3-13.1.1zm114.5-10.1c-1.1.6-2.3 1-3.5 1.3 0 .3 0 .5-.1.8-.2 2.4-.9 4.7-2.1 6.7-3.2 5.7-12.2 9.3-14.2.8-.3-1.3-.4-2.6-.2-3.9-1.9 3.3-5 9.3-8.7 9.7-2.6.3-4.2-1.2-4.8-3.6-1.1 1.6-2.4 2.9-4 4-5.1 3.3-9.5-.1-9.6-5.7-.1-6.8 6.8-16.6 14.3-15 2.5.5 3.5 2.3 3.3 4.8 1.1-.1 1.9.2 2.1 1.4v.1c-.8 1.5-1.3 3.2-1.4 5-.3 4.9 1 4.5 3.7 1.5 5.1-5.8 7.8-16.1 10.1-23.4 1.4-4.7 4.5-12.2 8.9-14.8 5.7-3.3 8.4-.3 8.9 3.9 1.3 10-7.5 18.7-15.7 23-.5 1.7-.8 3.5-.9 5.3-.1.8-.1 1.6-.1 2.4.6 6.9 6 3.7 6.9-2.4-.9 0-1.8-.4-2.4-1.2-1.2-1.7-.1-4.1 1.6-5.1 1.3-.9 3.1-.5 4 .8.2.3.4.7.4 1.1 1.1.1 2.1 0 3.1-.4 2.3-1.1 4-4.4 6.4-6.2 1.8-1.4 4-2.2 6.3-2.2 3.1.1 4.7 1.2 4.2 4.3h.5c1.2-.1 2.3.7 2.7 1.8v.1c-1.5 1.7-2.4 6.2-2.1 8.3 1 6 6.8 5.7 10.6 1.4 2.4-2.8 3.2-6.6 2-10.1 0-.1 0-.2.1-.2 4.3-.7 5.9 2.2 5.3 6-.7 3.8-2.9 7.1-6.2 9.2-2.9 1.9-6.6 2.9-10 1.9-1.7-.5-3.2-1.5-4.3-2.9-.8-1-1.4-2.1-1.8-3.3-1.3 3.2-4.9 7.1-8.6 6.3-4.1-.8-5.5-5.4-5.3-9.2.1-.7.3-1.5.6-2.3zm13.7-4.4c.5-1.3.1-2.2-1.5-2-2.6.4-5.2 4-5.9 6.2-1.6 4.7 1.6 5.9 4.6 1.9 1.2-1.9 2.1-4 2.8-6.1zM64.4 88c-1.6 2.5-4.2 5.6-7.4 6-2.6.3-4-1-4.7-3.4-1.3 2-3.2 3.5-5.4 4.5-3 1.3-6.5-.1-7.7-3.1-2.7-5.8 1.9-14.6 7.2-17.4 2.4-1.3 6.3-2.2 8.6-.1.6.6 1 1.4 1.2 2.3 2.2-.5 4.8 1.3 3.8 2.6-1.3 1.6-2.3 3.5-2.9 5.5-.2.9-.6 3.6 1 3.4 2.3-.2 4.9-4 5.9-5.9.8-4.5 5.5-11.8 10.7-11.3 1.3.1 2.4.6 3.4 1.5-1.5-4.6-6.4-5-10.3-6.4-1.9-.6-3.6-1.7-5-3.1-3.7-4.2-.7-9 3.4-11.4 4.5-2.7 11.1-3.5 15.3-3.7 5.6-.3 19.3.3 21.7 6.2.8 2-.1 4.1-1.2 5.8-.2.4-.7.6-1.1.4-.1-.1-.3-.2-.3-.3-2-2.7-5-4.2-8.5-4.9-6.4-1.2-12.9-1-19.2.7-2 .6-9.3 3.6-4.9 5.9 2.7 1.4 6.2 1.8 9 3 5.1 2.2 7 6.7 6.7 12-.3 3.1-1.4 6.1-3.1 8.8-2.3 3.6-6.2 7.4-10.9 6.6-2.5-.4-4.5-2-5.3-4.2zm13-8.5c-.5.3-1.2.2-1.7-.2l-.1-.1c.2-1 .7-4.2-1.4-2.8-1.6 1.1-3.3 5.3-3.4 7.2-.3 4.6 4.3 1.9 5.8-1.6.3-.8.6-1.6.8-2.5zm-25.5 3.6c-.6.1-1.4-.1-1.1-.9.5-1.3 1.4-4.8-1.1-3.1-1.9 1.2-4.1 5.6-3.8 7.8.4 3 3 1.8 4.4 0 .8-1.2 1.3-2.4 1.6-3.8zM120.5 63c2.1-1.7 3.9-3.7 5.4-6 1.9-2.5 3.7-5.9 3.7-9.2 0-1.4-.4-2.2-1.4-1.2-3.9 4.3-5.7 10.9-7.7 16.4zM93.2 82.6c3.6.2 6-9.5 4.7-10.1-.8-.2-1.7-.1-2.4.4-1.9 1.2-4.1 5.6-3.8 7.8 0 1 .4 1.9 1.5 1.9z"/>
   <path class="st0" d="M31.5 115.4c-1.2-1.4-1-3.5.5-4.7 1.4-1.2 3.5-1 4.7.5s1 3.5-.5 4.7c-.1.1-.2.1-.3.2-1.4 1-3.3.7-4.4-.7zm27.3-92c1.6-.6 3.4.2 4.1 1.9.8 1.5.2 3.3-1.2 4.1s-3.3.2-4.1-1.2c-.1-.1-.1-.3-.2-.5-.8-1.6-.2-3.5 1.4-4.3zM33.5 43.2c1.2-1.4 3.3-1.5 4.7-.3 1.2 1.1 1.5 2.9.6 4.3-1.2 1.4-3.3 1.5-4.7.3-1.3-1.1-1.5-2.9-.6-4.3zM45 31.6c1.6-1 3.6-.4 4.6 1.2.8 1.4.6 3.1-.6 4.2-1.6 1-3.6.4-4.6-1.2-.8-1.4-.6-3.2.6-4.2zm6.4-26c1.5-.6 3 2.3 3.4 3.3s1.3 4.2-.2 4.8-3-2.3-3.4-3.3-1.3-4.2.2-4.8zm-3.9 13.8c1.5-.9 3.3.9 4 2.2s1.2 3.7-.3 4.5-3.3-.9-4-2.2-1.2-3.7.3-4.5zm-15 11.5c1.2-1.3 3.4-.1 4.5.9s2.1 2.8 1.3 4.2c-.1.1-.1.2-.2.2-1.2 1.3-3.4.1-4.5-.9s-2.1-2.8-1.3-4.2l.2-.2zm88.3.9c1.4 1.2 1.5 3.4.2 4.7-1 1.1-2.7 1.4-4 .7-1.4-1.2-1.5-3.3-.3-4.7 1-1.1 2.7-1.4 4.1-.7zm-14-8.2c1.5.8 2.1 2.8 1.3 4.3-.9 1.4-2.7 1.8-4.1.9-1.4-.9-1.8-2.7-.9-4.1.6-1.3 2.3-1.8 3.7-1.1zm-15.6-4.3c1.7.4 2.7 2.2 2.3 3.9-.5 1.6-2.2 2.4-3.8 1.9s-2.4-2.2-1.9-3.8c.4-1.4 1.9-2.3 3.4-2zm-16.7.1c1.7-.2 3.3 1.1 3.5 2.8.4 1.6-.6 3.2-2.2 3.6-1.6.4-3.2-.6-3.6-2.2 0-.1-.1-.3-.1-.4-.4-1.8.7-3.4 2.4-3.8zm-10-7.1c1.7-.4 3 1.7 3.4 3.1s.3 3.9-1.4 4.3-3-1.7-3.4-3.1-.3-3.8 1.4-4.3zM83.2 10c1.8 0 2.5 2.4 2.5 3.8s-.7 3.8-2.5 3.8-2.5-2.4-2.5-3.8.7-3.8 2.5-3.8zM93.3 0c1.6.2 1.6 3.4 1.5 4.5s-.8 4.2-2.4 4.1-1.5-3.4-1.4-4.5.8-4.3 2.3-4.1zM72 0c1.5-.2 2.3 3 2.5 4s.2 4.3-1.3 4.5-2.3-2.9-2.5-4S70.4.2 72 0zm29.2 12.4c1.7.5 1.7 3 1.2 4.4s-1.8 3.5-3.5 2.9-1.7-3-1.2-4.4 1.8-3.4 3.5-2.9zm17.4 7.3c1.5.9.9 3.3.2 4.5s-2.5 3-4 2.1-.9-3.3-.2-4.5 2.5-3 4-2.1zm14.6 11.5c1.3 1.2.2 3.4-.8 4.5s-3.1 2.3-4.5 1.2-.2-3.4.8-4.5 3.2-2.4 4.5-1.2zM145 47.1c.8 1.5-.9 3.3-2.2 4s-3.7 1.2-4.5-.3.9-3.3 2.2-4 3.6-1.2 4.5.3zM114 5.6c1.5.6.6 3.7.3 4.7s-1.9 3.9-3.3 3.3-.6-3.7-.3-4.7 1.8-3.9 3.3-3.3zm18.7 10.9c.6.4.5 1.3.4 1.9-.2 1-.7 1.9-1.3 2.8-.6.9-2.7 3.3-4 2.5-.6-.4-.5-1.3-.4-1.9.2-1 .6-1.9 1.2-2.8.7-.9 2.8-3.3 4.1-2.5zM148 32.1c1 1.2-1.3 3.5-2.2 4.2s-3.6 2.4-4.6 1.2 1.3-3.5 2.2-4.2 3.6-2.4 4.6-1.2zm11.1 20.6c.6 1.5-2.3 3-3.3 3.4s-4.1 1.2-4.7-.2 2.3-3 3.3-3.4 4.1-1.2 4.7.2zM33.2 16.1c1.3-.9 3.4 1.5 4.1 2.4s2.2 3.7.9 4.6-3.4-1.5-4.1-2.4-2.2-3.7-.9-4.6zm-14 13.8c1-1.2 3.7.5 4.5 1.2s3.1 3 2.1 4.2-3.7-.5-4.6-1.2-3-3-2-4.2zM10.3 44c.4-1.5 3.6-1 4.7-.7s4 1.5 3.6 3-3.6 1-4.7.7-4-1.5-3.6-3zM1.5 84.3c0-1.4 1.9-2.1 3-2.2s3.1.2 3.1 1.6-1.9 2.1-3 2.2-3.1-.2-3.1-1.6zm54.9 52c-1.8-.6-2.8-2.4-2.2-4.2.6-1.8 2.4-2.8 4.2-2.2 1.8.6 2.8 2.4 2.2 4.2 0 .1-.1.2-.1.3-.6 1.7-2.4 2.5-4.1 1.9zm16.7-1.8c1.8.2 3.2 1.8 3.1 3.6-.2 1.8-1.8 3.2-3.6 3.1-1.8-.2-3.2-1.8-3.1-3.6v-.4c.3-1.7 1.9-2.9 3.6-2.7zm14.5.6c1.8-.4 3.6.8 4 2.6s-.8 3.6-2.6 4c-1.8.4-3.6-.8-4-2.6 0-.1 0-.2-.1-.3-.2-1.8 1-3.4 2.7-3.7zm13.8-3.1c1.7-.8 3.7-.1 4.5 1.5.8 1.7.1 3.7-1.5 4.5-1.7.8-3.7.1-4.5-1.5-.1-.1-.1-.2-.1-.3-.7-1.7 0-3.6 1.6-4.2zm13.2-7c1.4-1.2 3.5-1.1 4.7.3 1.2 1.4 1.1 3.5-.3 4.7-1.4 1.2-3.5 1.1-4.7-.3-.1-.1-.2-.2-.2-.3-1.1-1.4-.9-3.4.5-4.4zm10.6-10c1-1.6 3-2.1 4.6-1.1 1.6 1 2.1 3 1.1 4.6-1 1.6-3 2.1-4.6 1.1-.1-.1-.2-.1-.3-.2-1.4-1-1.8-3-.8-4.4zm7.5-12.1c.6-1.8 2.5-2.7 4.2-2.2 1.8.6 2.7 2.5 2.2 4.2-.6 1.8-2.5 2.7-4.2 2.2-.1 0-.2-.1-.3-.1-1.7-.7-2.5-2.5-1.9-4.1zm4.1-12.9c.2-1.8 1.8-3.2 3.6-3 1.8.2 3.2 1.8 3 3.6-.2 1.8-1.8 3.2-3.6 3-.1 0-.2 0-.4-.1-1.6-.2-2.8-1.8-2.6-3.5zm-73.5 50.2c1.7.5 1.6 3 1.2 4.4s-1.8 3.5-3.5 2.9-1.7-3-1.2-4.4 1.7-3.4 3.5-2.9zm16.3 2.9c1.8.1 2.4 2.5 2.3 3.9s-.8 3.8-2.6 3.7-2.4-2.5-2.3-3.9.9-3.8 2.6-3.7zm16.6-1.5c1.7-.4 2.9 1.8 3.3 3.2s.2 3.9-1.5 4.3-2.9-1.8-3.3-3.2-.2-3.9 1.5-4.3zm15.5-5.7c1.5-.9 3.3.9 4 2.1s1.3 3.7-.3 4.5-3.3-.9-4-2.1-1.2-3.6.3-4.5zm13.9-9.9c.1-.1.2-.1.2-.2 1.3-.9 3.2.3 4.2 1.2.9 1 2.1 3.2.9 4.5-.1.1-.2.1-.2.2-1.3.9-3.2-.3-4.2-1.2s-2.2-3.3-.9-4.5zm10.7-13.2c.9-1.5 3.3-.8 4.5-.1s2.9 2.6 1.9 4.1-3.3.8-4.5.1-2.9-2.6-1.9-4.1zm6.5-14.8c.5-1.7 3-1.6 4.4-1.2s3.4 1.8 2.9 3.5-3 1.6-4.4 1.2-3.4-1.8-2.9-3.5zM70 151.8c1.5.3 1.4 3.5 1.2 4.6s-1.1 4.2-2.6 3.9-1.4-3.5-1.2-4.6 1.1-4.2 2.6-3.9zm19.4.7c1.6-.1 2.2 3.1 2.3 4.1s0 4.3-1.6 4.4-2.2-3.1-2.3-4.1 0-4.3 1.6-4.4zm18.1-4.1c1.5-.5 2.9 2.4 3.2 3.4s1.1 4.2-.4 4.7-2.9-2.4-3.2-3.4-1.1-4.2.4-4.7zm17.3-9.2c1.3-.9 3.4 1.6 4 2.4.6.8 1 1.8 1.3 2.8.1.6.2 1.5-.4 1.9-1.3.9-3.4-1.6-4-2.4-.6-.8-1-1.8-1.3-2.8-.2-.6-.2-1.5.4-1.9zm14-13.2c1-1.2 3.7.6 4.6 1.2s3.1 3 2.1 4.2-3.7-.6-4.6-1.2-3.1-3-2.1-4.2zm9.9-16c.7-1.4 3.8-.3 4.7.1s3.7 2.2 3.1 3.6-3.7.3-4.7-.1-3.8-2.2-3.1-3.6zM42.5 127.4c-1.5-1-1.9-3.1-.9-4.7 1-1.5 3.1-1.9 4.7-.9 1.5 1 1.9 3.1.9 4.7-.1.1-.1.2-.2.3-1.1 1.4-3.1 1.7-4.5.6zm-6.7-4.8c1.2 1.3-.1 3.4-1.1 4.4s-3.3 2.1-4.5.8.1-3.4 1.1-4.4 3.3-2.1 4.5-.8zm12.7 10.6c1.5.9.8 3.3.1 4.5s-2.6 2.9-4.1 1.9-.8-3.3-.1-4.5 2.6-2.8 4.1-1.9zm3.2 12.8c1.4.6.5 3.7.1 4.7s-2 3.8-3.5 3.2-.5-3.7-.1-4.7 2-3.8 3.5-3.2zm-29-24.4c.9 1.3-1.5 3.4-2.4 4.1s-3.7 2.2-4.6.9 1.5-3.4 2.4-4.1c.8-.6 1.8-1 2.7-1.3.6-.1 1.5-.2 1.9.4zm12.8 14c1.2 1-.5 3.7-1.2 4.6s-3 3.1-4.2 2.2.5-3.7 1.2-4.6c.7-.9 3-3.2 4.2-2.2zm118.7-44c.2-1.6 3.5-1.4 4.6-1.3s4.2 1 4 2.6-3.5 1.4-4.6 1.3-4.2-1.1-4-2.6zM67.6 105.8c.8.2 1.3.8 1.4 1.6.2 1.8-1.4 2.5-2.9 2.6l-3.2.4c-.1 0-.1 0-.1-.1l-.9-7.3c0-.1 0-.1.1-.1l2.8-.4c1.4-.2 3.2 0 3.4 1.7.2.6-.1 1.3-.6 1.6zm7.5 1.6l-2.7.3-.3 1.5c0 .1-.1.1-.1.1l-1.6.2c-.1 0-.1 0-.1-.1l1.7-7.7c0-.1.1-.1.1-.1l1.7-.2c.1 0 .1 0 .1.1l3.7 7c0 .1 0 .1-.1.2l-1.7.2c-.1 0-.1 0-.1-.1l-.6-1.4zm5.7-.8l1.9-.2-.8-5.9c0-.1 0-.1.1-.1l1.6-.2c.1 0 .1 0 .1.1l.8 5.9 1.9-.2-.8-5.9c0-.1 0-.1.1-.1l1.6-.2c.1 0 .1 0 .1.1l.9 7.3c0 .1 0 .1-.1.1l-8.9 1.1c-.1 0-.1 0-.1-.1l-.9-7.3c0-.1 0-.1.1-.1l1.6-.2c.1 0 .1 0 .1.1l.7 5.8zm10.6-5.9l.2 1.3 3-.4c.1 0 .1 0 .1.1l.2 1.3c0 .1 0 .1-.1.1l-3 .4.2 1.7 3.6-.5c.1 0 .1 0 .1.1l.2 1.3c0 .1 0 .1-.1.1l-5.3.7c-.1 0-.1 0-.1-.1l-.9-7.3c0-.1 0-.1.1-.1l5.3-.7c.1 0 .1 0 .1.1l.2 1.3c0 .1 0 .1-.1.1l-3.7.5zm7.2-.9l.8 5.9c0 .1 0 .1-.1.1l-1.6.2c-.1 0-.1 0-.1-.1l-.9-7.3c0-.1-.1-.1 0-.1l4.1-.5c.1 0 .1 0 .1.1l.3 1.3c0 .1 0 .1-.1.1l-2.5.3zm3.6 1.8c-.3-2.4.9-4.1 3.3-4.4 2.2-.4 4.2 1.1 4.6 3.2.4 2.2-1.1 4.2-3.2 4.6-2.2.4-4.2-1.1-4.6-3.2-.1 0-.1-.1-.1-.2zm-37.7 7l1.4-.2c.6-.1 1.3-.3 1.2-1s-1-.7-1.5-.6l-1.3.2.2 1.6zm-.4-3l1-.1c.5-.1 1.4-.3 1.3-1s-.9-.5-1.4-.5l-1.1.1.2 1.5zm8.6.5l1.6-.2-1.1-2.4-.5 2.6zm31.4-4.7c.2 1.2 1 2.4 2.3 2.2s1.8-1.5 1.7-2.7-.9-2.3-2.3-2.1c-1.1.2-1.9 1.2-1.7 2.4v.2zM53.6 109.5l-2.1-2.3-4.7 4.3h-.2l-1.1-1.3v-.2l5.8-5.3h.2l4.5 5v.2l-5.8 5.3H50l-1.1-1.3v-.2l4.7-4.2zm3.3 7.9l-1.2 1.8h-.2l-1.4-.9v-.2l4.4-6.6h.2l2.4 1.6c1.7 1.1 2.7 2.6 1.4 4.4s-3 1.6-4.7.5l-.9-.6zm10.9 6.2l-2.7-1-1 1.3h-.2l-1.7-.6c-.1 0-.1-.1-.1-.2l5.5-6.4h.2l1.7.6c.1 0 .1.1.1.1v8.4c0 .1-.1.1-.1.1l-1.7-.6c-.1 0-.1-.1-.1-.1l.1-1.6zm12-.2c.8.3 1.3 1.1 1.2 1.9-.2 1.9-2.3 2.4-3.9 2.3-1.8-.2-3.7-1-3.5-3.1 0-.1.1-.1.2-.1l1.8.2c.1 0 .1.1.1.2-.1.9.8 1.2 1.6 1.3s1.6 0 1.7-.9-1-.9-1.6-.9l-.7-.1c-.1 0-.1-.1-.1-.2l.1-1.4c0-.1.1-.1.2-.1h.5c.6 0 1.4.1 1.5-.7s-.8-1-1.4-1-1.4.2-1.4 1c0 .1-.1.1-.2.1l-1.8-.2c-.1 0-.1-.1-.1-.2.1-.7.4-1.3 1-1.8.8-.6 1.7-.8 2.6-.7 1 0 1.9.4 2.6 1 .5.4.7 1.1.7 1.7.1.8-.4 1.5-1.1 1.7zm5.5 2.6c.2-1.3.2-2.6 0-3.9l-.3-2.5c0-.1 0-.1.1-.2l5.6-.6c.1 0 .1 0 .2.1l.7 6.3.8-.1c.1 0 .1 0 .2.1l.2 1.5-8.2.9-.1-1.5c0-.1 0-.1.1-.2l.7.1zm11.5-5.8l3-1.1-1-2.7c0-.1 0-.2.1-.2l1.6-.6c.1 0 .2 0 .2.1l2.8 7.4c0 .1 0 .2-.1.2l-1.6.6c-.1 0-.2 0-.2-.1l-1.2-3.1-3 1.1 1.2 3.1c0 .1 0 .2-.1.2l-1.6.6c-.1 0-.2 0-.2-.1l-2.8-7.4c0-.1 0-.2.1-.2l1.6-.6c.1 0 .2 0 .2.1l1 2.7zm10.8-2.9l-.2-6.1s0-.1.1-.1l1.6-1.1h.2l4.4 6.5v.2l-1.4 1h-.2l-2.9-4.2.2 6.1s0 .1-.1.1l-1.6 1.1h-.2l-4.4-6.5v-.2l1.4-1h.2l2.9 4.2zm7-8.9l.2-.3-.8-3.8v-.1l1.2-1.5c.1-.1.1-.1.2 0v.1l.9 4.7h5.2c.1 0 .1.1.1.2v.1l-1.3 1.6-.1.1-4.4-.1-.1.1 2.6 2.1v.2l-1.1 1.3h-.2l-6.1-5v-.2l1.1-1.3h.2l2.4 1.8zm10.2-9.2l-1.2 2.6 1.2 1.1v.2l-.7 1.6c0 .1-.1.1-.2 0l-6-6v-.2l.8-1.7c0-.1.1-.1.1-.1l8.4.7c.1 0 .1.1.1.2l-.8 1.6c0 .1-.1.1-.1.1l-1.6-.1zm-67 16.8l1 .7c.8.5 1.4.5 2-.3s0-1.4-.7-1.9l-.9-.6-1.4 2.1zm8.4 5.3l1.7.6.1-2.8-1.8 2.2zm21.1 4.5l2.4-.3-.5-4.8-2 .2.1 1.3c.2 1.2.1 2.4 0 3.6zm35-25.2l.7-1.6-2.8-.3 2.1 1.9zM49.3 52c-1.7-1.9-1.6-4.1.3-5.8C51 45 53 44.5 54.3 46v.2L53 47.3h-.2c-.6-.6-1.5-.5-2 0 0 0 0 .1-.1.1-1.1 1-.8 2.2.1 3.2s2.2 1.7 3.3.7c.7-.5.8-1.4.4-2.1V49l1.3-1.1h.2c.5.6.8 1.3.7 2.1-.1 1-.6 1.9-1.4 2.5-2.1 1.7-4.3 1.3-6-.5zM60 41.1l3.2 5.5v.2l-1.5.8h-.2L58.3 42l-1.9 1.1h-.2l-.7-1.2v-.2l5.5-3.2h.2l.8 1.3v.2l-2 1.1zm9.7-1.6l.4-4.3s0-.1.1-.1l1.8-.6c.1 0 .1 0 .2.1v.1l-.9 6.4c-.1 1.3-.9 2.5-2.1 3l-.5.2c-.1 0-.1 0-.2-.1l-.5-1.4c0-.1 0-.1.1-.2l.5-.2c.4-.1.7-.5.8-.9l-4.9-4.2c-.1 0-.1-.1 0-.2l1.7-.6h.1l3.4 3zm7.2.9c.5-1.9.1-4.4 0-6.4 0-.1 0-.1.1-.1l5.4-.4c.1 0 .1 0 .1.1L83 40l1.1-.1c.1 0 .1 0 .1.1l.1 1.4c0 .1 0 .1-.1.1l-8.2.7c-.1 0-.1 0-.1-.1l-.1-1.5c0-.1 0-.1.1-.1l1-.1zM89 39.2l4.1-4.5h.1l1.9.3c.1 0 .1.1.1.1l-1.4 7.7c0 .1-.1.1-.1.1l-1.7-.3c-.1 0-.1-.1-.1-.1l.9-5-4 4.5h-.1l-1.9-.3c-.1 0-.1-.1-.1-.1l1.4-7.8c0-.1.1-.1.1-.1l1.7.3c.1 0 .1.1.1.1l-1 5.1zm10 2.6c-.7-.8-.9-2-.3-2.9.9-2 2.7-2 4.5-1.2l2.7 1.2c.1 0 .1.1.1.2l-3.3 7.2c0 .1-.1.1-.2.1l-1.5-.7c-.1 0-.1-.1-.1-.2l.9-2-1.1-.5-2.2 1.5h-.1l-1.7-.8c-.1 0-.1-.1 0-.2-.1-.1 2.3-1.7 2.3-1.7zm-20.1-1.5l2.3-.1-.4-4.9-1.8.1c.2 1.6.2 3.3-.1 4.9zm23.5 1.6l1-2.3-1.1-.5c-.8-.3-1.5-.3-1.9.6s.2 1.4 1 1.8l1 .4z"/>
</svg>
