<?xml version="1.0" encoding="utf-8"?>
<!-- Generator: Adobe Illustrator 21.0.0, SVG Export Plug-In . SVG Version: 6.00 Build 0)  -->
<svg version="1.1" id="Layer_1" xmlns="http://www.w3.org/2000/svg" xmlns:xlink="http://www.w3.org/1999/xlink" x="0px" y="0px"
	 viewBox="0 0 167 161.1" style="enable-background:new 0 0 167 161.1;" xml:space="preserve">
<style type="text/css">
	.st0{fill:#FFFFFF;}
</style>
<title>logo-aside</title>
<path class="st0" d="M16.9,82.4c-0.9,0.4-1.7,0.5-2-0.2c-0.8-1.8-1-4.5,0.9-5.7c2.6-1.9,4.9-4,7-6.5c1.6-1.7,2.9-3.6,4.1-5.7
	c5.3-10-12.7-5-15.9,6.8c-0.2,0.9-0.7,2.2-1.9,1.8c-2.3-0.7-3.2-3.4-3.4-5.5c-0.2-1.7,0.1-3.4,0.7-5c2.1-5.3,8.1-9,13.4-10.3
	c3.6-0.9,8.1-1,11.5,0.8c7.4,4,2.6,12.8-1,17.7l-0.6,0.8c4,1.7,6.6,5.4,6.9,9.7c0.6,6.8-1.7,14.1-4.8,20c-2.5,4.9-6,9.3-10.2,12.9
	c-3.9,3.2-10.7,6.3-15.9,4.7c-4.6-1.4-6.4-6.1-5.4-10.6c2.3-10.3,16.7-18.4,26-21.7l0,0c1.1-0.1,0.9,1.9,0.2,3.7
	c-1,2.4-1.4,2.4-3.3,3.7c-4.7,3.1-13.6,9.8-14.3,13.7c-0.3,1.1,0.3,2.2,1.3,2.5c0.2,0.1,0.5,0.1,0.7,0.1c4.6,0.5,9.6-4.6,12.2-7.9
	c4.5-5.8,8.3-14,6.9-19.9C28.2,74.1,19.7,81,16.9,82.4L16.9,82.4z M131.4,72.3c-1.1,0.6-2.3,1-3.5,1.3c0,0.3,0,0.5-0.1,0.8
	c-0.2,2.4-0.9,4.7-2.1,6.7c-3.2,5.7-12.2,9.3-14.2,0.8c-0.3-1.3-0.4-2.6-0.2-3.9c-1.9,3.3-5,9.3-8.7,9.7c-2.6,0.3-4.2-1.2-4.8-3.6
	c-1.1,1.6-2.4,2.9-4,4c-5.1,3.3-9.5-0.1-9.6-5.7c-0.1-6.8,6.8-16.6,14.3-15c2.5,0.5,3.5,2.3,3.3,4.8c1.1-0.1,1.9,0.2,2.1,1.4
	c0,0,0,0.1,0,0.1c-0.8,1.5-1.3,3.2-1.4,5c-0.3,4.9,1,4.5,3.7,1.5c5.1-5.8,7.8-16.1,10.1-23.4c1.4-4.7,4.5-12.2,8.9-14.8
	c5.7-3.3,8.4-0.3,8.9,3.9c1.3,10-7.5,18.7-15.7,23c-0.5,1.7-0.8,3.5-0.9,5.3c-0.1,0.8-0.1,1.6-0.1,2.4c0.6,6.9,6,3.7,6.9-2.4
	c-0.9,0-1.8-0.4-2.4-1.2c-1.2-1.7-0.1-4.1,1.6-5.1c1.3-0.9,3.1-0.5,4,0.8c0.2,0.3,0.4,0.7,0.4,1.1c1.1,0.1,2.1,0,3.1-0.4
	c2.3-1.1,4-4.4,6.4-6.2c1.8-1.4,4-2.2,6.3-2.2c3.1,0.1,4.7,1.2,4.2,4.3h0.5c1.2-0.1,2.3,0.7,2.7,1.8c0,0,0,0.1,0,0.1
	c-1.5,1.7-2.4,6.2-2.1,8.3c1,6,6.8,5.7,10.6,1.4c2.4-2.8,3.2-6.6,2-10.1c0-0.1,0-0.2,0.1-0.2c0,0,0,0,0,0c4.3-0.7,5.9,2.2,5.3,6
	c-0.7,3.8-2.9,7.1-6.2,9.2c-2.9,1.9-6.6,2.9-10,1.9c-1.7-0.5-3.2-1.5-4.3-2.9c-0.8-1-1.4-2.1-1.8-3.3c-1.3,3.2-4.9,7.1-8.6,6.3
	c-4.1-0.8-5.5-5.4-5.3-9.2C130.9,73.9,131.1,73.1,131.4,72.3L131.4,72.3z M145.1,67.9c0.5-1.3,0.1-2.2-1.5-2c-2.6,0.4-5.2,4-5.9,6.2
	c-1.6,4.7,1.6,5.9,4.6,1.9C143.5,72.1,144.4,70,145.1,67.9L145.1,67.9z M64.4,88c-1.6,2.5-4.2,5.6-7.4,6c-2.6,0.3-4-1-4.7-3.4
	c-1.3,2-3.2,3.5-5.4,4.5c-3,1.3-6.5-0.1-7.7-3.1c0,0,0,0,0,0c-2.7-5.8,1.9-14.6,7.2-17.4c2.4-1.3,6.3-2.2,8.6-0.1
	c0.6,0.6,1,1.4,1.2,2.3c2.2-0.5,4.8,1.3,3.8,2.6c-1.3,1.6-2.3,3.5-2.9,5.5c-0.2,0.9-0.6,3.6,1,3.4c2.3-0.2,4.9-4,5.9-5.9
	c0.8-4.5,5.5-11.8,10.7-11.3c1.3,0.1,2.4,0.6,3.4,1.5c-1.5-4.6-6.4-5-10.3-6.4c-1.9-0.6-3.6-1.7-5-3.1c-3.7-4.2-0.7-9,3.4-11.4
	c4.5-2.7,11.1-3.5,15.3-3.7c5.6-0.3,19.3,0.3,21.7,6.2c0.8,2-0.1,4.1-1.2,5.8c-0.2,0.4-0.7,0.6-1.1,0.4c-0.1-0.1-0.3-0.2-0.3-0.3
	c-2-2.7-5-4.2-8.5-4.9c-6.4-1.2-12.9-1-19.2,0.7c-2,0.6-9.3,3.6-4.9,5.9c2.7,1.4,6.2,1.8,9,3c5.1,2.2,7,6.7,6.7,12
	c-0.3,3.1-1.4,6.1-3.1,8.8c-2.3,3.6-6.2,7.4-10.9,6.6C67.2,91.8,65.2,90.2,64.4,88z M77.4,79.5c-0.5,0.3-1.2,0.2-1.7-0.2
	c0,0-0.1-0.1-0.1-0.1c0.2-1,0.7-4.2-1.4-2.8c-1.6,1.1-3.3,5.3-3.4,7.2c-0.3,4.6,4.3,1.9,5.8-1.6C76.9,81.2,77.2,80.4,77.4,79.5
	L77.4,79.5z M51.9,83.1c-0.6,0.1-1.4-0.1-1.1-0.9c0.5-1.3,1.4-4.8-1.1-3.1c-1.9,1.2-4.1,5.6-3.8,7.8c0.4,3,3,1.8,4.4,0
	C51.1,85.7,51.6,84.5,51.9,83.1L51.9,83.1z M120.5,63c2.1-1.7,3.9-3.7,5.4-6c1.9-2.5,3.7-5.9,3.7-9.2c0-1.4-0.4-2.2-1.4-1.2
	C124.3,50.9,122.5,57.5,120.5,63L120.5,63z M93.2,82.6c3.6,0.2,6-9.5,4.7-10.1c-0.8-0.2-1.7-0.1-2.4,0.4c-1.9,1.2-4.1,5.6-3.8,7.8
	C91.7,81.7,92.1,82.6,93.2,82.6L93.2,82.6z"/>
<path class="st0" d="M31.5,115.4c-1.2-1.4-1-3.5,0.5-4.7c1.4-1.2,3.5-1,4.7,0.5s1,3.5-0.5,4.7c-0.1,0.1-0.2,0.1-0.3,0.2
	C34.5,117.1,32.6,116.8,31.5,115.4z M58.8,23.4c1.6-0.6,3.4,0.2,4.1,1.9c0.8,1.5,0.2,3.3-1.2,4.1s-3.3,0.2-4.1-1.2
	c-0.1-0.1-0.1-0.3-0.2-0.5C56.6,26.1,57.2,24.2,58.8,23.4z M33.5,43.2c1.2-1.4,3.3-1.5,4.7-0.3c1.2,1.1,1.5,2.9,0.6,4.3
	c-1.2,1.4-3.3,1.5-4.7,0.3C32.8,46.4,32.6,44.6,33.5,43.2z M45,31.6c1.6-1,3.6-0.4,4.6,1.2c0.8,1.4,0.6,3.1-0.6,4.2
	c-1.6,1-3.6,0.4-4.6-1.2C43.6,34.4,43.8,32.6,45,31.6z M51.4,5.6c1.5-0.6,3,2.3,3.4,3.3s1.3,4.2-0.2,4.8s-3-2.3-3.4-3.3
	S49.9,6.2,51.4,5.6L51.4,5.6z M47.5,19.4c1.5-0.9,3.3,0.9,4,2.2s1.2,3.7-0.3,4.5s-3.3-0.9-4-2.2S46,20.2,47.5,19.4z M32.5,30.9
	c1.2-1.3,3.4-0.1,4.5,0.9s2.1,2.8,1.3,4.2c-0.1,0.1-0.1,0.2-0.2,0.2c-1.2,1.3-3.4,0.1-4.5-0.9s-2.1-2.8-1.3-4.2
	C32.4,31,32.4,31,32.5,30.9z M120.8,31.8c1.4,1.2,1.5,3.4,0.2,4.7c-1,1.1-2.7,1.4-4,0.7c-1.4-1.2-1.5-3.3-0.3-4.7
	C117.7,31.4,119.4,31.1,120.8,31.8L120.8,31.8z M106.8,23.6c1.5,0.8,2.1,2.8,1.3,4.3c-0.9,1.4-2.7,1.8-4.1,0.9
	c-1.4-0.9-1.8-2.7-0.9-4.1C103.7,23.4,105.4,22.9,106.8,23.6z M91.2,19.3c1.7,0.4,2.7,2.2,2.3,3.9c-0.5,1.6-2.2,2.4-3.8,1.9
	s-2.4-2.2-1.9-3.8C88.2,19.9,89.7,19,91.2,19.3z M74.5,19.4c1.7-0.2,3.3,1.1,3.5,2.8c0.4,1.6-0.6,3.2-2.2,3.6
	c-1.6,0.4-3.2-0.6-3.6-2.2c0-0.1-0.1-0.3-0.1-0.4C71.7,21.4,72.8,19.8,74.5,19.4L74.5,19.4z M64.5,12.3c1.7-0.4,3,1.7,3.4,3.1
	s0.3,3.9-1.4,4.3s-3-1.7-3.4-3.1S62.8,12.8,64.5,12.3z M83.2,10c1.8,0,2.5,2.4,2.5,3.8s-0.7,3.8-2.5,3.8s-2.5-2.4-2.5-3.8
	S81.4,10,83.2,10z M93.3,0c1.6,0.2,1.6,3.4,1.5,4.5S94,8.7,92.4,8.6S90.9,5.2,91,4.1S91.8-0.2,93.3,0z M72,0c1.5-0.2,2.3,3,2.5,4
	s0.2,4.3-1.3,4.5s-2.3-2.9-2.5-4S70.4,0.2,72,0z M101.2,12.4c1.7,0.5,1.7,3,1.2,4.4s-1.8,3.5-3.5,2.9s-1.7-3-1.2-4.4
	S99.5,11.9,101.2,12.4z M118.6,19.7c1.5,0.9,0.9,3.3,0.2,4.5s-2.5,3-4,2.1s-0.9-3.3-0.2-4.5S117.1,18.8,118.6,19.7L118.6,19.7z
	 M133.2,31.2c1.3,1.2,0.2,3.4-0.8,4.5s-3.1,2.3-4.5,1.2s-0.2-3.4,0.8-4.5C129.7,31.3,131.9,30,133.2,31.2L133.2,31.2z M145,47.1
	c0.8,1.5-0.9,3.3-2.2,4s-3.7,1.2-4.5-0.3s0.9-3.3,2.2-4S144.1,45.6,145,47.1z M114,5.6c1.5,0.6,0.6,3.7,0.3,4.7s-1.9,3.9-3.3,3.3
	s-0.6-3.7-0.3-4.7S112.5,5,114,5.6z M132.7,16.5c0.6,0.4,0.5,1.3,0.4,1.9c-0.2,1-0.7,1.9-1.3,2.8c-0.6,0.9-2.7,3.3-4,2.5
	c-0.6-0.4-0.5-1.3-0.4-1.9c0.2-1,0.6-1.9,1.2-2.8C129.3,18.1,131.4,15.7,132.7,16.5L132.7,16.5z M148,32.1c1,1.2-1.3,3.5-2.2,4.2
	s-3.6,2.4-4.6,1.2s1.3-3.5,2.2-4.2S147,30.9,148,32.1z M159.1,52.7c0.6,1.5-2.3,3-3.3,3.4s-4.1,1.2-4.7-0.2s2.3-3,3.3-3.4
	S158.5,51.3,159.1,52.7z M33.2,16.1c1.3-0.9,3.4,1.5,4.1,2.4s2.2,3.7,0.9,4.6s-3.4-1.5-4.1-2.4S31.9,17,33.2,16.1z M19.2,29.9
	c1-1.2,3.7,0.5,4.5,1.2s3.1,3,2.1,4.2s-3.7-0.5-4.6-1.2S18.2,31.1,19.2,29.9L19.2,29.9z M10.3,44c0.4-1.5,3.6-1,4.7-0.7s4,1.5,3.6,3
	s-3.6,1-4.7,0.7S9.9,45.5,10.3,44L10.3,44z M1.5,84.3c0-1.4,1.9-2.1,3-2.2s3.1,0.2,3.1,1.6s-1.9,2.1-3,2.2S1.5,85.7,1.5,84.3z
	 M56.4,136.3c-1.8-0.6-2.8-2.4-2.2-4.2c0.6-1.8,2.4-2.8,4.2-2.2c1.8,0.6,2.8,2.4,2.2,4.2c0,0.1-0.1,0.2-0.1,0.3
	C59.9,136.1,58.1,136.9,56.4,136.3z M73.1,134.5c1.8,0.2,3.2,1.8,3.1,3.6c-0.2,1.8-1.8,3.2-3.6,3.1c-1.8-0.2-3.2-1.8-3.1-3.6
	c0-0.1,0-0.2,0-0.4C69.8,135.5,71.4,134.3,73.1,134.5z M87.6,135.1c1.8-0.4,3.6,0.8,4,2.6s-0.8,3.6-2.6,4c-1.8,0.4-3.6-0.8-4-2.6
	c0-0.1,0-0.2-0.1-0.3C84.7,137,85.9,135.4,87.6,135.1L87.6,135.1z M101.4,132c1.7-0.8,3.7-0.1,4.5,1.5c0.8,1.7,0.1,3.7-1.5,4.5
	c-1.7,0.8-3.7,0.1-4.5-1.5c-0.1-0.1-0.1-0.2-0.1-0.3C99.1,134.5,99.8,132.6,101.4,132z M114.6,125c1.4-1.2,3.5-1.1,4.7,0.3
	c1.2,1.4,1.1,3.5-0.3,4.7c-1.4,1.2-3.5,1.1-4.7-0.3c-0.1-0.1-0.2-0.2-0.2-0.3C113,128,113.2,126,114.6,125z M125.2,115
	c1-1.6,3-2.1,4.6-1.1c1.6,1,2.1,3,1.1,4.6c-1,1.6-3,2.1-4.6,1.1c-0.1-0.1-0.2-0.1-0.3-0.2C124.6,118.4,124.2,116.4,125.2,115z
	 M132.7,102.9c0.6-1.8,2.5-2.7,4.2-2.2c1.8,0.6,2.7,2.5,2.2,4.2c-0.6,1.8-2.5,2.7-4.2,2.2c-0.1,0-0.2-0.1-0.3-0.1
	C132.9,106.3,132.1,104.5,132.7,102.9z M136.8,90c0.2-1.8,1.8-3.2,3.6-3c1.8,0.2,3.2,1.8,3,3.6c-0.2,1.8-1.8,3.2-3.6,3
	c-0.1,0-0.2,0-0.4-0.1C137.8,93.3,136.6,91.7,136.8,90z M63.3,140.2c1.7,0.5,1.6,3,1.2,4.4s-1.8,3.5-3.5,2.9s-1.7-3-1.2-4.4
	S61.5,139.7,63.3,140.2L63.3,140.2z M79.6,143.1c1.8,0.1,2.4,2.5,2.3,3.9s-0.8,3.8-2.6,3.7s-2.4-2.5-2.3-3.9S77.9,143,79.6,143.1
	L79.6,143.1z M96.2,141.6c1.7-0.4,2.9,1.8,3.3,3.2s0.2,3.9-1.5,4.3s-2.9-1.8-3.3-3.2S94.5,142,96.2,141.6z M111.7,135.9
	c1.5-0.9,3.3,0.9,4,2.1s1.3,3.7-0.3,4.5s-3.3-0.9-4-2.1S110.2,136.8,111.7,135.9z M125.6,126c0.1-0.1,0.2-0.1,0.2-0.2
	c1.3-0.9,3.2,0.3,4.2,1.2c0.9,1,2.1,3.2,0.9,4.5c-0.1,0.1-0.2,0.1-0.2,0.2c-1.3,0.9-3.2-0.3-4.2-1.2S124.3,127.2,125.6,126
	L125.6,126z M136.3,112.8c0.9-1.5,3.3-0.8,4.5-0.1s2.9,2.6,1.9,4.1s-3.3,0.8-4.5,0.1S135.3,114.3,136.3,112.8z M142.8,98
	c0.5-1.7,3-1.6,4.4-1.2s3.4,1.8,2.9,3.5s-3,1.6-4.4,1.2S142.3,99.7,142.8,98z M70,151.8c1.5,0.3,1.4,3.5,1.2,4.6s-1.1,4.2-2.6,3.9
	s-1.4-3.5-1.2-4.6S68.5,151.5,70,151.8L70,151.8z M89.4,152.5c1.6-0.1,2.2,3.1,2.3,4.1s0,4.3-1.6,4.4s-2.2-3.1-2.3-4.1
	S87.8,152.6,89.4,152.5z M107.5,148.4c1.5-0.5,2.9,2.4,3.2,3.4s1.1,4.2-0.4,4.7s-2.9-2.4-3.2-3.4S106,148.9,107.5,148.4L107.5,148.4
	z M124.8,139.2c1.3-0.9,3.4,1.6,4,2.4c0.6,0.8,1,1.8,1.3,2.8c0.1,0.6,0.2,1.5-0.4,1.9c-1.3,0.9-3.4-1.6-4-2.4
	c-0.6-0.8-1-1.8-1.3-2.8C124.2,140.5,124.2,139.6,124.8,139.2z M138.8,126c1-1.2,3.7,0.6,4.6,1.2s3.1,3,2.1,4.2s-3.7-0.6-4.6-1.2
	S137.8,127.2,138.8,126z M148.7,110c0.7-1.4,3.8-0.3,4.7,0.1s3.7,2.2,3.1,3.6s-3.7,0.3-4.7-0.1S148,111.4,148.7,110z M42.5,127.4
	c-1.5-1-1.9-3.1-0.9-4.7c1-1.5,3.1-1.9,4.7-0.9c1.5,1,1.9,3.1,0.9,4.7c-0.1,0.1-0.1,0.2-0.2,0.3C45.9,128.2,43.9,128.5,42.5,127.4z
	 M35.8,122.6c1.2,1.3-0.1,3.4-1.1,4.4s-3.3,2.1-4.5,0.8s0.1-3.4,1.1-4.4S34.6,121.3,35.8,122.6z M48.5,133.2
	c1.5,0.9,0.8,3.3,0.1,4.5s-2.6,2.9-4.1,1.9s-0.8-3.3-0.1-4.5S47,132.3,48.5,133.2z M51.7,146c1.4,0.6,0.5,3.7,0.1,4.7
	s-2,3.8-3.5,3.2s-0.5-3.7-0.1-4.7S50.2,145.4,51.7,146z M22.7,121.6c0.9,1.3-1.5,3.4-2.4,4.1s-3.7,2.2-4.6,0.9s1.5-3.4,2.4-4.1
	c0.8-0.6,1.8-1,2.7-1.3C21.4,121.1,22.3,121,22.7,121.6L22.7,121.6z M35.5,135.6c1.2,1-0.5,3.7-1.2,4.6s-3,3.1-4.2,2.2
	s0.5-3.7,1.2-4.6C32,136.9,34.3,134.6,35.5,135.6z M154.2,91.6c0.2-1.6,3.5-1.4,4.6-1.3s4.2,1,4,2.6s-3.5,1.4-4.6,1.3
	S154,93.1,154.2,91.6z"/>
<path class="st0" d="M67.6,105.8c0.8,0.2,1.3,0.8,1.4,1.6c0.2,1.8-1.4,2.5-2.9,2.6l-3.2,0.4c-0.1,0-0.1,0-0.1-0.1c0,0,0,0,0,0
	l-0.9-7.3c0-0.1,0-0.1,0.1-0.1c0,0,0,0,0,0l2.8-0.4c1.4-0.2,3.2,0,3.4,1.7C68.4,104.8,68.1,105.5,67.6,105.8L67.6,105.8z
	 M75.1,107.4l-2.7,0.3l-0.3,1.5c0,0.1-0.1,0.1-0.1,0.1l-1.6,0.2c-0.1,0-0.1,0-0.1-0.1c0,0,0,0,0,0l1.7-7.7c0-0.1,0.1-0.1,0.1-0.1
	l1.7-0.2c0.1,0,0.1,0,0.1,0.1l3.7,7c0,0.1,0,0.1-0.1,0.2c0,0,0,0,0,0l-1.7,0.2c-0.1,0-0.1,0-0.1-0.1L75.1,107.4L75.1,107.4z
	 M80.8,106.6l1.9-0.2l-0.8-5.9c0-0.1,0-0.1,0.1-0.1c0,0,0,0,0,0l1.6-0.2c0.1,0,0.1,0,0.1,0.1c0,0,0,0,0,0l0.8,5.9l1.9-0.2l-0.8-5.9
	c0-0.1,0-0.1,0.1-0.1c0,0,0,0,0,0l1.6-0.2c0.1,0,0.1,0,0.1,0.1l0.9,7.3c0,0.1,0,0.1-0.1,0.1c0,0,0,0,0,0l-8.9,1.1
	c-0.1,0-0.1,0-0.1-0.1c0,0,0,0,0,0l-0.9-7.3c0-0.1,0-0.1,0.1-0.1c0,0,0,0,0,0l1.6-0.2c0.1,0,0.1,0,0.1,0.1c0,0,0,0,0,0L80.8,106.6
	L80.8,106.6z M91.4,100.7l0.2,1.3l3-0.4c0.1,0,0.1,0,0.1,0.1c0,0,0,0,0,0l0.2,1.3c0,0.1,0,0.1-0.1,0.1c0,0,0,0,0,0l-3,0.4l0.2,1.7
	l3.6-0.5c0.1,0,0.1,0,0.1,0.1c0,0,0,0,0,0l0.2,1.3c0,0.1,0,0.1-0.1,0.1c0,0,0,0,0,0l-5.3,0.7c-0.1,0-0.1,0-0.1-0.1c0,0,0,0,0,0
	l-0.9-7.3c0-0.1,0-0.1,0.1-0.1c0,0,0,0,0,0l5.3-0.7c0.1,0,0.1,0,0.1,0.1c0,0,0,0,0,0l0.2,1.3c0,0.1,0,0.1-0.1,0.1c0,0,0,0,0,0
	L91.4,100.7L91.4,100.7z M98.6,99.8l0.8,5.9c0,0.1,0,0.1-0.1,0.1c0,0,0,0,0,0l-1.6,0.2c-0.1,0-0.1,0-0.1-0.1c0,0,0,0,0,0l-0.9-7.3
	c0-0.1-0.1-0.1,0-0.1l4.1-0.5c0.1,0,0.1,0,0.1,0.1c0,0,0,0,0,0l0.3,1.3c0,0.1,0,0.1-0.1,0.1c0,0,0,0,0,0L98.6,99.8L98.6,99.8z
	 M102.2,101.6c-0.3-2.4,0.9-4.1,3.3-4.4c2.2-0.4,4.2,1.1,4.6,3.2c0.4,2.2-1.1,4.2-3.2,4.6c-2.2,0.4-4.2-1.1-4.6-3.2
	C102.2,101.8,102.2,101.7,102.2,101.6z M64.5,108.6l1.4-0.2c0.6-0.1,1.3-0.3,1.2-1s-1-0.7-1.5-0.6l-1.3,0.2L64.5,108.6L64.5,108.6z
	 M64.1,105.6l1-0.1c0.5-0.1,1.4-0.3,1.3-1S65.5,104,65,104l-1.1,0.1L64.1,105.6L64.1,105.6z M72.7,106.1l1.6-0.2l-1.1-2.4
	L72.7,106.1L72.7,106.1z M104.1,101.4c0.2,1.2,1,2.4,2.3,2.2s1.8-1.5,1.7-2.7s-0.9-2.3-2.3-2.1c-1.1,0.2-1.9,1.2-1.7,2.4
	C104.1,101.2,104.1,101.3,104.1,101.4L104.1,101.4z"/>
<path class="st0" d="M53.6,109.5l-2.1-2.3l-4.7,4.3c-0.1,0-0.1,0-0.2,0l-1.1-1.3c0-0.1,0-0.1,0-0.2l5.8-5.3c0.1,0,0.1,0,0.2,0l4.5,5
	c0,0.1,0,0.1,0,0.2l-5.8,5.3c-0.1,0-0.1,0-0.2,0l-1.1-1.3c0-0.1,0-0.1,0-0.2L53.6,109.5L53.6,109.5z M56.9,117.4l-1.2,1.8
	c-0.1,0-0.1,0-0.2,0l-1.4-0.9c0-0.1,0-0.1,0-0.2l4.4-6.6c0.1,0,0.1,0,0.2,0l2.4,1.6c1.7,1.1,2.7,2.6,1.4,4.4s-3,1.6-4.7,0.5
	L56.9,117.4L56.9,117.4z M67.8,123.6l-2.7-1l-1,1.3c0,0-0.1,0-0.2,0l-1.7-0.6c-0.1,0-0.1-0.1-0.1-0.2c0,0,0,0,0,0l5.5-6.4
	c0,0,0.1,0,0.2,0l1.7,0.6c0.1,0,0.1,0.1,0.1,0.1v8.4c0,0.1-0.1,0.1-0.1,0.1c0,0,0,0,0,0l-1.7-0.6c-0.1,0-0.1-0.1-0.1-0.1L67.8,123.6
	L67.8,123.6z M79.8,123.4c0.8,0.3,1.3,1.1,1.2,1.9c-0.2,1.9-2.3,2.4-3.9,2.3c-1.8-0.2-3.7-1-3.5-3.1c0-0.1,0.1-0.1,0.2-0.1l1.8,0.2
	c0.1,0,0.1,0.1,0.1,0.2c-0.1,0.9,0.8,1.2,1.6,1.3s1.6,0,1.7-0.9s-1-0.9-1.6-0.9l-0.7-0.1c-0.1,0-0.1-0.1-0.1-0.2l0.1-1.4
	c0-0.1,0.1-0.1,0.2-0.1h0.5c0.6,0,1.4,0.1,1.5-0.7s-0.8-1-1.4-1s-1.4,0.2-1.4,1c0,0.1-0.1,0.1-0.2,0.1l-1.8-0.2
	c-0.1,0-0.1-0.1-0.1-0.2c0.1-0.7,0.4-1.3,1-1.8c0.8-0.6,1.7-0.8,2.6-0.7c1,0,1.9,0.4,2.6,1c0.5,0.4,0.7,1.1,0.7,1.7
	C81,122.5,80.5,123.2,79.8,123.4L79.8,123.4z M85.3,126c0.2-1.3,0.2-2.6,0-3.9l-0.3-2.5c0-0.1,0-0.1,0.1-0.2l5.6-0.6
	c0.1,0,0.1,0,0.2,0.1l0.7,6.3l0.8-0.1c0.1,0,0.1,0,0.2,0.1l0.2,1.5l-8.2,0.9l-0.1-1.5c0-0.1,0-0.1,0.1-0.2L85.3,126L85.3,126z
	 M96.8,120.2l3-1.1l-1-2.7c0-0.1,0-0.2,0.1-0.2l1.6-0.6c0.1,0,0.2,0,0.2,0.1l2.8,7.4c0,0.1,0,0.2-0.1,0.2l-1.6,0.6
	c-0.1,0-0.2,0-0.2-0.1l-1.2-3.1l-3,1.1l1.2,3.1c0,0.1,0,0.2-0.1,0.2l-1.6,0.6c-0.1,0-0.2,0-0.2-0.1l-2.8-7.4c0-0.1,0-0.2,0.1-0.2
	l1.6-0.6c0.1,0,0.2,0,0.2,0.1L96.8,120.2z M107.6,117.3l-0.2-6.1c0,0,0-0.1,0.1-0.1l1.6-1.1c0.1,0,0.1,0,0.2,0l4.4,6.5
	c0,0.1,0,0.1,0,0.2l-1.4,1c-0.1,0-0.1,0-0.2,0l-2.9-4.2l0.2,6.1c0,0,0,0.1-0.1,0.1l-1.6,1.1c-0.1,0-0.1,0-0.2,0l-4.4-6.5
	c0-0.1,0-0.1,0-0.2l1.4-1c0.1,0,0.1,0,0.2,0L107.6,117.3z M114.6,108.4l0.2-0.3l-0.8-3.8c0,0,0-0.1,0-0.1l1.2-1.5
	c0.1-0.1,0.1-0.1,0.2,0c0,0,0,0,0,0.1l0.9,4.7h5.2c0.1,0,0.1,0.1,0.1,0.2c0,0,0,0,0,0.1l-1.3,1.6c0,0-0.1,0.1-0.1,0.1l-4.4-0.1
	l-0.1,0.1l2.6,2.1c0,0.1,0,0.1,0,0.2l-1.1,1.3c-0.1,0-0.1,0-0.2,0l-6.1-5c0-0.1,0-0.1,0-0.2l1.1-1.3c0.1,0,0.1,0,0.2,0L114.6,108.4
	L114.6,108.4z M124.8,99.2l-1.2,2.6l1.2,1.1c0,0,0,0.1,0,0.2l-0.7,1.6c0,0.1-0.1,0.1-0.2,0c0,0,0,0,0,0l-6-6c0,0,0-0.1,0-0.2
	l0.8-1.7c0-0.1,0.1-0.1,0.1-0.1l8.4,0.7c0.1,0,0.1,0.1,0.1,0.2c0,0,0,0,0,0l-0.8,1.6c0,0.1-0.1,0.1-0.1,0.1L124.8,99.2L124.8,99.2z
	 M57.8,116l1,0.7c0.8,0.5,1.4,0.5,2-0.3s0-1.4-0.7-1.9l-0.9-0.6L57.8,116L57.8,116z M66.2,121.3l1.7,0.6l0.1-2.8L66.2,121.3z
	 M87.3,125.8l2.4-0.3l-0.5-4.8l-2,0.2l0.1,1.3C87.5,123.4,87.4,124.6,87.3,125.8L87.3,125.8z M122.3,100.6l0.7-1.6l-2.8-0.3
	L122.3,100.6L122.3,100.6z"/>
<path class="st0" d="M49.3,52c-1.7-1.9-1.6-4.1,0.3-5.8C51,45,53,44.5,54.3,46c0,0,0,0.1,0,0.2c0,0,0,0,0,0L53,47.3c0,0-0.1,0-0.2,0
	c0,0,0,0,0,0c-0.6-0.6-1.5-0.5-2,0c0,0,0,0.1-0.1,0.1c-1.1,1-0.8,2.2,0.1,3.2s2.2,1.7,3.3,0.7c0.7-0.5,0.8-1.4,0.4-2.1c0,0,0,0,0,0
	c0,0,0-0.1,0-0.2c0,0,0,0,0,0l1.3-1.1c0,0,0.1,0,0.2,0c0,0,0,0,0,0c0.5,0.6,0.8,1.3,0.7,2.1c-0.1,1-0.6,1.9-1.4,2.5
	C53.2,54.2,51,53.8,49.3,52L49.3,52z M60,41.1l3.2,5.5c0,0,0,0.1,0,0.2c0,0,0,0,0,0l-1.5,0.8c0,0-0.1,0-0.2,0c0,0,0,0,0,0L58.3,42
	l-1.9,1.1c0,0-0.1,0-0.2,0c0,0,0,0,0,0l-0.7-1.2c0,0,0-0.1,0-0.2c0,0,0,0,0,0l5.5-3.2c0,0,0.1,0,0.2,0c0,0,0,0,0,0l0.8,1.3
	c0,0,0,0.1,0,0.2c0,0,0,0,0,0L60,41.1z M69.7,39.5l0.4-4.3c0,0,0-0.1,0.1-0.1l1.8-0.6c0.1,0,0.1,0,0.2,0.1c0,0,0,0,0,0.1l-0.9,6.4
	c-0.1,1.3-0.9,2.5-2.1,3l-0.5,0.2c-0.1,0-0.1,0-0.2-0.1c0,0,0,0,0,0L68,42.8c0-0.1,0-0.1,0.1-0.2c0,0,0,0,0,0l0.5-0.2
	c0.4-0.1,0.7-0.5,0.8-0.9l-4.9-4.2c-0.1,0-0.1-0.1,0-0.2c0,0,0,0,0,0l1.7-0.6c0,0,0.1,0,0.1,0L69.7,39.5L69.7,39.5z M76.9,40.4
	c0.5-1.9,0.1-4.4,0-6.4c0-0.1,0-0.1,0.1-0.1c0,0,0,0,0,0l5.4-0.4c0.1,0,0.1,0,0.1,0.1c0,0,0,0,0,0l0.5,6.4l1.1-0.1
	c0.1,0,0.1,0,0.1,0.1c0,0,0,0,0,0l0.1,1.4c0,0.1,0,0.1-0.1,0.1c0,0,0,0,0,0L76,42.2c-0.1,0-0.1,0-0.1-0.1c0,0,0,0,0,0l-0.1-1.5
	c0-0.1,0-0.1,0.1-0.1c0,0,0,0,0,0L76.9,40.4L76.9,40.4z M89,39.2l4.1-4.5c0,0,0.1,0,0.1,0l1.9,0.3c0.1,0,0.1,0.1,0.1,0.1
	c0,0,0,0,0,0l-1.4,7.7c0,0.1-0.1,0.1-0.1,0.1c0,0,0,0,0,0l-1.7-0.3c-0.1,0-0.1-0.1-0.1-0.1c0,0,0,0,0,0l0.9-5L88.8,42
	c0,0-0.1,0-0.1,0l-1.9-0.3c-0.1,0-0.1-0.1-0.1-0.1c0,0,0,0,0,0l1.4-7.8c0-0.1,0.1-0.1,0.1-0.1c0,0,0,0,0,0l1.7,0.3
	c0.1,0,0.1,0.1,0.1,0.1c0,0,0,0,0,0L89,39.2L89,39.2z M99,41.8c-0.7-0.8-0.9-2-0.3-2.9c0.9-2,2.7-2,4.5-1.2l2.7,1.2
	c0.1,0,0.1,0.1,0.1,0.2c0,0,0,0,0,0l-3.3,7.2c0,0.1-0.1,0.1-0.2,0.1c0,0,0,0,0,0l-1.5-0.7c-0.1,0-0.1-0.1-0.1-0.2c0,0,0,0,0,0l0.9-2
	l-1.1-0.5l-2.2,1.5c0,0-0.1,0-0.1,0l-1.7-0.8c-0.1,0-0.1-0.1,0-0.2c0,0,0,0,0,0C96.6,43.4,99,41.8,99,41.8z M78.9,40.3l2.3-0.1
	l-0.4-4.9L79,35.4C79.2,37,79.2,38.7,78.9,40.3L78.9,40.3z M102.4,41.9l1-2.3l-1.1-0.5c-0.8-0.3-1.5-0.3-1.9,0.6s0.2,1.4,1,1.8
	C101.4,41.5,102.4,41.9,102.4,41.9z"/>
</svg>
