<svg id="Layer_1" data-name="Layer 1" xmlns="http://www.w3.org/2000/svg" width="167" height="161.07" viewBox="0 0 167 161.07"><defs><style>.cls-1{fill:#fff;fill-rule:evenodd;}</style></defs><title>logo-aside</title><path class="cls-1" d="M16.85,82.37c-.9.43-1.69.53-2-.2-.76-1.84-1-4.48.86-5.7A37.6,37.6,0,0,0,22.67,70a31.48,31.48,0,0,0,4.1-5.69c5.27-10-12.67-5-15.88,6.77-.24.87-.71,2.19-1.88,1.84-2.25-.67-3.2-3.44-3.4-5.54a10.7,10.7,0,0,1,.72-5c2.09-5.26,8.08-9,13.38-10.33,3.63-.91,8.14-1,11.51.82,7.38,4,2.62,12.77-1,17.66l-.57.75A11.21,11.21,0,0,1,36.51,81c.61,6.76-1.67,14.12-4.8,20a42.62,42.62,0,0,1-10.2,12.87c-3.86,3.18-10.71,6.34-15.86,4.7C1,117.15-.72,112.52.27,108,2.53,97.65,17,89.55,26.25,86.28h0c1.13-.07.85,1.9.17,3.66-1,2.45-1.38,2.39-3.32,3.67-4.7,3.09-13.57,9.82-14.3,13.65a2,2,0,0,0,2,2.59c4.61.52,9.57-4.58,12.2-7.95,4.53-5.82,8.32-14,6.9-19.89-1.66-7.89-10.2-1-13.12.36ZM131.42,72.29a12.49,12.49,0,0,1-3.51,1.29q0,.41-.05.81a15.91,15.91,0,0,1-2.14,6.73c-3.24,5.72-12.21,9.35-14.2.81a11.94,11.94,0,0,1-.21-3.94c-1.87,3.33-5,9.27-8.72,9.68-2.63.29-4.22-1.24-4.85-3.62a15.18,15.18,0,0,1-4,4c-5.06,3.29-9.53-.14-9.63-5.73-.13-6.85,6.77-16.6,14.32-15,2.52.54,3.49,2.33,3.27,4.76,1.09-.14,1.91.19,2.1,1.44a.13.13,0,0,1,0,.1,11.27,11.27,0,0,0-1.4,5c-.32,4.87,1,4.53,3.71,1.48,5.12-5.78,7.85-16.12,10.06-23.38,1.42-4.66,4.5-12.24,8.88-14.77,5.74-3.32,8.35-.29,8.89,3.94,1.28,10-7.53,18.72-15.67,23a24.28,24.28,0,0,0-.88,5.31,12.67,12.67,0,0,0-.06,2.4c.58,6.87,6,3.7,6.91-2.44A3.14,3.14,0,0,1,121.84,73c-1.2-1.72-.06-4.11,1.55-5.12a2.91,2.91,0,0,1,4.48,1.93,5.81,5.81,0,0,0,3.1-.43c2.32-1.09,4-4.41,6.43-6.22A10.43,10.43,0,0,1,143.74,61c3.12.06,4.7,1.24,4.19,4.34l.48,0a2.5,2.5,0,0,1,2.66,1.83.13.13,0,0,1,0,.12c-1.46,1.68-2.44,6.15-2.1,8.32,1,6,6.82,5.72,10.59,1.37a10.19,10.19,0,0,0,2-10.09.14.14,0,0,1,.1-.18c4.33-.74,5.88,2.15,5.25,6a13.91,13.91,0,0,1-6.16,9.24c-2.88,1.91-6.63,2.93-10,1.91A8.65,8.65,0,0,1,146.46,81a11.11,11.11,0,0,1-1.81-3.25c-1.3,3.18-4.86,7.08-8.56,6.31-4.1-.85-5.53-5.39-5.27-9.24a6.91,6.91,0,0,1,.6-2.57Zm13.67-4.39c.48-1.26.08-2.24-1.51-2-2.58.41-5.16,4-5.86,6.15-1.55,4.73,1.56,5.94,4.59,1.9a24.19,24.19,0,0,0,2.77-6.06ZM64.41,88c-1.64,2.54-4.23,5.64-7.36,6-2.62.29-4-1-4.67-3.38A12.54,12.54,0,0,1,47,95.13,5.89,5.89,0,0,1,39.24,92c-2.71-5.79,1.89-14.55,7.16-17.4,2.39-1.29,6.32-2.23,8.56-.14a4,4,0,0,1,1.19,2.25C58.32,76.16,61,78,60,79.29a15.5,15.5,0,0,0-2.89,5.54c-.2.9-.58,3.56,1,3.4C60.44,88,63,84.2,64,82.3,64.82,77.82,69.54,70.53,74.7,71a5.83,5.83,0,0,1,3.37,1.49c-1.5-4.58-6.37-5-10.33-6.36a11.91,11.91,0,0,1-5-3.09C59,58.88,62,54,66.1,51.65,70.62,49,77.15,48.19,81.35,48c5.64-.3,19.28.32,21.66,6.18.82,2-.07,4.1-1.22,5.76a.81.81,0,0,1-1.42.07c-2-2.69-5-4.16-8.48-4.92a43.32,43.32,0,0,0-19.15.7c-2,.62-9.27,3.59-4.95,5.89,2.65,1.42,6.15,1.75,9,3,5.09,2.2,7,6.71,6.67,12a20.13,20.13,0,0,1-3.11,8.76c-2.28,3.64-6.19,7.45-10.87,6.63A6.13,6.13,0,0,1,64.41,88Zm12.94-8.49a1.56,1.56,0,0,1-1.67-.2.13.13,0,0,1-.06-.14c.19-1,.67-4.17-1.36-2.76-1.57,1.1-3.31,5.27-3.44,7.15-.31,4.63,4.28,1.93,5.76-1.56a13.55,13.55,0,0,0,.76-2.5ZM51.92,83.11c-.61.06-1.44-.1-1.09-.91.54-1.25,1.43-4.78-1.13-3.14-1.9,1.22-4.07,5.55-3.8,7.81.36,3,3.05,1.79,4.42,0a10,10,0,0,0,1.6-3.74Zm68.54-20.16a25.9,25.9,0,0,0,5.42-6c1.88-2.54,3.68-5.92,3.66-9.19,0-1.36-.37-2.19-1.41-1.16-3.85,4.33-5.59,10.91-7.67,16.33ZM93.15,82.63c3.6.17,6-9.48,4.66-10.07a2.9,2.9,0,0,0-2.43.41c-1.9,1.22-4.07,5.55-3.8,7.81.1.89.57,1.79,1.57,1.84Z"/><path class="cls-1" d="M31.52,115.42a3.35,3.35,0,1,1,4.42.69,3.18,3.18,0,0,1-4.42-.69Zm27.26-92a3.18,3.18,0,0,1,4.06,1.87,3,3,0,1,1-5.49,2.37,3.18,3.18,0,0,1,1.43-4.24ZM33.45,43.16a3.35,3.35,0,0,1,5.35,4,3.35,3.35,0,0,1-5.35-4ZM45,31.56a3.35,3.35,0,0,1,4,5.33,3.35,3.35,0,0,1-4-5.33Zm6.36-26c1.45-.58,3,2.28,3.39,3.27S56,13,54.57,13.58s-3-2.28-3.39-3.27-1.27-4.13.18-4.71ZM47.49,19.36c1.54-.85,3.31.93,4,2.16s1.22,3.68-.32,4.53-3.31-.92-4-2.16-1.22-3.68.32-4.53Zm-15,11.53c1.22-1.27,3.44-.11,4.46.87s2.11,2.84,1.25,4.17a1.65,1.65,0,0,1-.19.24c-1.22,1.27-3.44.11-4.46-.87s-2.11-2.84-1.25-4.17a1.61,1.61,0,0,1,.19-.24Zm88.28.95A3.35,3.35,0,0,1,117,37.31a3.35,3.35,0,0,1,3.79-5.47Zm-14-8.25a3.18,3.18,0,0,1,1.25,4.3,3,3,0,1,1-1.25-4.3ZM91.16,19.3a3.18,3.18,0,0,1,2.26,3.86,3,3,0,1,1-2.26-3.86Zm-16.62.1A3.18,3.18,0,0,1,78,22.22a3,3,0,1,1-5.91.93,3.18,3.18,0,0,1,2.44-3.75Zm-10-7.09c1.7-.45,3,1.69,3.36,3.06s.31,3.87-1.39,4.32-3-1.69-3.36-3.06-.31-3.87,1.39-4.32ZM83.18,10c1.76,0,2.46,2.4,2.46,3.82s-.7,3.82-2.46,3.82-2.46-2.4-2.46-3.82S81.42,10,83.18,10ZM93.35,0c1.55.17,1.57,3.42,1.46,4.48S94,8.73,92.44,8.56,90.87,5.15,91,4.08,91.8-.16,93.35,0ZM72,0C73.53-.2,74.34,3,74.48,4s.23,4.31-1.31,4.53-2.35-2.93-2.5-4S70.43.23,72,0Zm29.23,12.39c1.68.51,1.65,3,1.24,4.37s-1.78,3.45-3.46,2.94-1.65-3-1.24-4.37,1.78-3.45,3.46-2.94Zm17.35,7.31c1.52.88.92,3.32.2,4.54s-2.52,2.95-4,2.06-.92-3.31-.2-4.53,2.52-2.95,4-2.06Zm14.66,11.5c1.3,1.19.18,3.43-.77,4.47S129.34,38,128,36.83s-.18-3.43.77-4.47,3.1-2.34,4.39-1.15Zm11.73,15.93c.84,1.54-.94,3.31-2.18,4s-3.69,1.21-4.53-.33.94-3.31,2.18-4,3.69-1.21,4.53.33ZM114,5.55c1.46.56.64,3.71.25,4.71s-1.88,3.89-3.34,3.33-.64-3.71-.25-4.71S112.54,5,114,5.55Zm18.73,11c.58.4.53,1.28.41,1.88a7.93,7.93,0,0,1-1.26,2.76c-.61.89-2.74,3.34-4,2.45-.58-.4-.53-1.28-.41-1.88A7.92,7.92,0,0,1,128.7,19c.61-.89,2.74-3.34,4-2.45ZM148,32.14c1,1.23-1.34,3.51-2.18,4.18s-3.6,2.38-4.57,1.16,1.34-3.51,2.18-4.18,3.6-2.38,4.57-1.16Zm11.1,20.57c.57,1.46-2.31,3-3.31,3.36s-4.14,1.23-4.71-.23,2.31-3,3.31-3.36,4.14-1.23,4.71.23ZM33.21,16.14c1.27-.91,3.44,1.51,4.07,2.39s2.2,3.72.93,4.62-3.44-1.51-4.07-2.39-2.2-3.72-.93-4.62Zm-14,13.77c1-1.21,3.72.55,4.55,1.22s3.11,3,2.12,4.21-3.72-.55-4.56-1.22-3.11-3-2.12-4.21ZM10.25,44c.42-1.5,3.63-1,4.67-.68s4,1.52,3.62,3-3.63,1-4.66.69-4-1.52-3.62-3ZM1.52,84.28c0-1.38,1.9-2.11,3-2.24s3.09.18,3.12,1.6-1.9,2.12-3,2.24-3.09-.18-3.12-1.6Zm54.91,52a3.35,3.35,0,1,1,4.07-1.86,3.18,3.18,0,0,1-4.07,1.86Zm16.65-1.74a3.35,3.35,0,1,1-3.57,2.7,3.18,3.18,0,0,1,3.57-2.7Zm14.56.54A3.35,3.35,0,1,1,85,138.73a3.19,3.19,0,0,1,2.64-3.61Zm13.8-3.12a3.35,3.35,0,1,1-1.68,4.15,3.18,3.18,0,0,1,1.68-4.15Zm13.12-7a3.35,3.35,0,1,1-.53,4.44,3.19,3.19,0,0,1,.53-4.44Zm10.66-10a3.35,3.35,0,1,1,.8,4.4,3.18,3.18,0,0,1-.8-4.4Zm7.5-12.08a3.35,3.35,0,1,1,1.83,4.09,3.18,3.18,0,0,1-1.83-4.09ZM136.83,90a3.35,3.35,0,1,1,2.67,3.59A3.18,3.18,0,0,1,136.83,90ZM63.27,140.18c1.68.51,1.65,3,1.24,4.37S62.73,148,61,147.48s-1.65-3-1.24-4.37,1.78-3.45,3.46-2.94Zm16.36,2.9c1.76.05,2.38,2.48,2.34,3.89s-.82,3.79-2.58,3.74-2.38-2.48-2.34-3.89.82-3.79,2.57-3.74Zm16.6-1.46c1.72-.39,2.93,1.8,3.25,3.17s.17,3.88-1.54,4.27-2.93-1.8-3.25-3.17-.17-3.88,1.54-4.27Zm15.5-5.7c1.54-.86,3.32.9,4,2.14s1.25,3.67-.29,4.53-3.32-.91-4-2.14-1.25-3.67.29-4.53ZM125.57,126a1.59,1.59,0,0,1,.24-.19c1.33-.86,3.24.26,4.18,1.23s2.15,3.23.88,4.45a1.67,1.67,0,0,1-.24.19c-1.33.86-3.24-.26-4.18-1.23s-2.15-3.23-.88-4.45Zm10.68-13.15c.93-1.49,3.34-.81,4.54-.06s2.87,2.61,1.94,4.11-3.34.81-4.54.06-2.87-2.61-1.94-4.11ZM142.84,98c.52-1.68,3-1.64,4.37-1.23s3.44,1.79,2.93,3.47-3,1.64-4.37,1.23-3.44-1.79-2.93-3.47ZM70,151.76c1.54.25,1.38,3.5,1.21,4.56s-1.05,4.19-2.6,3.94-1.38-3.5-1.2-4.56,1.05-4.19,2.6-3.94Zm19.37.73c1.56-.13,2.19,3.06,2.28,4.13s0,4.32-1.56,4.45-2.19-3.06-2.28-4.13,0-4.32,1.56-4.45Zm18.13-4.12c1.48-.52,2.89,2.41,3.24,3.43s1.08,4.18-.39,4.7-2.89-2.41-3.24-3.42-1.08-4.18.39-4.7Zm17.26-9.16c1.29-.89,3.41,1.56,4,2.45a7.94,7.94,0,0,1,1.26,2.76c.12.6.17,1.48-.41,1.88-1.29.88-3.41-1.57-4-2.45a7.91,7.91,0,0,1-1.26-2.76c-.12-.6-.17-1.48.41-1.88ZM138.83,126c1-1.21,3.72.55,4.55,1.23s3.11,3,2.12,4.21-3.72-.55-4.55-1.23-3.11-3-2.12-4.21ZM148.67,110c.67-1.41,3.75-.35,4.71.11s3.73,2.18,3.06,3.59-3.74.35-4.71-.11-3.73-2.18-3.06-3.59ZM42.53,127.45a3.35,3.35,0,1,1,4.43-.6,3.18,3.18,0,0,1-4.43.6Zm-6.69-4.88c1.2,1.28-.08,3.44-1.11,4.4s-3.26,2.1-4.47.81.08-3.44,1.11-4.4,3.26-2.1,4.47-.81Zm12.64,10.67c1.49.93.82,3.34.08,4.54s-2.61,2.87-4.1,1.95-.82-3.34-.08-4.54,2.61-2.87,4.1-1.95ZM51.7,146c1.44.62.49,3.73.07,4.71s-2,3.81-3.47,3.19-.49-3.73-.07-4.71,2-3.81,3.47-3.19Zm-29-24.39c.91,1.27-1.52,3.44-2.39,4.06s-3.72,2.2-4.62.93,1.52-3.44,2.39-4.06a7.94,7.94,0,0,1,2.74-1.3c.6-.13,1.48-.19,1.88.38Zm12.81,14c1.23,1-.49,3.73-1.16,4.57s-3,3.15-4.18,2.18.49-3.73,1.16-4.57,3-3.15,4.18-2.18Zm118.7-44.06c.24-1.55,3.49-1.41,4.55-1.25s4.2,1,4,2.56-3.49,1.41-4.55,1.25-4.2-1-4-2.56Z"/><path class="cls-1" d="M67.6,105.8A1.82,1.82,0,0,1,69,107.37c.22,1.75-1.41,2.46-2.88,2.64l-3.15.4a.13.13,0,0,1-.15-.11L61.88,103a.13.13,0,0,1,.11-.15l2.82-.36c1.37-.17,3.21,0,3.43,1.72a1.63,1.63,0,0,1-.65,1.63Zm7.5,1.56-2.67.34-.29,1.47a.13.13,0,0,1-.11.1l-1.63.21a.13.13,0,0,1-.14-.16L72,101.65a.13.13,0,0,1,.11-.1l1.72-.22a.13.13,0,0,1,.13.07l3.67,7a.13.13,0,0,1-.1.19l-1.68.21a.13.13,0,0,1-.13-.07l-.65-1.35Zm5.65-.76,1.86-.24-.75-5.91a.13.13,0,0,1,.11-.15l1.57-.2a.13.13,0,0,1,.15.11l.75,5.91,1.86-.24L85.53,100a.13.13,0,0,1,.11-.15l1.57-.2a.13.13,0,0,1,.14.11l.93,7.34a.13.13,0,0,1-.11.15l-8.94,1.14a.13.13,0,0,1-.15-.11l-.93-7.34a.13.13,0,0,1,.11-.15l1.57-.2a.13.13,0,0,1,.15.11l.75,5.91Zm10.61-5.88.16,1.25,3-.38a.13.13,0,0,1,.15.11l.17,1.3a.13.13,0,0,1-.11.15l-3,.38.21,1.67,3.61-.46a.13.13,0,0,1,.15.11l.17,1.3a.13.13,0,0,1-.11.15l-5.31.68a.13.13,0,0,1-.15-.11l-.93-7.34a.13.13,0,0,1,.11-.15l5.31-.68a.13.13,0,0,1,.15.11l.17,1.3a.13.13,0,0,1-.11.15l-3.61.46Zm7.22-.9.75,5.91a.13.13,0,0,1-.11.15l-1.57.2a.13.13,0,0,1-.15-.11l-.93-7.34c0-.07-.1-.13,0-.14l4.12-.52a.13.13,0,0,1,.15.11l.3,1.29a.13.13,0,0,1-.11.15l-2.42.31Zm3.62,1.78c-.31-2.4.89-4.1,3.28-4.4a4,4,0,1,1-3.28,4.4Zm-37.74,7,1.44-.18c.56-.07,1.27-.25,1.18-1s-1-.68-1.5-.61l-1.32.17.2,1.58Zm-.39-3,1-.13c.52-.07,1.38-.25,1.29-1S65.47,104,65,104l-1.11.14.19,1.45Zm8.67.48,1.63-.21-1.13-2.36-.5,2.56Zm31.39-4.72c.15,1.21,1,2.39,2.3,2.21s1.82-1.51,1.67-2.72-.94-2.27-2.28-2.1a2.08,2.08,0,0,0-1.69,2.6Z"/><path class="cls-1" d="M53.64,109.46l-2.06-2.26-4.71,4.29a.14.14,0,0,1-.19,0l-1.14-1.25a.14.14,0,0,1,0-.19l5.85-5.33a.14.14,0,0,1,.19,0l4.53,5a.14.14,0,0,1,0,.19l-5.85,5.33a.14.14,0,0,1-.19,0l-1.14-1.25a.14.14,0,0,1,0-.19l4.71-4.29Zm3.25,7.92-1.22,1.83a.14.14,0,0,1-.19,0l-1.41-.94a.14.14,0,0,1,0-.19l4.39-6.58a.14.14,0,0,1,.19,0L61,113.12c1.65,1.1,2.66,2.56,1.43,4.41s-3,1.57-4.68.46l-.91-.61Zm10.9,6.25-2.7-1-1,1.25a.13.13,0,0,1-.15,0l-1.65-.61a.14.14,0,0,1-.06-.22l5.46-6.42a.13.13,0,0,1,.15,0l1.74.64a.13.13,0,0,1,.09.13l0,8.44a.14.14,0,0,1-.18.13l-1.7-.62a.13.13,0,0,1-.09-.13l.05-1.6Zm12-.27A1.87,1.87,0,0,1,81,125.28c-.16,1.92-2.26,2.41-3.86,2.27-1.8-.15-3.67-1-3.49-3.11a.14.14,0,0,1,.15-.12l1.76.15a.14.14,0,0,1,.12.15c-.08.93.85,1.2,1.61,1.27s1.62,0,1.7-.89-1-.89-1.55-.94l-.69-.06a.14.14,0,0,1-.12-.15l.12-1.39a.14.14,0,0,1,.15-.12l.5,0c.57,0,1.45.11,1.51-.65s-.83-1-1.4-1-1.36.22-1.42,1a.14.14,0,0,1-.15.12l-1.76-.15a.14.14,0,0,1-.12-.15,2.59,2.59,0,0,1,1-1.77,3.62,3.62,0,0,1,2.64-.68,4.22,4.22,0,0,1,2.6,1,2.18,2.18,0,0,1,.7,1.74,1.73,1.73,0,0,1-1.18,1.59ZM85.28,126a13.15,13.15,0,0,0,0-3.86l-.27-2.53a.14.14,0,0,1,.12-.15l5.64-.61a.14.14,0,0,1,.15.12l.69,6.34.79-.09a.14.14,0,0,1,.15.12l.18,1.54-8.16.86-.14-1.53a.14.14,0,0,1,.12-.15l.69-.07Zm11.55-5.84,3-1.13-1-2.7a.14.14,0,0,1,.08-.18l1.59-.6a.14.14,0,0,1,.18.08l2.8,7.4a.14.14,0,0,1-.08.18l-1.59.6a.14.14,0,0,1-.18-.08l-1.19-3.13-3,1.13,1.19,3.13a.14.14,0,0,1-.08.18l-1.59.6a.14.14,0,0,1-.18-.08l-2.8-7.4a.14.14,0,0,1,.08-.18l1.59-.6a.14.14,0,0,1,.18.08l1,2.7Zm10.79-2.91-.22-6.12a.13.13,0,0,1,.06-.12l1.64-1.12a.14.14,0,0,1,.19,0l4.45,6.54a.14.14,0,0,1,0,.19l-1.4,1a.14.14,0,0,1-.19,0l-2.87-4.23.22,6.12a.13.13,0,0,1-.06.12l-1.64,1.12a.14.14,0,0,1-.19,0l-4.45-6.54a.14.14,0,0,1,0-.19l1.4-1a.14.14,0,0,1,.19,0l2.87,4.23Zm6.93-8.8.23-.28-.77-3.76a.13.13,0,0,1,0-.11l1.21-1.49a.14.14,0,0,1,.24.06l.92,4.69,5.2,0a.14.14,0,0,1,.1.22l-1.28,1.58a.13.13,0,0,1-.11.05l-4.36-.08-.11.13,2.59,2.11a.14.14,0,0,1,0,.19l-1.07,1.31a.14.14,0,0,1-.19,0l-6.13-5a.14.14,0,0,1,0-.19l1.07-1.31a.14.14,0,0,1,.19,0l2.24,1.83Zm10.26-9.23-1.21,2.61,1.17,1.1a.13.13,0,0,1,0,.16l-.74,1.59a.14.14,0,0,1-.22,0l-6-6a.13.13,0,0,1,0-.15l.78-1.69a.13.13,0,0,1,.13-.08l8.42.65a.14.14,0,0,1,.11.19l-.76,1.64a.13.13,0,0,1-.14.08l-1.59-.18Zm-67,16.8,1,.68c.75.46,1.42.53,1.95-.27s.05-1.41-.68-1.9l-.9-.6L57.82,116Zm8.37,5.27,1.65.61.09-2.81-1.74,2.2Zm21.07,4.5,2.44-.26-.52-4.81-2,.22.14,1.32a11.8,11.8,0,0,1-.07,3.54Zm35.07-25.16.74-1.6-2.79-.32,2.05,1.91Z"/><path class="cls-1" d="M49.32,52c-1.68-1.94-1.6-4.12.35-5.81C51,45,53,44.49,54.31,46a.12.12,0,0,1,0,.17L53,47.3a.12.12,0,0,1-.17,0,1.42,1.42,0,0,0-2.08.09c-1.11,1-.75,2.23.12,3.24s2.16,1.65,3.27.69a1.53,1.53,0,0,0,.34-2.16.12.12,0,0,1,0-.17l1.27-1.1a.12.12,0,0,1,.17,0A2.9,2.9,0,0,1,56.63,50a3.84,3.84,0,0,1-1.42,2.51c-2,1.71-4.22,1.34-5.89-.59ZM60,41.07l3.16,5.51a.12.12,0,0,1,0,.17l-1.46.84a.12.12,0,0,1-.17,0L58.35,42l-1.91,1.09a.12.12,0,0,1-.17,0l-.69-1.21a.12.12,0,0,1,0-.17l5.49-3.15a.12.12,0,0,1,.17,0L62,39.81a.12.12,0,0,1,0,.17L60,41.07Zm9.7-1.54.45-4.27a.12.12,0,0,1,.08-.1L72,34.56a.12.12,0,0,1,.16.13l-.89,6.43a3.42,3.42,0,0,1-2.14,3l-.54.18a.12.12,0,0,1-.16-.08L68,42.8a.12.12,0,0,1,.08-.16l.51-.17a1.1,1.1,0,0,0,.79-.94L64.49,37.3a.12.12,0,0,1,0-.21l1.74-.59a.12.12,0,0,1,.12,0l3.33,3Zm7.22.88c.47-1.92.14-4.37,0-6.36a.12.12,0,0,1,.11-.13l5.42-.41a.12.12,0,0,1,.13.11L83.07,40l1.11-.07a.12.12,0,0,1,.13.11l.1,1.39a.12.12,0,0,1-.11.13L76,42.2a.12.12,0,0,1-.13-.11l-.14-1.45a.12.12,0,0,1,.11-.13l1.08-.09ZM89,39.15l4.12-4.53a.12.12,0,0,1,.11,0l1.94.35a.12.12,0,0,1,.1.14L93.9,42.81a.12.12,0,0,1-.14.1l-1.66-.3a.12.12,0,0,1-.1-.14l.91-5L88.78,42a.12.12,0,0,1-.11,0l-1.95-.35a.12.12,0,0,1-.1-.14L88,33.76a.12.12,0,0,1,.14-.1l1.66.3a.12.12,0,0,1,.1.14l-.91,5Zm10,2.63a2.47,2.47,0,0,1-.35-2.89c.9-2,2.7-2,4.5-1.2l2.65,1.2a.12.12,0,0,1,.06.16l-3.25,7.16a.12.12,0,0,1-.16.06l-1.53-.7a.12.12,0,0,1-.06-.16l.91-2-1.14-.52-2.19,1.49a.12.12,0,0,1-.12,0l-1.68-.76a.12.12,0,0,1,0-.21L99,41.78ZM78.88,40.26l2.26-.14-.36-4.86L79,35.41a15.41,15.41,0,0,1-.09,4.86Zm23.55,1.66,1-2.29-1.12-.51c-.81-.33-1.49-.28-1.88.58s.17,1.4,1,1.77l1,.45Z"/></svg>