<svg id="Capa_1" data-name="Capa 1" xmlns="http://www.w3.org/2000/svg" width="57.95" height="85" viewBox="0 0 57.95 85"><defs><style>.cls-1{fill:#6cd9e4;}.cls-2{fill:#fff;}</style></defs><title>map-bubble</title><path class="cls-1" d="M29,0C9.59,0,0,13.52,0,30.19S29,85,29,85,58,46.86,58,30.19,48.37,0,29,0Z"/><path class="cls-2" d="M8,27.71c-.28.13-.53.16-.63-.06a1.43,1.43,0,0,1,.28-1.79,12.3,12.3,0,0,0,2.2-2A9.28,9.28,0,0,0,11.16,22c1.66-3.14-4-1.57-5,2.14-.06.28-.22.69-.6.57A1.89,1.89,0,0,1,4.5,23a3.36,3.36,0,0,1,.22-1.58,6.18,6.18,0,0,1,4.21-3.24,5.31,5.31,0,0,1,3.61.25c2.32,1.26.82,4-.31,5.56l-.19.25a3.55,3.55,0,0,1,2.17,3,11.86,11.86,0,0,1-1.51,6.29A13.37,13.37,0,0,1,9.5,37.63c-1.23,1-3.36,2-5,1.48a2.68,2.68,0,0,1-1.7-3.32C3.53,32.55,8.05,30,11,29c.35,0,.28.6.06,1.16-.31.75-.44.75-1,1.16-1.48,1-4.27,3.08-4.49,4.31a.64.64,0,0,0,.41.79.53.53,0,0,0,.22,0c1.45.16,3-1.45,3.83-2.49,1.41-1.83,2.61-4.4,2.17-6.25C11.57,25.1,8.9,27.27,8,27.71Zm36-3.17a4.65,4.65,0,0,1-1.1.41.69.69,0,0,1,0,.25,4.87,4.87,0,0,1-.66,2.11c-1,1.79-3.83,2.92-4.46.25a3.23,3.23,0,0,1-.06-1.23c-.6,1-1.57,2.92-2.73,3a1.32,1.32,0,0,1-1.51-1.13,4.78,4.78,0,0,1-1.26,1.26c-1.6,1-3,0-3-1.79,0-2.14,2.14-5.22,4.49-4.71a1.26,1.26,0,0,1,1,1.51c.35,0,.6.06.66.44v0a3.79,3.79,0,0,0-.44,1.57c-.09,1.54.31,1.41,1.16.47,1.6-1.83,2.45-5.06,3.17-7.35.44-1.48,1.41-3.83,2.8-4.65,1.79-1,2.64-.09,2.8,1.23.41,3.14-2.36,5.88-4.93,7.23a7.39,7.39,0,0,0-.28,1.66,6.06,6.06,0,0,0,0,.75C39.8,28,41.5,27,41.78,25.13a.94.94,0,0,1-.75-.38,1.18,1.18,0,0,1,.5-1.6.91.91,0,0,1,1.26.26.66.66,0,0,1,.13.35,2,2,0,0,0,1-.13c.72-.35,1.26-1.38,2-1.95a3.23,3.23,0,0,1,2-.69c1,0,1.48.38,1.33,1.35h.16a.85.85,0,0,1,.85.57v0a4.31,4.31,0,0,0-.66,2.61c.31,1.89,2.14,1.79,3.33.44a3.24,3.24,0,0,0,.63-3.17s0-.06,0-.06c1.35-.22,1.85.69,1.66,1.89a4.33,4.33,0,0,1-1.95,2.89,3.86,3.86,0,0,1-3.14.6,2.67,2.67,0,0,1-1.35-.91,3.34,3.34,0,0,1-.57-1c-.41,1-1.54,2.23-2.7,2s-1.73-1.7-1.66-2.89a3.52,3.52,0,0,1,.19-.72Zm4.3-1.38c.16-.41,0-.69-.47-.63-.82.13-1.63,1.26-1.85,1.95-.5,1.48.5,1.85,1.45.6a8.8,8.8,0,0,0,.88-1.92ZM23,29.47a3.77,3.77,0,0,1-2.32,1.89,1.26,1.26,0,0,1-1.48-1.07,3.93,3.93,0,0,1-1.7,1.42A1.83,1.83,0,0,1,15,30.77v0c-.85-1.83.6-4.59,2.26-5.47a2.48,2.48,0,0,1,2.7,0,1.46,1.46,0,0,1,.38.72c.69-.16,1.51.41,1.19.82a5.07,5.07,0,0,0-.91,1.73c-.06.28-.19,1.13.31,1.07.72-.06,1.54-1.26,1.85-1.85.25-1.41,1.73-3.71,3.36-3.55a1.75,1.75,0,0,1,1.07.47c-.47-1.45-2-1.57-3.24-2a3.9,3.9,0,0,1-1.57-1c-1.16-1.33-.22-2.82,1.07-3.58a11.1,11.1,0,0,1,4.81-1.16c1.76-.09,6.07.09,6.82,1.95a2,2,0,0,1-.38,1.83.26.26,0,0,1-.35.13s-.09-.06-.09-.09a4.18,4.18,0,0,0-2.67-1.54,13.5,13.5,0,0,0-6,.22c-.63.19-2.92,1.13-1.54,1.85.85.44,1.95.57,2.82.94A3.54,3.54,0,0,1,29,26a6.36,6.36,0,0,1-1,2.76c-.72,1.13-1.95,2.32-3.43,2.07A2.09,2.09,0,0,1,23,29.47ZM27,26.8a.48.48,0,0,1-.53-.06l0,0c.06-.31.22-1.33-.44-.88A4,4,0,0,0,25,28.09c-.09,1.45,1.35.6,1.83-.5A5.75,5.75,0,0,0,27,26.8Zm-8,1.13c-.19,0-.44,0-.35-.28.16-.41.44-1.51-.35-1a3.4,3.4,0,0,0-1.19,2.45c.13.94.94.57,1.38,0a3.34,3.34,0,0,0,.5-1.2Zm21.56-6.32a8.11,8.11,0,0,0,1.7-1.89,5.11,5.11,0,0,0,1.16-2.89c0-.44-.13-.69-.44-.38-1.23,1.35-1.79,3.43-2.42,5.15ZM32,27.77c1.13.06,1.89-3,1.48-3.17a.92.92,0,0,0-.75.13,3.4,3.4,0,0,0-1.19,2.45c0,.31.12.59.47.59Z"/><path class="cls-2" d="M24,35.06a.57.57,0,0,1,.44.5c.06.57-.44.79-.91.82l-1,.13s0,0,0,0l-.28-2.29s0,0,0,0l.88-.11c.44-.06,1,0,1.07.53A.45.45,0,0,1,24,35.06Zm2.36.5-.85.09-.09.47a0,0,0,0,1,0,0h0l-.5.06s0,0,0,0l.53-2.42a0,0,0,0,1,0,0h0l.53-.06s0,0,0,0l1.16,2.2s0,0,0,.06l-.53.06s0,0,0,0Zm1.79-.25.6-.06-.25-1.85s0,0,0,0l.5-.06s0,0,0,0l.25,1.86.6-.06-.25-1.85s0,0,0,0l.5-.06s0,0,0,0l.28,2.29s0,0,0,0l-2.8.35s0,0,0,0l-.28-2.29s0,0,0,0l.5-.06s0,0,0,0l.22,1.83Zm3.33-1.85.06.41.94-.13s0,0,0,0l.06.41s0,0,0,0l-.94.13.06.53,1.13-.16s0,0,0,0l.06.41s0,0,0,0l-1.66.22s0,0,0,0l-.28-2.29s0,0,0,0l1.66-.22s0,0,0,0l.06.41s0,0,0,0l-1.16.16Zm2.26-.28L34,35s0,0,0,0l-.5.06s0,0,0,0l-.28-2.29s0,0,0,0l1.29-.16s0,0,0,0l.09.41s0,0,0,0Zm1.13.57a1.13,1.13,0,0,1,1-1.38,1.25,1.25,0,1,1-1,1.45s0,0,0-.06ZM23,35.94l.44-.06c.19,0,.41-.09.38-.31s-.31-.22-.47-.19l-.41.06ZM22.86,35l.31,0c.16,0,.44-.09.41-.31s-.28-.16-.44-.16l-.35,0Zm2.7.16.5-.06-.35-.75Zm9.87-1.48c.06.38.31.75.72.69a.72.72,0,0,0,.53-.85.63.63,0,1,0-1.26.08h0ZM19.56,36.22l-.66-.72-1.48,1.35h-.06L17,36.44v-.06l1.83-1.66h.06l1.41,1.57v.06L18.48,38h-.06l-.35-.41v-.06Zm1,2.49-.38.57h-.06L19.71,39v-.06l1.38-2.08h.06l.75.5c.53.35.85.82.44,1.38s-.94.5-1.48.16ZM24,40.66l-.85-.32-.31.41h-.06l-.53-.19s0,0,0-.06l1.73-2H24l.53.2a0,0,0,0,1,0,0h0v2.64a0,0,0,0,1,0,0h0L24,41.2a0,0,0,0,1,0,0h0Zm3.77-.06a.57.57,0,0,1,.38.6c-.06.6-.72.75-1.23.72s-1.16-.31-1.1-1c0,0,0,0,.06,0l.57.06s0,0,0,.06c0,.28.25.38.5.41s.5,0,.53-.28-.31-.28-.5-.28l-.22,0s0,0,0-.06l0-.44s0,0,.06,0H27c.19,0,.44,0,.47-.22s-.25-.31-.44-.31-.44.06-.44.31c0,0,0,0-.06,0L26,40.06s0,0,0-.06a.86.86,0,0,1,.31-.57,1.12,1.12,0,0,1,.82-.22,1.26,1.26,0,0,1,.82.31.69.69,0,0,1,.22.53.5.5,0,0,1-.35.53Zm1.73.82a4,4,0,0,0,0-1.23l-.09-.79s0,0,0-.06l1.76-.19s0,0,.06,0l.22,2,.25,0s0,0,.06,0l.06.47-2.58.28,0-.47s0,0,0-.06l.22,0Zm3.61-1.83.94-.35-.31-.85s0-.06,0-.06l.5-.19s.06,0,.06,0l.88,2.32s0,.06,0,.06l-.5.19s-.06,0-.06,0l-.38-1-.94.35.38,1s0,.06,0,.06l-.5.19s-.06,0-.06,0L32.23,39s0-.06,0-.06l.5-.19s.06,0,.06,0Zm3.39-.91-.06-1.92a0,0,0,0,1,0,0h0l.5-.35h.06l1.38,2v.06l-.44.31h-.06L37,37.48l.06,1.92a0,0,0,0,1,0,0h0l-.5.35h-.06l-1.38-2v-.06l.44-.31h.06Zm2.2-2.8.06-.09-.25-1.19v0l.38-.47s0,0,.06,0v0l.28,1.48h1.63s0,0,0,.06v0l-.41.5,0,0-1.38,0,0,0,.82.66V37l-.34.4h-.06l-1.92-1.57v-.06l.35-.41H38l.75.57ZM41.93,33l-.38.82.38.35v.06l-.22.5s0,0-.06,0l-1.89-1.89v-.06l.25-.53a0,0,0,0,1,0,0h0l2.64.22s0,0,0,.06l-.25.5a0,0,0,0,1,0,0h0ZM20.87,38.27l.31.22a.4.4,0,0,0,.63-.09c.19-.25,0-.44-.22-.6l-.28-.19Zm2.64,1.66.53.19,0-.88Zm6.63,1.41.75-.09-.16-1.51-.63.06,0,.41a4.54,4.54,0,0,1,0,1.14Zm11-7.92.22-.5-.88-.09ZM18.2,18.15a1.2,1.2,0,0,1,.09-1.83,1,1,0,0,1,1.48-.06v.06l-.41.35H19.3a.44.44,0,0,0-.63,0,0,0,0,0,1,0,0h0a.66.66,0,0,0,0,1c.28.32.69.53,1,.22a.5.5,0,0,0,.13-.66V17.2l.41-.35h.06a.85.85,0,0,1,.22.66,1.11,1.11,0,0,1-.44.79,1.28,1.28,0,0,1-1.88-.16Zm3.36-3.43,1,1.73v.06l-.48.25H22L21,15l-.6.35h-.06L20.15,15v-.06l1.73-1h.06l.25.41v.06Zm3-.5.13-1.35a0,0,0,0,1,0,0h0l.57-.19s0,0,.06,0v0l-.28,2a1.11,1.11,0,0,1-.66.94l-.16.06s0,0-.06,0l-.16-.44s0,0,0-.06l.16-.06a.38.38,0,0,0,.25-.28L23,13.53s0,0,0-.06l.54-.18h0Zm2.26.28a7.17,7.17,0,0,0,0-2s0,0,0,0l1.7-.13s0,0,0,0l.16,2,.35,0s0,0,0,0l0,.44s0,0,0,0l-2.57.22s0,0,0,0l0-.47s0,0,0,0Zm3.8-.38L32,12.72h0l.6.09a0,0,0,0,1,0,0h0l-.44,2.42a0,0,0,0,1,0,0h0l-.53-.09a0,0,0,0,1,0,0h0l.28-1.57L30.62,15h0l-.6-.09a0,0,0,0,1,0,0h0l.44-2.45a0,0,0,0,1,0,0h0l.53.09a0,0,0,0,1,0,0h0Zm3.15.81a.76.76,0,0,1-.09-.91c.28-.63.85-.63,1.41-.38L36,14s0,0,0,.06l-1,2.26s0,0-.06,0l-.47-.22s0,0,0-.06l.28-.63-.34-.15-.69.47h0l-.53-.25s0,0,0-.06A5.59,5.59,0,0,1,33.82,14.94Zm-6.32-.47.72,0L28.1,12.9l-.57,0a5.06,5.06,0,0,1,0,1.54Zm7.39.5.31-.72-.34-.15c-.25-.09-.47-.09-.6.19s.06.44.31.57Z"/></svg>